<?xml version="1.0" encoding="utf-8"?>
<!-- Generated by IcoMoon.io -->
<!DOCTYPE svg PUBLIC "-//W3C//DTD SVG 1.1//EN" "http://www.w3.org/Graphics/SVG/1.1/DTD/svg11.dtd">
<svg version="1.1" xmlns="http://www.w3.org/2000/svg" xmlns:xlink="http://www.w3.org/1999/xlink" width="32" height="32" viewBox="0 0 32 32">
<path d="M6.813 20.281q0 0.938-0.563 1.594t-1.344 0.656-1.344-0.656-0.563-1.594v-7.313q0-0.938 0.563-1.594t1.344-0.656 1.344 0.656 0.563 1.594v7.313zM29 20.281q0 0.938-0.563 1.594t-1.344 0.656-1.344-0.656-0.563-1.594v-7.313q0-0.938 0.563-1.594t1.344-0.656 1.344 0.656 0.563 1.594v7.313zM20.156 3.656l1.219-2.188q0.094-0.156 0.078-0.281t-0.141-0.188q-0.094-0.063-0.219 0t-0.188 0.188l-1.25 2.25q-0.844-0.344-1.781-0.516t-1.906-0.172q-1 0-1.938 0.172t-1.781 0.516l-1.25-2.25q-0.094-0.125-0.219-0.188t-0.219 0-0.109 0.188 0.047 0.281l1.219 2.188q-1.906 0.906-3.094 2.5t-1.188 3.531q0 0.219 0.016 0.406t0.047 0.375h16.906q0.031-0.188 0.047-0.375t0.016-0.406q0-1.938-1.188-3.531t-3.125-2.5v0zM12.094 7.469q-0.313 0-0.531-0.219t-0.219-0.531q0-0.281 0.219-0.5t0.531-0.219 0.531 0.219 0.219 0.5q0 0.313-0.219 0.531t-0.531 0.219v0zM19.875 7.469q-0.313 0-0.531-0.219t-0.219-0.531q0-0.281 0.219-0.5t0.531-0.219q0.281 0 0.5 0.219t0.219 0.5q0 0.313-0.219 0.531t-0.5 0.219v0zM7.438 11.219v12.469h0.031q0.063 0.781 0.703 1.328t1.516 0.547h12.531q0.875 0 1.531-0.547t0.719-1.328v0-12.469h-17.031zM14.75 25.5v3.875q0 0.906-0.563 1.563t-1.344 0.656-1.344-0.656-0.563-1.563v-3.875h3.813zM21.094 25.5v3.875q0 0.906-0.563 1.563t-1.344 0.656-1.344-0.656-0.563-1.563v-3.875h3.813z"></path>
</svg>
