<?xml version="1.0" encoding="utf-8"?>
<!-- Generated by IcoMoon.io -->
<!DOCTYPE svg PUBLIC "-//W3C//DTD SVG 1.1//EN" "http://www.w3.org/Graphics/SVG/1.1/DTD/svg11.dtd">
<svg version="1.1" xmlns="http://www.w3.org/2000/svg" xmlns:xlink="http://www.w3.org/1999/xlink" width="32" height="32" viewBox="0 0 32 32">
<path d="M23.046 16.703c-0.033-3.262 2.66-4.827 2.78-4.906-1.513-2.213-3.87-2.516-4.71-2.551-2.004-0.204-3.913 1.181-4.931 1.181-1.015 0-2.586-1.151-4.248-1.122-2.187 0.033-4.203 1.272-5.328 3.23-2.271 3.94-0.581 9.778 1.632 12.976 1.082 1.563 2.372 3.322 4.065 3.257 1.632-0.064 2.247-1.056 4.22-1.056s2.526 1.056 4.252 1.022c1.754-0.032 2.867-1.593 3.94-3.162 1.242-1.816 1.753-3.573 1.783-3.663-0.038-0.017-3.42-1.313-3.455-5.207zM19.803 7.131c0.898-1.090 1.506-2.604 1.341-4.112-1.296 0.053-2.864 0.861-3.794 1.95-0.833 0.966-1.562 2.504-1.367 3.984 1.445 0.112 2.919-0.735 3.82-1.823z"></path>
</svg>
