<?xml version="1.0" encoding="utf-8"?>
<!-- Generated by IcoMoon.io -->
<!DOCTYPE svg PUBLIC "-//W3C//DTD SVG 1.1//EN" "http://www.w3.org/Graphics/SVG/1.1/DTD/svg11.dtd">
<svg version="1.1" xmlns="http://www.w3.org/2000/svg" xmlns:xlink="http://www.w3.org/1999/xlink" width="32" height="32" viewBox="0 0 32 32">
<path d="M10.81 4.25c-1.487 0.325-2.273 2.047-2.107 4.598 0.051 0.739 0.043 0.667 0.197 1.611 0.064 0.38 0.107 0.701 0.098 0.709-0.008 0.013-0.269 0.077-0.572 0.15-2.021 0.466-3.508 1.167-4.401 2.072-0.602 0.607-0.855 1.171-0.846 1.884 0.004 0.402 0.137 0.842 0.38 1.265 0.209 0.363 0.957 1.102 1.449 1.436 1.030 0.692 1.346 0.79 1.628 0.508 0.12-0.12 0.145-0.179 0.145-0.32 0-0.273-0.094-0.406-0.415-0.581-1.41-0.782-2.149-1.594-2.149-2.371 0-0.282 0.098-0.538 0.333-0.846 0.62-0.825 2.115-1.564 4.119-2.038 0.53-0.124 0.632-0.132 0.632-0.043 0 0.115 0.427 1.483 0.701 2.23l0.273 0.752-0.338 0.645c-0.184 0.355-0.449 0.893-0.585 1.201-1.961 4.32-2.286 7.751-0.867 9.161 0.333 0.333 0.607 0.487 1.055 0.602 1.034 0.265 2.401-0.132 3.935-1.145 0.534-0.355 0.654-0.487 0.654-0.722 0-0.282-0.308-0.555-0.581-0.513-0.077 0.013-0.376 0.179-0.662 0.367-0.632 0.423-1.342 0.773-1.854 0.927-0.526 0.154-1.094 0.162-1.419 0.021-0.996-0.44-1.226-2.218-0.607-4.683 0.291-1.171 0.957-2.931 1.56-4.132l0.239-0.483 0.132 0.299c0.248 0.573 1.213 2.44 1.589 3.076 2.081 3.538 4.427 6.131 6.507 7.191 1.474 0.752 2.692 0.684 3.521-0.201 0.611-0.645 0.91-1.585 0.961-2.995 0.081-2.427-0.709-5.585-2.256-8.969-0.205-0.453-0.41-0.863-0.449-0.906-0.094-0.102-0.333-0.171-0.496-0.137s-0.359 0.231-0.389 0.397c-0.034 0.158 0.004 0.265 0.385 1.090 1.060 2.286 1.803 4.687 2.089 6.751 0.094 0.679 0.111 2.153 0.026 2.606-0.085 0.457-0.252 0.931-0.431 1.205-0.286 0.44-0.615 0.62-1.158 0.615-1.611-0.004-4.149-2.218-6.405-5.576-1.038-1.551-1.995-3.303-2.735-5.016l-0.265-0.611 0.372-0.628c0.479-0.812 0.983-1.581 1.547-2.371l0.449-0.628h0.692c4.751 0 9.469 1.077 11.878 2.705 0.551 0.372 1.081 0.914 1.265 1.29 0.128 0.265 0.145 0.338 0.145 0.641-0.004 0.286-0.021 0.376-0.12 0.564-0.295 0.573-1.043 1.141-2.081 1.594-0.487 0.209-0.641 0.355-0.641 0.603 0 0.231 0.094 0.397 0.274 0.483 0.196 0.094 0.265 0.085 0.581-0.043 1.491-0.602 2.568-1.491 2.905-2.397 0.624-1.666-0.684-3.35-3.568-4.606-2.521-1.102-6.225-1.79-10.079-1.871l-0.423-0.009 0.483-0.555c0.555-0.645 1.782-1.871 2.307-2.312 1.248-1.051 2.363-1.718 3.324-1.991 0.474-0.137 1.060-0.132 1.363 0.004 0.41 0.184 0.696 0.598 0.855 1.239 0.098 0.389 0.098 1.577 0 2.149-0.111 0.632-0.098 0.743 0.073 0.914 0.124 0.124 0.175 0.145 0.355 0.145 0.38 0 0.479-0.141 0.594-0.833 0.060-0.355 0.081-0.692 0.081-1.389 0-0.812-0.013-0.966-0.098-1.303-0.269-1.064-0.927-1.799-1.807-2.008-2.042-0.479-5.166 1.487-8.272 5.213-0.256 0.303-0.496 0.602-0.534 0.654-0.064 0.094-0.107 0.103-0.726 0.141-0.359 0.021-1.017 0.081-1.466 0.132-1.188 0.137-1.094 0.15-1.162-0.158-0.18-0.859-0.239-1.461-0.244-2.393-0.004-1.008 0.030-1.307 0.214-1.867 0.197-0.594 0.53-0.996 0.953-1.137 0.205-0.073 0.709-0.064 1.008 0.013 0.5 0.132 1.205 0.508 1.846 0.991 0.38 0.286 0.513 0.338 0.714 0.269 0.231-0.073 0.367-0.265 0.367-0.504 0-0.179-0.017-0.214-0.205-0.393-0.265-0.256-1.034-0.769-1.5-1-0.88-0.44-1.649-0.581-2.342-0.432zM12.412 11.822c-0.004 0.021-0.282 0.44-0.611 0.936s-0.654 0.996-0.722 1.111l-0.124 0.209-0.103-0.278c-0.128-0.338-0.525-1.645-0.525-1.726 0-0.077 0.188-0.107 1.581-0.252 0.291-0.030 0.521-0.030 0.504 0zM15.664 14.462c-0.303 0.098-0.598 0.316-0.773 0.577-0.525 0.773-0.269 1.782 0.555 2.188 0.256 0.128 0.32 0.141 0.671 0.141s0.414-0.013 0.671-0.141c1.115-0.547 1.090-2.171-0.043-2.692-0.299-0.137-0.782-0.167-1.081-0.073z"></path>
</svg>
