<?xml version="1.0" encoding="utf-8"?>
<!-- Generated by IcoMoon.io -->
<!DOCTYPE svg PUBLIC "-//W3C//DTD SVG 1.1//EN" "http://www.w3.org/Graphics/SVG/1.1/DTD/svg11.dtd">
<svg version="1.1" xmlns="http://www.w3.org/2000/svg" xmlns:xlink="http://www.w3.org/1999/xlink" width="32" height="32" viewBox="0 0 32 32">
<path d="M8.179 4.597c-0.562 0.083-1.238 0.347-1.718 0.676-0.313 0.208-0.717 0.596-0.951 0.902-0.261 0.344-0.578 1.004-0.702 1.457l-0.106 0.377v15.743l0.106 0.378c0.125 0.453 0.442 1.114 0.702 1.457 0.491 0.642 1.246 1.182 2.005 1.427 0.627 0.2 0.313 0.192 8.494 0.192 8.185 0 7.871 0.008 8.494-0.196 0.763-0.245 1.518-0.781 2.005-1.423 0.261-0.347 0.581-1.008 0.706-1.457l0.102-0.378v-15.743l-0.106-0.378c-0.125-0.453-0.442-1.114-0.702-1.457-0.234-0.306-0.638-0.695-0.951-0.902-0.336-0.23-0.883-0.479-1.306-0.596l-0.37-0.102-7.739-0.004c-4.255-0.004-7.841 0.008-7.962 0.026zM18.727 8.761c1.193 0.196 2.008 0.589 2.541 1.223 0.226 0.268 0.491 0.8 0.6 1.197 0.068 0.26 0.079 0.408 0.083 1.057 0.004 0.683-0.004 0.785-0.083 1.053-0.23 0.8-0.732 1.416-1.544 1.891l-0.279 0.162 0.2 0.064c0.306 0.102 0.815 0.366 1.076 0.563 0.649 0.491 1.102 1.253 1.284 2.163 0.087 0.453 0.087 1.423-0.004 1.838-0.359 1.635-1.623 2.771-3.526 3.152-0.729 0.147-0.917 0.155-4.828 0.155h-3.824v-14.614l3.956 0.015c3.541 0.011 3.994 0.019 4.349 0.079zM13.669 12.884v1.722l1.823-0.015c1.71-0.019 1.838-0.023 2.114-0.098 0.861-0.234 1.235-0.729 1.235-1.635 0-0.695-0.245-1.144-0.778-1.408-0.472-0.234-0.982-0.283-2.986-0.287h-1.408v1.722zM13.669 18.788v2.005l1.993-0.015c2.239-0.015 2.314-0.023 2.865-0.291 0.634-0.31 0.917-0.815 0.917-1.642 0-1.064-0.423-1.654-1.397-1.948-0.276-0.087-0.328-0.087-2.329-0.102l-2.050-0.011v2.005z"></path>
</svg>
