<?xml version="1.0" encoding="utf-8"?>
<!-- Generated by IcoMoon.io -->
<!DOCTYPE svg PUBLIC "-//W3C//DTD SVG 1.1//EN" "http://www.w3.org/Graphics/SVG/1.1/DTD/svg11.dtd">
<svg version="1.1" xmlns="http://www.w3.org/2000/svg" xmlns:xlink="http://www.w3.org/1999/xlink" width="32" height="32" viewBox="0 0 32 32">
<path d="M13.443 9.864c-0.653 0-1.183 0.53-1.183 1.183s0.53 1.183 1.183 1.183c0.653 0 1.183-0.53 1.183-1.183s-0.529-1.183-1.183-1.183zM13.443 10.95c-0.381 0-0.689-0.192-0.689-0.429s0.309-0.429 0.689-0.429c0.381 0 0.689 0.192 0.689 0.429s-0.309 0.429-0.689 0.429zM26.92 15.665c-1.166-1.121-6.998-1.82-8.839-2.024 0.089-0.211 0.165-0.428 0.228-0.652 0.251-0.11 0.522-0.212 0.802-0.297 0.034 0.101 0.195 0.486 0.286 0.669 3.701 0.102 3.891-2.75 4.041-3.531 0.147-0.764 0.14-1.502 1.409-2.852-1.891-0.551-4.61 0.854-5.521 2.946-0.342-0.128-0.685-0.223-1.025-0.282-0.243-0.981-1.509-3.713-4.832-3.713-2.152 0-4.322 0.889-5.953 2.438-0.879 0.835-1.57 1.826-2.053 2.947-0.521 1.21-0.786 2.543-0.786 3.961 0 4.938 3.372 9.266 5.277 9.266 0.832 0 1.548-0.623 1.716-1.181 0.141 0.383 0.573 1.573 0.715 1.876 0.21 0.448 1.18 0.836 1.604 0.371 0.546 0.303 1.548 0.486 2.094-0.323 1.051 0.222 1.981-0.405 2.001-1.153 0.516-0.028 0.769-0.752 0.656-1.329-0.083-0.425-0.97-1.949-1.316-2.475 0.685 0.557 2.42 0.715 2.631 0 1.104 0.867 2.825 0.412 2.962-0.293 1.342 0.349 2.881-0.417 2.628-1.345 2.156-0.149 1.88-2.443 1.275-3.024zM21.306 11.863c-0.568-0.223-1.288-0.364-1.793-0.364-0.716 0-1.152 0.406-1.826 0.406-0.141 0-0.479 0.001-0.75-0.096 0.178 0.187 0.4 0.288 0.829 0.288 0.257 0 0.765-0.131 1.176-0.255 0.006 0.087 0.015 0.173 0.027 0.258-0.771 0.184-1.579 0.675-1.814 0.802-0.521-1.15-0.073-2.237 0.341-2.739 1.854 0.004 3.352 1.278 3.808 1.699zM22.108 11.776l-0.284-0.265c-0.291-0.273-0.595-0.52-0.907-0.739 0.464-0.921 1.048-1.927 1.785-2.55-0.811 0.327-1.612 1.304-2.086 2.349-0.241-0.153-0.486-0.29-0.733-0.41 0.661-1.41 2.195-2.587 3.887-2.679-1.133 1.027-0.708 3.078-1.662 4.294zM19.78 12.737c-0.125-0.271-0.252-0.721-0.236-0.985 0.211-0.005 0.614 0.074 0.679 0.089-0.025 0.124-0.038 0.396-0.038 0.431 0.040-0.069 0.151-0.307 0.196-0.4 0.404 0.077 0.936 0.206 1.247 0.352-0.366 0.237-0.988 0.495-1.848 0.513zM17.254 9.558c-1.478 1.498-0.895 3.394-0.356 4.251-0.766 1.274-2.271 2.145-4.020 2.542 1.963 0 3.118-0.505 3.79-1 0.429-0.316 0.661-0.628 0.78-0.801 2.911 0.188 7.52 1.126 7.969 1.43 0.18 0.122 0.367 0.392 0.394 0.65-2.187-0.306-6.13-0.628-7.162-0.683 0.733 0.104 6.078 1.116 7.005 1.353-0.282 0.46-0.924 0.785-1.893 0.559 0.523 0.713-0.493 1.568-1.908 1.097 0.311 0.7-0.948 1.33-2.38 0.6 0.018 0.7-1.776 0.781-2.486 0.007 0.014 0.092 0.098 0.269 0.134 0.346-0.229 2.044-1.903 3.312-3.617 3.312-4.198 0-7.856-3.41-7.856-7.946 0-4.796 3.544-8.375 7.821-8.375 2.45-0 3.557 1.929 3.785 2.66z"></path>
</svg>
