<?xml version="1.0" encoding="utf-8"?>
<!-- Generated by IcoMoon.io -->
<!DOCTYPE svg PUBLIC "-//W3C//DTD SVG 1.1//EN" "http://www.w3.org/Graphics/SVG/1.1/DTD/svg11.dtd">
<svg version="1.1" xmlns="http://www.w3.org/2000/svg" xmlns:xlink="http://www.w3.org/1999/xlink" width="44" height="32" viewBox="0 0 44 32">
<path d="M20.751 31.297c-2.618 0-5.218 0.069-7.836-0.017-6.303-0.207-11.762-5.545-12.434-11.831-0.741-6.992 3.995-13.243 10.402-14.535 1.447-0.293 2.962-0.276 4.443-0.258 0.585 0.017 0.947-0.086 1.343-0.465 8.214-7.887 21.802-4.753 25.728 5.907 3.548 9.592-2.859 20.114-12.968 21.113-2.876 0.293-5.786 0.052-8.697 0.052 0.017 0.017 0.017 0.017 0.017 0.034zM19.322 5.655c0.827 0.499 1.533 0.878 2.17 1.343 0.379 0.276 0.637 0.276 1.068 0.034 1.998-1.137 4.116-1.602 6.441-1.257 4.822 0.689 8.49 4.856 8.524 9.747 0.017 3.909-2.394 7.663-5.924 9.144-3.806 1.602-8.042 0.861-10.918-1.963-2.015-1.963-3.978-3.978-5.976-5.959-0.775-0.758-1.619-0.827-2.29-0.207-0.706 0.654-0.672 1.533 0.138 2.342 2.015 2.032 4.030 4.081 6.096 6.062 3.031 2.893 6.647 4.030 10.815 3.444 6.923-0.982 11.848-7.422 10.987-14.362-0.999-8.025-9.007-13.191-16.722-10.798-1.584 0.482-3.048 1.24-4.409 2.428zM18.323 28.473c-0.792-0.758-1.464-1.292-2.015-1.929-0.723-0.844-1.55-1.292-2.687-1.119-0.327 0.052-0.689 0.017-1.033-0.052-3.203-0.568-5.735-3.065-6.217-6.113-0.517-3.306 1.068-6.492 3.995-7.991 2.945-1.515 6.337-0.982 8.783 1.412 1.326 1.309 2.635 2.652 3.961 3.961 0.861 0.861 1.722 0.913 2.411 0.207 0.654-0.672 0.568-1.533-0.241-2.359-1.292-1.309-2.583-2.618-3.892-3.892-2.463-2.411-5.39-3.479-8.834-3.1-4.15 0.465-7.681 3.444-8.903 7.56-1.171 3.978 0.276 8.438 3.461 11.090 3.272 2.686 7.095 2.463 11.211 2.325z"></path>
</svg>
