<?xml version="1.0" encoding="utf-8"?>
<!-- Generated by IcoMoon.io -->
<!DOCTYPE svg PUBLIC "-//W3C//DTD SVG 1.1//EN" "http://www.w3.org/Graphics/SVG/1.1/DTD/svg11.dtd">
<svg version="1.1" xmlns="http://www.w3.org/2000/svg" xmlns:xlink="http://www.w3.org/1999/xlink" width="32" height="32" viewBox="0 0 32 32">
<path d="M27.25 12.688q0-0.031-0.016-0.047t-0.016-0.047v-0.031q0-0.031-0.016-0.047l-0.016-0.016q0-0.031-0.016-0.031t-0.016-0.031l-0.016-0.016t-0.016-0.047v-0.016t-0.031-0.016q0-0.031-0.016-0.047l-0.016-0.016q0-0.031-0.016-0.031t-0.016-0.031l-0.016-0.016t-0.047-0.016q0-0.031-0.016-0.031h-0.016q0-0.031-0.016-0.047t-0.047-0.016l-0.031-0.031h-0.031l-10.281-6.875q-0.25-0.156-0.531-0.156t-0.531 0.156l-10.281 6.875h-0.031l-0.031 0.031q-0.031 0-0.047 0.016t-0.016 0.047h-0.016t-0.016 0.031q-0.031 0-0.047 0.016l-0.016 0.016q0 0.031-0.016 0.031t-0.016 0.031l-0.016 0.016t-0.016 0.047q-0.031 0-0.031 0.016v0.016q0 0.031-0.016 0.047l-0.016 0.016q0 0.031-0.016 0.031t-0.016 0.031l-0.016 0.016t-0.016 0.047v0.031q0 0.031-0.016 0.047t-0.016 0.047v7.188q0 0.031 0.016 0.047t0.016 0.047v0.031q0 0.031 0.016 0.047t0.016 0.047l0.031 0.031q0 0.031 0.016 0.047l0.016 0.016v0.031l0.047 0.047t0.016 0.047l0.094 0.094h0.016t0.016 0.031l0.016 0.016t0.047 0.016l0.031 0.031v0.016t0.031 0.016l10.281 6.844q0.125 0.094 0.266 0.125t0.266 0.031 0.266-0.031 0.266-0.125l10.281-6.844q0.031 0 0.031-0.016v-0.016l0.031-0.031q0.031 0 0.047-0.016l0.016-0.016q0-0.031 0.016-0.031h0.016l0.094-0.094q0-0.031 0.016-0.047l0.047-0.047v-0.031l0.016-0.016t0.016-0.047l0.031-0.031q0-0.031 0.016-0.047t0.016-0.047v-0.031q0-0.031 0.016-0.047t0.016-0.047v-7.188zM16 18.563l-3.406-2.281 3.406-2.281 3.438 2.281-3.438 2.281zM15.031 12.313l-4.188 2.813-3.406-2.281 7.594-5.031v4.5zM9.094 16.281l-2.406 1.625v-3.25l2.406 1.625zM10.844 17.438l4.188 2.813v4.531l-7.594-5.063 3.406-2.281zM16.969 20.25l4.188-2.813 3.406 2.281-7.594 5.063v-4.531zM22.906 16.281l2.406-1.625v3.25l-2.406-1.625zM21.156 15.125l-4.188-2.813v-4.5l7.594 5.031-3.406 2.281z"></path>
</svg>
