<?xml version="1.0" encoding="utf-8"?>
<!-- Generated by IcoMoon.io -->
<!DOCTYPE svg PUBLIC "-//W3C//DTD SVG 1.1//EN" "http://www.w3.org/Graphics/SVG/1.1/DTD/svg11.dtd">
<svg version="1.1" xmlns="http://www.w3.org/2000/svg" xmlns:xlink="http://www.w3.org/1999/xlink" width="32" height="32" viewBox="0 0 32 32">
<path d="M16.603 7.17c-0.4 0.118-1.294 0.518-2 0.918-1.624 0.918-2.753 1.129-3.389 0.659-0.4-0.329-0.424-0.4-0.118-0.612 0.188-0.141 0.753-0.212 1.224-0.188 0.494 0.023 0.894-0.047 0.894-0.165 0.023-0.424-2.259-0.424-2.683 0-0.871 0.894-0.024 1.788 1.835 1.953 1.082 0.094 1.53-0.023 3.153-0.753 2.118-0.965 3.718-1.271 4.495-0.87 0.588 0.329 0.659 0.847 0.118 1.059-0.682 0.259-1.906 0.141-2.212-0.188-0.306-0.4-0.941-0.235-0.941 0.235 0 0.965 3.577 1.106 4.494 0.165 1.483-1.459-1.788-2.941-4.871-2.212zM6.035 8.723c-1.929 1.035-0.071 2.447 4.141 3.153 5.342 0.894 13.742 0.235 16.001-1.247 0.729-0.471 0.776-1.435 0.118-1.788-0.4-0.212-0.471-0.188-0.471 0.212 0 1.294-3.742 2.141-9.554 2.141-6.401 0-10.071-0.918-9.601-2.424 0.141-0.471 0.141-0.471-0.635-0.047zM6.045 12.3c0.094 0.353 0.306 1.129 0.471 1.694 0.306 1.012 0.282 1.035-0.518 1.859-1.812 1.883-1.647 4.471 0.424 6 0.706 0.518 2.635 0.635 3.082 0.188 0.188-0.188 0.118-0.259-0.259-0.259-0.612 0-2.047-1.224-2.541-2.141-0.471-0.941-0.424-2.4 0.118-3.059l0.447-0.565 0.235 0.588c0.141 0.329 0.847 1.506 1.6 2.588 0.753 1.106 1.53 2.471 1.741 3.059 0.353 0.918 0.588 1.153 1.765 1.765 1.153 0.565 1.718 0.706 3.506 0.776 3.482 0.165 6-0.871 6.377-2.565 0.094-0.4 0.823-1.694 1.624-2.871 1.506-2.235 2.188-3.6 2.824-5.789 0.565-1.929 0.541-1.953-0.871-1.318-2.118 0.965-5.506 1.365-10.495 1.224-5.106-0.141-6.989-0.494-9.506-1.765-0.094-0.047-0.118 0.212-0.023 0.588z"></path>
</svg>
