<?xml version="1.0" encoding="utf-8"?>
<!-- Generated by IcoMoon.io -->
<!DOCTYPE svg PUBLIC "-//W3C//DTD SVG 1.1//EN" "http://www.w3.org/Graphics/SVG/1.1/DTD/svg11.dtd">
<svg version="1.1" xmlns="http://www.w3.org/2000/svg" xmlns:xlink="http://www.w3.org/1999/xlink" width="27" height="32" viewBox="0 0 27 32">
<path d="M13.973 29.949c0.558-0.261 0.963-0.63 0.963-0.9 0-0.108 1.431-1.539 1.62-1.62 0.027-0.009 0.216 0.045 0.396 0.117l0.342 0.144-0.639 0.405c-0.351 0.216-0.675 0.396-0.729 0.396zM16.727 28.411l0.612-0.306c1.233-0.621 4.562-1.764 5.821-2.006 0.558-0.099 0.432-0.189-0.153-0.108-0.306 0.036-0.612 0.099-0.684 0.117-0.252 0.099 0.198-0.315 0.738-0.684 0.297-0.189 0.468-0.351 0.387-0.351-0.432 0-4.328 1.557-5.066 2.033-0.279 0.18-0.297 0.171-0.297-0.216 0-0.324 0.027-0.342 0.612-0.666 0.513-0.279 3.662-1.692 3.77-1.692 0.018 0-0.072 0.189-0.207 0.423l-0.252 0.432 0.684-0.63c0.378-0.351 0.684-0.657 0.693-0.684 0-0.036-0.216-0.009-0.486 0.054s-0.513 0.090-0.531 0.054c-0.090-0.144 0.117-1.17 0.306-1.539 0.108-0.216 0.252-0.72 0.315-1.116 0.261-1.566 0.585-2.834 0.945-3.698 0.765-1.809 0.837-2.078 0.72-2.582-0.063-0.243-0.090-0.558-0.054-0.711 0.027-0.144 0.009-0.369-0.036-0.495-0.063-0.171-0.063-0.279 0.009-0.36 0.081-0.108 0.027-0.225-0.279-0.585-0.207-0.243-0.369-0.459-0.351-0.468 0.018-0.018 0.18-0.090 0.351-0.162l0.315-0.144 0.090-1.233c0.054-0.675 0.081-1.224 0.081-1.224-0.009 0-0.405 0.117-0.891 0.27-0.486 0.144-0.927 0.27-0.99 0.27-0.126 0-0.243-0.234-0.63-1.314-0.252-0.684-0.297-0.9-0.252-1.35 0.054-0.621-0.162-2.051-0.432-2.852-0.36-1.080-1.494-3.041-1.863-3.203-0.315-0.153-0.54-0.117-0.657 0.090-0.117 0.225-0.108 0.252 0.315 1.233l0.324 0.756-0.558-0.441c-1.251-0.972-2.456-1.629-3.14-1.71-0.432-0.054-0.45-0.045-0.549 0.225-0.063 0.153-0.18 0.297-0.27 0.315-0.117 0.036-0.162 0.135-0.162 0.387 0 0.315 0.072 0.405 0.927 1.224 0.504 0.477 0.882 0.873 0.846 0.882-0.036 0-0.387-0.207-0.765-0.468-0.567-0.378-0.765-0.468-1.089-0.477-0.756 0-0.738 0.522 0.036 1.071 0.27 0.198 0.81 0.675 1.188 1.071l0.702 0.72-0.63 0.108c-0.99 0.18-1.386 0.306-1.485 0.504-0.189 0.351-0.072 0.45 0.972 0.792 0.558 0.189 1.098 0.423 1.215 0.522 0.36 0.333 1.179 0.81 1.665 0.972 0.315 0.099 0.513 0.225 0.576 0.36 0.054 0.117 0.189 0.252 0.306 0.306 0.144 0.063 0.252 0.234 0.36 0.594 0.081 0.279 0.126 0.531 0.099 0.558-0.027 0.018-0.396 0.153-0.819 0.279l-0.774 0.243 0.657 1.17c0.603 1.089 0.666 1.17 0.9 1.143 0.297-0.027 0.297-0.027 0.045 0.396l-0.198 0.333 0.207 0.378c0.135 0.261 0.18 0.459 0.144 0.585-0.054 0.171-0.090 0.144-0.27-0.243-0.234-0.504-0.873-1.341-1.26-1.665-0.666-0.54-0.945-0.648-1.809-0.657l-0.81-0.018-0.423-0.405c-0.225-0.225-0.648-0.522-0.936-0.666-0.495-0.243-0.585-0.261-1.647-0.261h-1.125l-0.855 0.45c-1.098 0.567-2.231 1.683-2.942 2.879-0.261 0.441-0.477 0.756-0.477 0.711-0.009-0.045-0.045-0.252-0.081-0.459-0.072-0.369-0.072-0.378 0.198-0.405 0.261-0.027 0.279-0.054 0.468-0.837 0.108-0.45 0.225-0.9 0.261-0.999 0.054-0.18 0-0.207-0.756-0.396-0.612-0.153-0.81-0.234-0.81-0.351 0-0.279 0.261-1.107 0.387-1.26 0.072-0.081 0.153-0.225 0.171-0.324s0.207-0.279 0.441-0.405c0.63-0.342 0.666-0.387 1.323-1.656 0.477-0.927 0.738-1.323 1.251-1.872 0.36-0.387 0.657-0.738 0.657-0.774 0-0.153-0.369-0.558-0.504-0.558-0.27 0-0.072-0.162 1.152-0.945 1.611-1.017 1.656-1.062 1.503-1.179-0.099-0.081-0.648 0.225-2.33 1.278-1.215 0.765-2.231 1.386-2.258 1.386s-0.135-0.27-0.243-0.594l-0.189-0.585 0.621-0.585c0.657-0.621 0.801-0.864 0.63-1.071-0.081-0.099-0.243-0.054-0.927 0.279-0.459 0.225-1.161 0.504-1.575 0.639-0.693 0.216-0.756 0.216-0.909 0.081-0.378-0.342-0.621-0.135-1.557 1.314-0.189 0.288-0.369 0.522-0.405 0.522-0.045 0-0.27-0.351-0.513-0.792-0.243-0.432-0.522-0.873-0.621-0.99-0.243-0.261-0.477-0.252-0.549 0.018-0.090 0.36 0.315 2.006 0.963 3.995 0.207 0.621 0.216 0.657 0.063 0.738-0.144 0.072-0.153 0.126-0.063 0.36 0.072 0.198 0.144 0.252 0.261 0.216 0.135-0.036 0.216 0.063 0.423 0.531 0.261 0.576 0.261 0.585 0.117 1.107-0.081 0.297-0.144 0.54-0.153 0.549 0 0.009-0.225-0.036-0.495-0.108-0.819-0.216-0.765-0.279-0.882 1.053-0.063 0.657-0.108 1.26-0.108 1.341 0 0.108 0.117 0.171 0.414 0.216l0.414 0.054-0.063 0.54c-0.054 0.432-0.036 0.576 0.081 0.702 0.153 0.162 0.198 1.143 0.225 4.661l0.009 1.269 0.342 0.108c0.423 0.144 0.648 0.333 0.648 0.576 0 0.117 0.144 0.288 0.387 0.459 0.207 0.144 0.999 0.72 1.746 1.278 1.305 0.963 1.368 1.026 1.278 1.224-0.081 0.189-0.063 0.252 0.162 0.477 0.216 0.225 0.234 0.261 0.090 0.288-0.081 0.018-0.369-0.018-0.63-0.072-0.603-0.135-2.672-0.234-2.663-0.126 0 0.045 0.432 0.297 0.963 0.558s0.882 0.405 0.783 0.315c-0.108-0.090-0.351-0.297-0.54-0.459l-0.36-0.306 0.531 0.063c0.972 0.117 4.076 0.972 4.283 1.188 0.126 0.126 0.072 0.135-0.495 0.081-1.665-0.153-2.384-0.162-3.527-0.054-0.684 0.063-1.296 0.144-1.359 0.18-0.162 0.081 1.251 0.18 2.681 0.18 1.125 0 2.474 0.207 4.985 0.765l0.657 0.144-0.153 0.333c-0.243 0.495-0.648 1.899-0.585 1.997zM17.302 2.372c1.26 0.684 2.087 1.35 2.087 1.673-0.009 0.18 0.036 0.243 0.162 0.243 0.090 0 0.243 0.045 0.342 0.090 0.135 0.072 0.171 0.063 0.171-0.027 0-0.18-0.216-0.792-0.558-1.566-0.288-0.666-0.288-0.927 0-0.927 0.225 0 0.351 0.162 0.882 1.080 0.549 0.954 0.9 1.719 1.125 2.501 0.225 0.765 0.324 2.141 0.189 2.537-0.081 0.225-0.072 0.351 0.036 0.612 0.315 0.729 0.756 1.863 0.756 1.952s-1.809 0.675-2.060 0.675c-0.045 0-0.117-0.090-0.153-0.207-0.207-0.675-0.423-1.143-0.531-1.143-0.072 0-0.189-0.117-0.27-0.27-0.162-0.324-0.306-0.396-0.945-0.531-0.333-0.072-0.756-0.279-1.305-0.639-0.63-0.414-0.936-0.549-1.395-0.639-0.324-0.054-0.657-0.144-0.738-0.189-0.207-0.099-0.207-0.315 0.009-0.423 0.189-0.108 1.988-0.27 2.294-0.216 0.135 0.027 0.351-0.054 0.594-0.207 0.414-0.279 0.36-0.405-0.081-0.18-0.423 0.225-0.603 0.18-0.954-0.252-0.18-0.225-0.747-0.774-1.269-1.224-0.909-0.801-1.071-1.035-0.81-1.134 0.153-0.063 0.459 0.090 1.431 0.72 0.405 0.261 0.981 0.612 1.278 0.774 0.495 0.279 0.522 0.288 0.36 0.081-0.468-0.567-1.746-1.97-2.132-2.339-0.432-0.414-0.558-0.756-0.306-0.855 0.198-0.072 0.63 0.189 2.033 1.242 0.837 0.621 1.134 0.819 0.837 0.531-0.468-0.441-1.647-1.341-2.204-1.674-0.162-0.099-0.306-0.27-0.324-0.387-0.054-0.342 0.405-0.243 1.449 0.315zM9.088 3.793c0 0.162-0.18 0.369-0.72 0.819-0.396 0.333-0.72 0.612-0.72 0.621s0.090 0.009 0.189 0.009c0.153-0.009 0.234 0.081 0.36 0.441 0.225 0.648 0.216 0.837-0.063 0.909-0.189 0.045-0.297-0.009-0.585-0.288-0.396-0.387-0.441-0.666-0.144-0.882 0.171-0.117 0.144-0.117-0.144 0.009l-0.351 0.162-0.261-0.315c-0.144-0.171-0.252-0.369-0.234-0.441 0.009-0.063 0.36-0.27 0.783-0.45s0.945-0.432 1.17-0.567c0.531-0.306 0.72-0.315 0.72-0.027zM6.127 4.846c0.108 0.162 0.522 0.63 0.909 1.026 0.702 0.738 0.819 0.963 0.558 1.062-0.378 0.144-0.81-0.027-1.395-0.549-0.198-0.18-0.378-0.306-0.396-0.279-0.027 0.018-0.063 0.18-0.099 0.351-0.036 0.243-0.027 0.279 0.054 0.144 0.054-0.081 0.135-0.153 0.189-0.153 0.171 0 0.981 0.594 0.981 0.72 0 0.117-2.681 1.71-3.014 1.781-0.162 0.036-1.062-2.744-1.26-3.878-0.045-0.288-0.027-0.333 0.117-0.333 0.207 0 0.486 0.405 1.044 1.512 0.234 0.459 0.432 0.828 0.441 0.828 0.018 0 0.018-0.108 0-0.252-0.027-0.18 0.117-0.486 0.603-1.26 0.729-1.143 0.909-1.242 1.269-0.72zM10.599 6.124c0.027 0.207-0.054 0.342-0.369 0.675-0.432 0.45-1.179 1.521-1.503 2.168-0.252 0.504-0.756 1.044-1.188 1.269-0.27 0.135-0.333 0.234-0.387 0.522-0.036 0.198-0.117 0.405-0.18 0.459s-0.189 0.36-0.279 0.684-0.216 0.612-0.279 0.639c-0.063 0.027-0.567-0.063-1.116-0.198l-0.999-0.252 0.045-0.342c0.027-0.189 0.108-0.468 0.189-0.63 0.135-0.27 0.135-0.306-0.189-0.963-0.216-0.45-0.297-0.72-0.243-0.792 0.135-0.198 3.266-2.105 3.446-2.105 0.099 0 0.297-0.099 0.45-0.225 0.414-0.351 2.096-1.197 2.348-1.188 0.18 0.018 0.234 0.072 0.252 0.279zM24.419 11.324c-0.036 0.459-0.081 0.864-0.117 0.9-0.072 0.081-4.184 1.512-4.355 1.512-0.135 0-0.99-1.485-0.936-1.647 0.036-0.108 4.904-1.575 5.264-1.584 0.207-0.009 0.207 0 0.144 0.819zM5.65 12.629c1.269 0.324 2.348 0.63 2.393 0.666 0.072 0.063-0.162 1.107-0.297 1.332-0.045 0.072-0.711 0.009-2.447-0.225-1.305-0.18-2.402-0.351-2.429-0.378-0.036-0.036-0.018-0.495 0.036-1.035 0.081-0.846 0.117-0.963 0.261-0.963 0.099 0 1.215 0.27 2.483 0.603zM14.342 12.413c0.81 0.387 1.269 0.846 1.449 1.44 0.171 0.576 0.18 1.458 0.009 1.611-0.081 0.072-0.108 0.234-0.081 0.441 0.099 0.711-0.396 1.521-1.305 2.141-1.125 0.756-1.413 0.837-3.842 1.089-1.881 0.189-2.159 0.279-2.492 0.72-0.108 0.153-0.252 0.27-0.315 0.27-0.162 0-0.144-0.414 0.027-0.711 0.27-0.468 0.693-0.648 2.267-1.008 1.719-0.396 2.348-0.603 3.14-1.035 0.549-0.306 0.837-0.585 0.837-0.828 0-0.072-0.153-0.009-0.423 0.171-0.747 0.522-1.692 0.792-3.599 1.026-1.107 0.144-1.961 0.396-2.474 0.729-0.36 0.234-0.612 0.279-0.612 0.117 0-0.054 0.225-0.459 0.504-0.9 0.873-1.377 2.357-2.564 3.743-3.005 0.945-0.297 2.681-0.324 3.293-0.045 0.207 0.099 0.36 0.135 0.333 0.090-0.099-0.162-1.089-0.468-1.665-0.513-1.449-0.117-3.392 0.594-4.364 1.593-0.297 0.306-0.774 0.63-0.918 0.63-0.117 0 0.162-0.522 0.756-1.422 1.053-1.575 2.105-2.438 3.356-2.753 1.197-0.297 1.476-0.279 2.375 0.153zM23.924 13.034c0.315 0.324 0.369 0.432 0.324 0.648-0.027 0.144 0 0.315 0.054 0.378 0.063 0.072 0.081 0.252 0.036 0.45-0.063 0.351-0.009 0.342-0.819 0.171-0.171-0.036-0.081 0.045 0.279 0.243 0.513 0.279 0.54 0.315 0.567 0.675 0.027 0.369-0.216 1.053-0.828 2.366-0.126 0.27-0.234 0.603-0.234 0.738 0 0.126-0.045 0.252-0.090 0.27-0.135 0.045-0.333 0.855-0.495 1.97-0.090 0.648-0.216 1.152-0.405 1.566s-0.288 0.828-0.333 1.269c-0.045 0.567-0.081 0.675-0.288 0.828-0.369 0.27-3.212 1.476-3.392 1.44-0.108-0.018-0.252-0.225-0.387-0.567-0.306-0.765-0.333-1.197-0.117-1.629 0.099-0.189 0.234-0.531 0.297-0.747 0.063-0.207 0.171-0.405 0.234-0.432s0.198-0.18 0.306-0.351c0.099-0.171 0.234-0.306 0.297-0.306s0.153 0.279 0.216 0.72c0.063 0.387 0.171 0.846 0.243 1.008 0.126 0.297 0.126 0.288 0.135-0.378 0.018-0.927 0.108-1.386 0.279-1.422 0.117-0.018 0.153 0.072 0.189 0.45 0.027 0.261 0.108 0.621 0.18 0.792 0.126 0.297 0.135 0.279 0.090-0.594-0.018-0.504 0.009-1.179 0.072-1.548 0.126-0.783 0.234-0.819 0.846-0.279 0.225 0.198 0.414 0.333 0.414 0.297 0-0.189-0.612-0.981-0.954-1.224-0.576-0.414-0.522-0.522 0.261-0.522 0.351 0 0.792 0.036 0.963 0.090l0.315 0.081-0.36-0.315c-0.198-0.171-0.54-0.378-0.765-0.459l-0.405-0.144-0.207-0.864c-0.243-1.008-0.243-1.107-0.054-1.647 0.126-0.387 0.126-0.423-0.045-0.711-0.234-0.378-0.234-0.594-0.018-0.918 0.090-0.144 0.144-0.333 0.126-0.432-0.036-0.117 0.018-0.198 0.162-0.261 0.432-0.198 2.735-1.071 2.834-1.071 0.063-0.009 0.27 0.162 0.477 0.369zM17.437 13.61c0.405 0.117 0.612 0.252 0.981 0.621 0.252 0.261 0.54 0.63 0.648 0.837l0.18 0.36-0.198-0.045c-0.108-0.027-0.396-0.153-0.648-0.279-0.369-0.189-0.612-0.243-1.35-0.288l-0.9-0.045-0.027-0.576c-0.018-0.405 0.009-0.603 0.090-0.648 0.189-0.117 0.675-0.090 1.224 0.063zM5.489 14.644c0.765 0.108 1.44 0.243 1.494 0.297s0.189 0.585 0.297 1.17c0.162 0.945 0.171 1.098 0.054 1.224-0.279 0.306-1.215 2.591-1.215 2.96 0 0.072 0.171-0.144 0.387-0.486 0.207-0.351 0.459-0.639 0.549-0.657 0.153-0.036 0.162 0.009 0.117 0.369-0.099 0.675 0.135 1.701 0.468 2.123 0.162 0.207 0.306 0.369 0.315 0.369s0.009-0.126-0.018-0.27c-0.045-0.306 0.144-0.369 0.351-0.126 0.063 0.081 0.333 0.27 0.594 0.414 0.558 0.315 0.612 0.486 0.549 1.602l-0.045 0.702 0.27-0.324c0.144-0.18 0.315-0.405 0.378-0.504 0.090-0.126 0.18-0.153 0.36-0.108 0.261 0.063 1.125 0.828 1.125 0.99 0 0.054-0.081 0.252-0.171 0.423-0.144 0.261-0.171 0.441-0.126 0.819 0.045 0.441 0.027 0.513-0.189 0.729-0.126 0.126-0.234 0.279-0.234 0.333 0 0.045-0.072 0.090-0.153 0.090-0.279 0-2.006-0.495-2.006-0.567 0-0.045-0.063-0.216-0.144-0.387s-0.126-0.432-0.108-0.585c0.045-0.27 0-0.315-1.134-1.161-0.648-0.477-1.413-1.026-1.701-1.215-0.567-0.378-0.909-0.846-0.855-1.161 0.036-0.162 0.009-0.198-0.144-0.171-0.108 0.027-0.306-0.009-0.45-0.063l-0.261-0.099 0.063-0.648c0.135-1.512 0.144-2.079 0.054-3.509-0.063-1.008-0.144-1.584-0.225-1.71-0.171-0.27-0.018-1.053 0.207-1.053 0.081 0 0.783 0.090 1.548 0.189zM17.797 15.040c0.567 0.171 1.575 0.783 1.764 1.080 0.279 0.414 0.153 0.603-0.243 0.387-0.126-0.063-0.045 0.063 0.189 0.324 0.396 0.432 0.693 0.99 0.756 1.404 0.018 0.189-0.009 0.234-0.234 0.252-0.153 0.018-0.612-0.081-1.026-0.216-0.657-0.207-1.188-0.513-1.971-1.143-0.063-0.045-0.117-0.063-0.117-0.036 0 0.036 0.306 0.315 0.675 0.639 0.585 0.495 0.765 0.594 1.287 0.72 0.468 0.108 1.826 0.324 2.051 0.324 0.018 0 0.036 0.054 0.036 0.117 0 0.162-2.402 0.288-2.897 0.153-0.9-0.252-1.826-0.819-2.159-1.332-0.108-0.162-0.162-0.414-0.162-0.738 0-0.549 0.099-0.774 0.297-0.693 0.108 0.036 0.117-0.027 0.081-0.342-0.018-0.216-0.009-0.54 0.018-0.711l0.063-0.324h0.567c0.306 0 0.774 0.063 1.026 0.135zM16.034 18.144c0.468 0.666 2.366 1.889 2.951 1.889 0.135 0 0.315 0.081 0.405 0.189 0.144 0.153 0.153 0.225 0.063 0.468-0.099 0.27-0.090 0.279 0.036 0.108 0.072-0.099 0.162-0.288 0.189-0.432 0.036-0.18 0.099-0.243 0.261-0.243 0.261 0 0.279 0.207 0.081 0.702-0.207 0.477-0.486 0.738-0.783 0.738-0.198 0-0.297 0.063-0.414 0.279-0.279 0.513-0.684 0.918-1.143 1.134-0.441 0.198-0.441 0.207-0.108 0.153 0.387-0.063 0.396-0.036 0.162 0.603-0.558 1.458-1.682 2.186-3.518 2.294-0.729 0.045-0.783 0.036-1.224-0.225-0.342-0.198-0.54-0.396-0.738-0.747-0.279-0.495-1.341-1.566-1.979-1.979-0.207-0.135-0.45-0.405-0.558-0.603-0.144-0.288-0.243-0.369-0.495-0.423-0.36-0.063-0.639-0.378-0.936-1.026-0.297-0.657-0.261-0.855 0.243-1.17 0.612-0.387 1.152-0.522 2.483-0.63 1.26-0.099 2.015-0.252 2.546-0.522 0.189-0.099 0.459-0.198 0.603-0.234 0.243-0.063 0.252-0.054 0.144 0.099-0.063 0.090-0.225 0.252-0.351 0.36l-0.225 0.198 0.342-0.081c0.45-0.099 1.017-0.504 1.296-0.918 0.117-0.189 0.27-0.342 0.324-0.342 0.054 0.009 0.207 0.171 0.342 0.36zM12.093 25.126c0.144 0.234 0.468 0.549 0.747 0.738 0.54 0.36 0.522 0.414-0.216 0.513-0.819 0.108-0.558 0.243 0.333 0.171 0.576-0.045 0.81-0.027 0.81 0.045 0 0.054-0.045 0.099-0.099 0.099-0.198 0-1.584 0.72-1.8 0.936-0.342 0.333-0.621 0.234-0.621-0.225 0-0.189-0.045-0.441-0.099-0.567-0.090-0.189-0.072-0.27 0.108-0.522 0.144-0.198 0.216-0.432 0.225-0.702 0.009-0.414 0.162-0.9 0.279-0.9 0.045 0 0.189 0.189 0.333 0.414zM17.725 25.549c0.162 0.414 0.18 0.54 0.090 0.648-0.072 0.090-0.090 0.27-0.054 0.522 0.054 0.351 0.036 0.405-0.171 0.513-0.198 0.108-0.27 0.099-0.612-0.063-0.207-0.099-0.648-0.279-0.981-0.387-0.621-0.198-0.792-0.36-0.396-0.36 0.117 0 0.549 0.099 0.963 0.216 0.414 0.126 0.774 0.207 0.792 0.189 0.18-0.18-0.666-0.585-1.224-0.585-0.306 0-0.252-0.153 0.108-0.27 0.18-0.063 0.495-0.306 0.738-0.585 0.234-0.261 0.459-0.45 0.486-0.414 0.027 0.027 0.144 0.288 0.261 0.576zM15.602 27.007c0.279 0.126 0.504 0.243 0.504 0.261s-0.288 0.27-0.63 0.549l-0.639 0.522-0.783-0.369c-0.432-0.207-0.9-0.396-1.044-0.432-0.216-0.054-0.234-0.072-0.108-0.144 0.342-0.189 1.215-0.468 1.674-0.522 0.27-0.036 0.504-0.072 0.504-0.081 0.009 0 0.243 0.090 0.522 0.216zM13.622 19.827l-0.27 0.333-0.945-0.108c-1.35-0.153-1.638-0.144-1.845 0.081l-0.171 0.198 0.315-0.054c0.531-0.081 2.357 0.189 2.555 0.378 0.234 0.234 0.315 1.296 0.117 1.521-0.135 0.144-0.117 0.18 0.261 0.486 0.225 0.18 0.459 0.315 0.531 0.288 0.144-0.054 0.882-1.026 0.783-1.026-0.036 0-0.234 0.162-0.423 0.36s-0.396 0.36-0.459 0.36c-0.234 0-0.351-0.306-0.351-0.891 0-0.396-0.054-0.702-0.162-0.927-0.171-0.333-0.171-0.333 0.054-0.63 0.198-0.261 0.396-0.702 0.315-0.702-0.018 0-0.153 0.153-0.306 0.333zM14.162 19.881c0.045 0.369 0.252 0.603 0.666 0.774 0.135 0.054 0.297 0.216 0.36 0.36 0.081 0.189 0.207 0.279 0.54 0.36 0.828 0.216 0.981 0.225 1.152 0.018 0.090-0.108 0.216-0.189 0.27-0.189 0.063 0 0.135-0.063 0.162-0.144 0.054-0.126 0.027-0.126-0.189 0.018-0.369 0.243-1.521 0.243-1.7 0-0.207-0.279-0.153-0.342 0.243-0.288 0.342 0.045 1.287-0.144 1.449-0.297 0.036-0.027-0.27-0.036-0.675-0.027-0.405 0.018-1.017-0.009-1.35-0.072-0.603-0.108-0.621-0.117-0.792-0.486l-0.171-0.369 0.036 0.342zM10.414 20.923c0.401-0.312 0.925-0.144 1.375-0.078 0.352-0.064 0.704-0.13 1.067-0.091 0.050 0.031 0.152 0.090 0.202 0.12-0.24 0.025-0.48 0.062-0.72 0.088-0.262 0.119-0.508 0.301-0.814 0.254-0.113-0.070-0.222-0.144-0.323-0.229-0.257-0.070-0.525-0.041-0.787-0.064zM14.635 23.095c0.302 0.009 0.614 0.002 0.871-0.179 0.026 0.097 0.071 0.185 0.133 0.264-0.084 0.018-0.167 0.037-0.25 0.056-0.47-0.182-0.885 0.237-1.345 0.262-0.154-0.015-0.271-0.115-0.378-0.217-0.183-0.008-0.375-0.030-0.541 0.067-0.249 0.133-0.533 0.114-0.805 0.103 0.090-0.089 0.18-0.179 0.271-0.268 0.154-0.002 0.308-0.005 0.463-0.009 0.056-0.059 0.113-0.119 0.169-0.177 0.276-0.036 0.554 0.055 0.731 0.275 0.251 0.047 0.454-0.109 0.681-0.177zM13.878 23.819c0.205-0.005 0.405-0.049 0.604-0.095 0.274 0.030 0.536 0.16 0.741 0.344-0.177-0.037-0.354-0.070-0.534-0.088-0.468-0.208-0.906 0.161-1.326 0.327-0.129 0.238-0.239 0.491-0.242 0.768-0.057-0.062-0.113-0.122-0.17-0.183-0.015-0.31 0.037-0.676 0.322-0.857 0.193-0.093 0.403-0.148 0.606-0.217z"></path>
</svg>
