<?xml version="1.0" encoding="utf-8"?>
<!-- Generated by IcoMoon.io -->
<!DOCTYPE svg PUBLIC "-//W3C//DTD SVG 1.1//EN" "http://www.w3.org/Graphics/SVG/1.1/DTD/svg11.dtd">
<svg version="1.1" xmlns="http://www.w3.org/2000/svg" xmlns:xlink="http://www.w3.org/1999/xlink" width="32" height="32" viewBox="0 0 32 32">
<path d="M16.033 20.658v0zM4.748 3.116l2.051 23.003 9.203 2.555 9.229-2.558 2.053-23h-22.536zM23.022 8.377l-0.693 7.775h-0l-0.48 5.364-0.042 0.477-5.787 1.604-5.779-1.604-0.395-4.43h2.832l0.201 2.25 3.145 0.847 0.008-0.002 0.002-0 3.137-0.847 0.329-3.659-6.585 0-0.057-0.634-0.129-1.43-0.067-0.757 7.088-0 0.258-2.889h-10.796l-0.056-0.634-0.129-1.43-0.067-0.757h14.132l-0.068 0.757z"></path>
</svg>
