<?xml version="1.0" encoding="utf-8"?>
<!-- Generated by IcoMoon.io -->
<!DOCTYPE svg PUBLIC "-//W3C//DTD SVG 1.1//EN" "http://www.w3.org/Graphics/SVG/1.1/DTD/svg11.dtd">
<svg version="1.1" xmlns="http://www.w3.org/2000/svg" xmlns:xlink="http://www.w3.org/1999/xlink" width="32" height="32" viewBox="0 0 32 32">
<path d="M16 27.531q-2 0-3.75-0.25t-3.063-0.688-2.078-1.016-0.766-1.266v-3.219q0-0.188 0.109-0.391t0.234-0.391q0.406 0.5 1.281 0.953t2.094 0.766 2.734 0.5 3.203 0.188 3.203-0.188 2.734-0.5 2.094-0.766 1.281-0.953q0.125 0.188 0.234 0.391t0.109 0.391v3.219q0 0.688-0.766 1.266t-2.078 1.016-3.063 0.688-3.75 0.25v0zM16 21.094q-2 0-3.75-0.25t-3.063-0.688-2.078-1.016-0.766-1.234v-3.219q0-0.125 0.047-0.25t0.109-0.25v0q0.031-0.094 0.094-0.172t0.094-0.141q0.406 0.531 1.281 0.969t2.094 0.75 2.734 0.5 3.203 0.188 3.203-0.188 2.734-0.5 2.094-0.75 1.281-0.969q0.031 0.063 0.094 0.141t0.094 0.172v0q0.063 0.125 0.109 0.25t0.047 0.25v3.219q0 0.656-0.766 1.234t-2.078 1.016-3.063 0.688-3.75 0.25v0zM16 14.688q-2 0-3.75-0.25t-3.063-0.688-2.078-1.031-0.766-1.25v-3.219q0-0.656 0.766-1.25t2.078-1.031 3.063-0.688 3.75-0.25 3.75 0.25 3.063 0.688 2.078 1.031 0.766 1.25v3.219q0 0.656-0.766 1.25t-2.078 1.031-3.063 0.688-3.75 0.25v0zM16 6.656q-2.656 0-4.547 0.469t-1.891 1.125 1.891 1.125 4.547 0.469 4.547-0.469 1.891-1.125-1.891-1.125-4.547-0.469v0z"></path>
</svg>
