<?xml version="1.0" encoding="utf-8"?>
<!-- Generated by IcoMoon.io -->
<!DOCTYPE svg PUBLIC "-//W3C//DTD SVG 1.1//EN" "http://www.w3.org/Graphics/SVG/1.1/DTD/svg11.dtd">
<svg version="1.1" xmlns="http://www.w3.org/2000/svg" xmlns:xlink="http://www.w3.org/1999/xlink" width="32" height="32" viewBox="0 0 32 32">
<path d="M4.678 4.557c0 7.559 0 15.117 0 22.676 7.559 0 15.117 0 22.676 0 0-7.559 0-15.117 0-22.676-7.559 0-15.117 0-22.676 0zM25.579 25.419c-6.358 0-12.699 0-19.060 0 0-6.337 0-12.661 0-18.999 6.358 0 12.698 0 19.060 0 0 6.328 0 12.652 0 18.999zM8.075 15.691c-0-1.485 0-2.971-0.001-4.456-0-0.135-0.005-0.241 0.181-0.265 1.267-0.165 2.538-0.281 3.802-0.013 1.71 0.362 2.75 1.426 3.12 3.127 0.238 1.094 0.192 2.19-0.117 3.265-0.48 1.67-1.588 2.68-3.285 3.032-1.18 0.245-2.369 0.173-3.557 0.061-0.145-0.014-0.142-0.102-0.142-0.204 0.001-0.452-0-0.905-0-1.357-0-1.063 0-2.126-0-3.189zM9.606 15.692c-0.001 0-0.001 0-0.002 0 0 0.535-0 1.071 0 1.606s0.007 1.071-0.003 1.606c-0.003 0.174 0.051 0.247 0.226 0.246 0.309-0.002 0.619 0.030 0.926 0.008 1.493-0.106 2.397-0.836 2.77-2.261 0.23-0.881 0.247-1.777 0.019-2.663-0.212-0.824-0.677-1.461-1.477-1.805-0.745-0.321-1.524-0.318-2.311-0.199-0.169 0.026-0.148 0.136-0.148 0.249 0.001 1.071 0 2.141 0 3.212zM19.865 15.503c-0.054 0.284-0.093 0.571-0.163 0.85-0.329 1.314-0.668 2.627-1 3.94-0.031 0.122-0.104 0.145-0.215 0.144-0.339-0.004-0.679-0.009-1.018 0.003-0.159 0.006-0.222-0.052-0.259-0.204-0.199-0.804-0.409-1.605-0.614-2.408-0.337-1.321-0.672-2.642-1.007-3.964-0.022-0.086-0.035-0.173-0.061-0.303 0.348 0 0.669 0 0.99 0 0.513-0 0.521-0.002 0.616 0.501 0.288 1.524 0.568 3.050 0.852 4.574 0.014 0.073 0.034 0.144 0.086 0.219 0.078-0.364 0.149-0.729 0.236-1.091 0.322-1.34 0.651-2.678 0.97-4.019 0.036-0.151 0.11-0.189 0.251-0.185 0.271 0.008 0.543 0.011 0.814-0.001 0.163-0.008 0.223 0.058 0.256 0.209 0.374 1.66 0.754 3.319 1.133 4.978 0.008 0.035 0.017 0.070 0.070 0.109 0.023-0.119 0.046-0.237 0.069-0.356 0.312-1.581 0.626-3.161 0.935-4.743 0.028-0.143 0.087-0.2 0.239-0.196 0.406 0.010 0.812 0.003 1.257 0.003-0.095 0.367-0.18 0.706-0.271 1.043-0.506 1.868-1.015 3.735-1.515 5.604-0.044 0.165-0.105 0.237-0.285 0.228-0.308-0.015-0.618-0.013-0.927-0.001-0.172 0.006-0.251-0.045-0.292-0.222-0.347-1.512-0.703-3.021-1.057-4.531-0.014-0.061-0.030-0.122-0.045-0.183-0.015 0-0.030 0.001-0.045 0.001z"></path>
</svg>
