<?xml version="1.0" encoding="utf-8"?>
<!-- Generated by IcoMoon.io -->
<!DOCTYPE svg PUBLIC "-//W3C//DTD SVG 1.1//EN" "http://www.w3.org/Graphics/SVG/1.1/DTD/svg11.dtd">
<svg version="1.1" xmlns="http://www.w3.org/2000/svg" xmlns:xlink="http://www.w3.org/1999/xlink" width="32" height="32" viewBox="0 0 32 32">
<path d="M21.648 7.77c-1.321-0.822-2.567-1.146-3.813-1.969-0.773-0.523-1.844-1.77-2.741-2.841-0.174 1.72-0.698 2.418-1.296 2.916-1.271 0.997-2.069 1.296-3.165 1.894-0.922 0.474-5.932 3.464-5.932 9.895s5.408 11.166 11.415 11.166c6.007 0 11.215-4.362 11.215-10.966s-4.885-9.595-5.683-10.094zM21.792 26.485c-0.125 0.125-1.271 0.922-2.617 1.047s-3.165 0.199-4.262-0.798c-0.174-0.174-0.125-0.424 0-0.523s0.224-0.174 0.374-0.174c0.15 0 0.125 0 0.199 0.050 0.498 0.399 1.246 0.723 2.841 0.723s2.717-0.449 3.215-0.822c0.224-0.174 0.324-0.025 0.349 0.075s0.075 0.249-0.1 0.424zM17.431 24.217c0.274-0.249 0.723-0.648 1.146-0.822s0.648-0.15 1.047-0.15 0.822 0.025 1.122 0.224c0.299 0.199 0.474 0.648 0.573 0.897s0 0.399-0.199 0.498c-0.174 0.1-0.199 0.050-0.374-0.274s-0.324-0.648-1.196-0.648-1.146 0.299-1.57 0.648c-0.424 0.349-0.573 0.473-0.723 0.274s-0.1-0.399 0.175-0.648zM24.035 24.416c-0.897-0.075-2.692-2.866-3.838-2.916-1.445-0.050-4.586 3.016-7.053 3.016-1.495 0-1.944-0.224-2.443-0.548-0.748-0.523-1.122-1.321-1.097-2.417 0.025-1.944 1.844-3.764 4.137-3.788 2.916-0.025 4.935 2.891 6.405 2.866 1.246-0.025 3.639-2.467 4.81-2.467 1.246 0 1.595 1.296 1.595 2.068s-0.249 2.168-0.847 3.041c-0.598 0.873-0.972 1.196-1.67 1.146z"></path>
</svg>
