<?xml version="1.0" encoding="utf-8"?>
<!-- Generated by IcoMoon.io -->
<!DOCTYPE svg PUBLIC "-//W3C//DTD SVG 1.1//EN" "http://www.w3.org/Graphics/SVG/1.1/DTD/svg11.dtd">
<svg version="1.1" xmlns="http://www.w3.org/2000/svg" xmlns:xlink="http://www.w3.org/1999/xlink" width="32" height="32" viewBox="0 0 32 32">
<path d="M22.041 18.878c0 0-0.146-0.517 0.397-1.51s0.967-0.45 0.967-0.45 0.464 0.503-0.066 1.258c-0.53 0.756-1.298 0.702-1.298 0.702zM17.868 19.593c-0.623 1.63-2.133 0.967-2.133 0.967s-0.172-0.583 0.318-2.212c0.49-1.63 1.643-0.994 1.643-0.994s0.795 0.609 0.172 2.239zM16.742 12.77c0 0 0.941-2.451 1.166-1.259s-1.974 4.743-1.974 4.743c0.026-0.795 0.808-3.484 0.808-3.484zM3.294 18.878c0.040-1.577 1.073-2.266 1.431-1.921s0.225 1.087-0.451 1.55c-0.676 0.464-0.98 0.371-0.98 0.371zM31.791 18.616c-0.053-0.53-0.53-0.333-0.53-0.333s-0.768 0.596-1.444 0.53c-0.676-0.066-0.464-1.577-0.464-1.577s0.146-1.385-0.252-1.501c-0.398-0.116-0.888 0.361-0.888 0.361s-0.609 0.676-0.901 1.537l-0.079 0.026c0 0 0.093-1.51-0.013-1.855-0.080-0.172-0.808-0.159-0.927 0.146s-0.702 2.425-0.742 3.312c0 0-1.139 0.967-2.133 1.126s-1.232-0.464-1.232-0.464 2.703-0.755 2.61-2.915c-0.093-2.159-2.18-1.361-2.415-1.183-0.228 0.172-1.448 0.907-1.804 2.944-0.012 0.069-0.033 0.372-0.033 0.372s-1.047 0.702-1.63 0.888c0 0 1.63-2.742-0.358-3.988-0.901-0.543-1.616 0.596-1.616 0.596s2.689-2.994 2.093-5.525c-0.284-1.205-0.886-1.334-1.439-1.139-0.839 0.331-1.157 0.821-1.157 0.821s-1.087 1.577-1.338 3.922c-0.252 2.345-0.623 5.18-0.623 5.18s-0.517 0.503-0.994 0.53c-0.477 0.027-0.265-1.417-0.265-1.417s0.371-2.199 0.345-2.57c-0.027-0.371-0.053-0.57-0.49-0.702s-0.914 0.424-0.914 0.424-1.259 1.908-1.365 2.199l-0.066 0.119-0.066-0.080c0 0 0.888-2.597 0.040-2.636s-1.404 0.927-1.404 0.927-0.967 1.616-1.007 1.802l-0.066-0.079c0 0 0.398-1.881 0.318-2.345s-0.517-0.371-0.517-0.371-0.556-0.066-0.702 0.291c-0.146 0.358-0.676 2.729-0.742 3.484 0 0-1.391 0.994-2.305 1.007s-0.821-0.58-0.821-0.58 3.352-1.147 2.438-3.413c-0.411-0.583-0.888-0.766-1.563-0.753s-1.514 0.425-2.057 1.644c-0.26 0.581-0.354 1.133-0.407 1.55 0 0-0.587 0.12-0.905-0.145s-0.482 0-0.482 0-0.546 0.696-0.003 0.908c0.543 0.212 1.391 0.311 1.391 0.311h-0.001c0.078 0.371 0.305 1.001 0.966 1.504 0.994 0.755 2.901-0.069 2.901-0.069l0.782-0.439c0 0 0.027 0.717 0.596 0.822s0.808-0.002 1.802-2.413c0.583-1.232 0.623-1.166 0.623-1.166l0.066-0.013c0 0-0.45 2.358-0.278 2.994s0.927 0.57 0.927 0.57 0.411 0.079 0.742-1.086c0.331-1.166 0.967-2.451 0.967-2.451h0.079c0 0-0.278 2.411 0.146 3.179s1.524 0.259 1.524 0.259 0.768-0.388 0.888-0.507c0 0 0.912 0.776 2.199 0.635 2.875-0.566 3.898-1.33 3.898-1.33s0.494 1.252 2.024 1.368c1.749 0.133 2.703-0.968 2.703-0.968s-0.013 0.715 0.596 0.967c0.609 0.252 1.020-1.163 1.020-1.163l1.020-2.812h0.093c0 0 0.053 1.828 1.060 2.12s2.318-0.682 2.318-0.682 0.318-0.176 0.265-0.706z"></path>
</svg>
