<?xml version="1.0" encoding="utf-8"?>
<!-- Generated by IcoMoon.io -->
<!DOCTYPE svg PUBLIC "-//W3C//DTD SVG 1.1//EN" "http://www.w3.org/Graphics/SVG/1.1/DTD/svg11.dtd">
<svg version="1.1" xmlns="http://www.w3.org/2000/svg" xmlns:xlink="http://www.w3.org/1999/xlink" width="32" height="32" viewBox="0 0 32 32">
<path d="M26.879 14.889l-9.858-9.857c-0.567-0.568-1.488-0.568-2.056 0l-2.047 2.047 2.596 2.597c0.604-0.204 1.296-0.067 1.777 0.414 0.484 0.484 0.619 1.182 0.41 1.787l2.503 2.502c0.606-0.209 1.304-0.074 1.788 0.411 0.676 0.676 0.676 1.771 0 2.447s-1.771 0.676-2.447 0c-0.508-0.509-0.634-1.255-0.376-1.882l-2.334-2.334v6.142c0.165 0.082 0.32 0.19 0.457 0.327 0.676 0.676 0.676 1.77 0 2.447-0.676 0.676-1.771 0.676-2.447 0-0.676-0.677-0.676-1.772 0-2.447 0.167-0.167 0.36-0.293 0.567-0.378v-6.199c-0.206-0.085-0.399-0.21-0.567-0.378-0.512-0.512-0.635-1.263-0.373-1.891l-2.56-2.56-6.759 6.759c-0.568 0.568-0.568 1.489 0 2.057l9.858 9.857c0.567 0.568 1.488 0.568 2.056 0l9.812-9.812c0.568-0.568 0.568-1.489 0-2.057z"></path>
</svg>
