<?xml version="1.0" encoding="utf-8"?>
<!-- Generated by IcoMoon.io -->
<!DOCTYPE svg PUBLIC "-//W3C//DTD SVG 1.1//EN" "http://www.w3.org/Graphics/SVG/1.1/DTD/svg11.dtd">
<svg version="1.1" xmlns="http://www.w3.org/2000/svg" xmlns:xlink="http://www.w3.org/1999/xlink" width="32" height="32" viewBox="0 0 32 32">
<path d="M16.016 4.942c-6.202 0-11.23 5.028-11.23 11.23 0 4.962 3.217 9.171 7.68 10.655 0.561 0.103 0.766-0.244 0.766-0.54 0-0.267-0.010-1.153-0.016-2.090-3.123 0.679-3.783-1.324-3.783-1.324-0.511-1.297-1.247-1.642-1.247-1.642-1.021-0.696 0.077-0.683 0.077-0.683 1.127 0.078 1.721 1.157 1.721 1.157 1.002 1.716 2.629 1.22 3.268 0.932 0.102-0.724 0.393-1.22 0.713-1.5-2.493-0.284-5.115-1.247-5.115-5.55 0-1.227 0.438-2.228 1.155-3.014-0.114-0.285-0.501-1.428 0.111-2.973 0 0 0.942-0.302 3.089 1.152 0.895-0.25 1.855-0.374 2.81-0.378 0.954 0.004 1.915 0.129 2.812 0.379 2.143-1.454 3.086-1.152 3.086-1.152 0.614 1.547 0.228 2.688 0.113 2.972 0.72 0.786 1.154 1.787 1.154 3.014 0 4.314-2.627 5.264-5.128 5.542 0.404 0.348 0.762 1.031 0.762 2.078 0 1.501-0.015 2.711-0.015 3.082 0 0.299 0.204 0.648 0.773 0.539 4.459-1.487 7.674-5.696 7.674-10.655 0-6.201-5.028-11.23-11.23-11.23z"></path>
</svg>
