<?xml version="1.0" encoding="utf-8"?>
<!-- Generated by IcoMoon.io -->
<!DOCTYPE svg PUBLIC "-//W3C//DTD SVG 1.1//EN" "http://www.w3.org/Graphics/SVG/1.1/DTD/svg11.dtd">
<svg version="1.1" xmlns="http://www.w3.org/2000/svg" xmlns:xlink="http://www.w3.org/1999/xlink" width="32" height="32" viewBox="0 0 32 32">
<path d="M6.374 15.28h-2.655c-0.068 0-0.124 0.056-0.124 0.124v1.298c0 0.069 0.055 0.124 0.124 0.124h1.036v1.613c0 0-0.233 0.078-0.875 0.078-0.759 0-1.818-0.278-1.818-2.607 0-2.33 1.103-2.637 2.139-2.637 0.897 0 1.283 0.157 1.529 0.234 0.077 0.024 0.148-0.053 0.148-0.122l0.297-1.254c0-0.032-0.011-0.071-0.047-0.097-0.1-0.070-0.709-0.411-2.247-0.411-1.773 0-3.591 0.754-3.591 4.379s2.081 4.165 3.836 4.165c1.452 0 2.334-0.62 2.334-0.62 0.036-0.020 0.040-0.070 0.040-0.093v-4.049c-0.001-0.069-0.056-0.125-0.124-0.125zM19.803 11.933h-1.494c-0.069 0-0.124 0.056-0.124 0.124v2.889h-2.33v-2.889c0-0.069-0.056-0.124-0.123-0.124h-1.496c-0.067 0-0.122 0.056-0.122 0.124v7.822c0 0.069 0.055 0.125 0.122 0.125h1.496c0.068 0 0.123-0.056 0.123-0.125v-3.345h2.33l-0.005 3.346c0 0.069 0.055 0.124 0.122 0.124h1.496c0.069 0 0.123-0.056 0.123-0.124l0.005-7.823c0.001-0.069-0.055-0.124-0.122-0.124zM8.16 12.11c-0.532 0-0.964 0.436-0.964 0.973s0.432 0.974 0.964 0.974 0.964-0.436 0.964-0.974c0-0.538-0.431-0.973-0.964-0.973zM9.018 14.619c0-0.068-0.055-0.125-0.123-0.125h-1.491c-0.070 0-0.129 0.070-0.129 0.14 0 0 0 4.345 0 5.173 0 0.151 0.094 0.197 0.217 0.197 0 0 0.635 0 1.343 0 0.146 0 0.185-0.072 0.185-0.2-0.001-0.277-0.001-1.363-0.001-1.574-0.001-0.2-0.001-3.611-0.001-3.611zM25.589 14.506h-1.483c-0.068 0-0.122 0.056-0.122 0.125v3.835c0 0-0.377 0.278-0.913 0.278-0.534 0-0.677-0.243-0.677-0.768 0-0.523 0-3.345 0-3.345 0-0.069-0.056-0.125-0.123-0.125h-1.504c-0.069 0-0.123 0.056-0.123 0.125 0 0 0 2.042 0 3.598s0.867 1.937 2.059 1.937c0.978 0 1.768-0.541 1.768-0.541s0.037 0.284 0.055 0.318c0.016 0.034 0.060 0.068 0.109 0.068h0.953c0.068 0 0.123-0.056 0.123-0.125l0.004-5.255c-0.003-0.068-0.059-0.124-0.126-0.124zM29.651 14.33c-0.843 0-1.416 0.376-1.416 0.376v-2.648c0-0.069-0.056-0.124-0.123-0.124h-1.5c-0.067 0-0.122 0.056-0.122 0.124l-0.004 7.823c0 0.070 0.056 0.124 0.124 0.124 0 0 1.044 0 1.045 0 0.046 0 0.081-0.024 0.108-0.066s0.063-0.361 0.063-0.361 0.612 0.581 1.773 0.581c1.363 0 2.144-0.691 2.144-3.104-0-2.409-1.248-2.725-2.091-2.725zM29.066 18.738c-0.514-0.016-0.863-0.249-0.863-0.249v-2.478c0 0 0.345-0.212 0.767-0.249 0.534-0.047 1.051 0.114 1.051 1.389-0.003 1.344-0.235 1.609-0.955 1.588zM13.337 18.709c-0.066 0-0.234 0.026-0.406 0.026-0.55 0-0.737-0.256-0.737-0.587 0-0.333 0-2.2 0-2.2h1.122c0.069 0 0.123-0.056 0.123-0.125v-1.205c0.001-0.069-0.054-0.125-0.123-0.125h-1.122l-0.002-1.481c0-0.056-0.030-0.084-0.094-0.084h-1.527c-0.059 0-0.092 0.026-0.092 0.083v1.531c0 0-0.766 0.185-0.818 0.2s-0.089 0.063-0.089 0.119v0.963c0 0.069 0.056 0.125 0.123 0.125h0.783c0 0 0 1.006 0 2.315 0 1.719 1.206 1.888 2.020 1.888 0.371 0 0.816-0.121 0.89-0.147 0.045-0.016 0.070-0.062 0.070-0.112l0.001-1.058c0-0.069-0.058-0.125-0.123-0.125z"></path>
</svg>
