<?xml version="1.0" encoding="utf-8"?>
<!-- Generated by IcoMoon.io -->
<!DOCTYPE svg PUBLIC "-//W3C//DTD SVG 1.1//EN" "http://www.w3.org/Graphics/SVG/1.1/DTD/svg11.dtd">
<svg version="1.1" xmlns="http://www.w3.org/2000/svg" xmlns:xlink="http://www.w3.org/1999/xlink" width="32" height="32" viewBox="0 0 32 32">
<path d="M16.012 12.467v0.001c0.001 0 0.002-0 0.004-0s0.002 0 0.004 0v-0.001c0.639-0.007 1.367-0.894 1.367-0.894-0.499 0.302-0.945 0.407-1.37 0.416-0.425-0.009-0.871-0.114-1.37-0.416-0 0 0.727 0.887 1.367 0.894zM14.405 24.048h-0.321c-0.335 0-0.727 0-0.96 0l-0.195 0c-0.275 0-0.41 0.079-0.475 0.144-0.095 0.096-0.109 0.229-0.044 0.396 0.174 0.446 0.571 0.81 0.688 0.91 0.153 0.132 0.374 0.211 0.59 0.211 0.222 0 0.418-0.080 0.553-0.224 0.377-0.403 0.6-0.837 0.654-0.97 0.031-0.076 0.066-0.221-0.044-0.334-0.086-0.088-0.236-0.133-0.445-0.133zM9.456 12.549c-0.057 0.503 0.262 0.96 0.262 0.96 0.033-0.374 0.111-0.64 0.202-0.831 0.022 0.517 0.159 1.181 0.64 1.713 0.346 0.383 1.786 1.172 2.753 0.306 0.050 0.123 0.104 0.267 0.148 0.425 0.146 0.515-0.133 1.267-0.133 1.267s0.755-0.856 0.697-1.632c0.542-0.024 1.075-0.422 1.060-0.979 0 0-0.946 0.522-1.782-0.439-0.488-0.561-2.051-2.108-4.172-1.594 0.218 0.048 0.447 0.119 0.679 0.207-0.002 0.001-0.004 0.001-0.006 0.002-0.205 0.090-0.321 0.345-0.349 0.594zM10.879 12.458c0.979 0.551 1.879 1.288 2.253 1.858h-0c0 0 0.001 0.001 0.001 0.002-0.288 0.167-1.088 0.524-1.905-0.083-0.522-0.388-0.498-1.321-0.349-1.776zM19.104 24.049l-0.195-0c-0.233-0-0.625-0-0.96-0h-0.322c-0.209 0-0.358 0.045-0.445 0.133-0.11 0.114-0.075 0.258-0.045 0.334 0.054 0.133 0.277 0.567 0.654 0.97 0.135 0.145 0.331 0.224 0.553 0.224 0.216 0 0.436-0.078 0.59-0.211 0.117-0.101 0.513-0.465 0.688-0.91 0.065-0.167 0.050-0.3-0.044-0.396-0.065-0.066-0.2-0.144-0.475-0.144zM18.007 14.758c-0.059 0.776 0.697 1.632 0.697 1.632s-0.28-0.752-0.134-1.267c0.045-0.158 0.098-0.302 0.148-0.425 0.967 0.866 2.407 0.076 2.753-0.306 0.481-0.532 0.619-1.197 0.641-1.714 0.091 0.19 0.17 0.457 0.202 0.831 0 0 0.319-0.457 0.262-0.96-0.028-0.248-0.143-0.503-0.349-0.594-0.002-0.001-0.004-0.001-0.006-0.002 0.233-0.088 0.462-0.159 0.679-0.207-2.12-0.514-3.684 1.033-4.172 1.594-0.836 0.961-1.781 0.439-1.781 0.439-0.015 0.557 0.518 0.956 1.060 0.979zM18.898 14.316c0-0 0-0 0-0 0.375-0.57 1.274-1.307 2.254-1.858 0.149 0.455 0.173 1.388-0.349 1.776-0.817 0.607-1.617 0.25-1.905 0.083 0-0 0.001-0.001 0.001-0.001zM23.906 18.97c-0.12 0.897-0.654 1.698-1.233 2.195-0.154-1.14-0.186-2.785-0.186-3.131 0-0.737 0.476-1.23 0.611-1.308 0.127-0.074 0.269-0.149 0.417-0.229 0.903-0.484 2.028-1.085 2.028-2.195 0-0.811-0.466-1.163-0.775-1.396-0.039-0.029-0.075-0.057-0.108-0.083-0.104-0.084-0.187-0.151-0.217-0.219-0.218-0.491-0.178-1.719-0.084-1.887 0.028-0.032 0.839-1.050 0.59-1.965-0.102-0.373-0.346-0.668-0.708-0.853-0.267-0.136-0.596-0.212-0.98-0.226-0.005-0.099-0.025-0.197-0.046-0.294-0.028-0.131-0.058-0.266-0.046-0.405 0.020-0.233 0.038-0.453 0.108-0.565 0.424-0.669 1.447-0.883 1.458-0.885l0.615-0.121-0.408-0.477c-0.007-0.009-0.867-0.877-2.323-0.877-0.397 0-0.804 0.066-1.208 0.197-1.216 0.392-2.151 1.53-2.477 1.97-0.158-0.049-0.318-0.094-0.481-0.134-0.21-0.793 0.449-1.93 0.449-1.93s-0.68-0.151-1.689 0.765c-0.131-0.326-0.405-1.029-0.088-1.869-1.478 0.522-1.852 1.319-1.963 2.042-0.38-0.272-0.338-1.157-0.359-1.384-0.378 0.045-1.463 1.098-1.415 2.425-0.099 0.027-0.197 0.056-0.294 0.086-0.326-0.44-1.261-1.578-2.477-1.971-0.405-0.131-0.811-0.197-1.208-0.197-1.456 0-2.316 0.868-2.323 0.877l-0.408 0.477 0.615 0.121c0.010 0.002 1.034 0.216 1.457 0.885 0.070 0.111 0.089 0.331 0.109 0.564 0.012 0.139-0.018 0.274-0.046 0.405-0.021 0.097-0.042 0.196-0.047 0.295-0.384 0.014-0.714 0.090-0.98 0.226-0.361 0.185-0.606 0.48-0.708 0.853-0.249 0.914 0.562 1.932 0.59 1.965 0.095 0.169 0.135 1.396-0.084 1.887-0.030 0.068-0.112 0.134-0.217 0.219-0.033 0.026-0.069 0.054-0.108 0.083-0.309 0.233-0.775 0.585-0.775 1.396 0 1.109 1.125 1.711 2.028 2.195 0.148 0.080 0.29 0.155 0.418 0.229 0.135 0.078 0.611 0.571 0.611 1.308 0 0.345-0.032 1.991-0.186 3.131-0.58-0.497-1.114-1.298-1.234-2.196 0 0-1.467 1.132-1.036 3.554 0.391 2.2 2.185 2.966 4.267 3.128 0.697 1.626 1.805 3.086 4.656 3.088v0c0.001 0 0.002-0 0.004-0s0.002 0 0.004 0v-0c2.851-0.002 3.958-1.462 4.655-3.088 2.082-0.161 3.875-0.927 4.267-3.128 0.431-2.422-1.036-3.554-1.036-3.554zM21.722 4.941c0.283-0.091 0.581-0.138 0.886-0.138 0.552 0 1 0.151 1.239 0.252-0.154 0.070-0.322 0.158-0.486 0.268-0.121-0.021-0.279-0.039-0.462-0.039-0.527 0-1.026 0.155-1.443 0.447-0.618 0.435-0.904 0.849-1.036 1.122-0.11-0.063-0.228-0.126-0.354-0.188-0.078-0.038-0.158-0.075-0.238-0.111 0.308-0.451 0.999-1.324 1.894-1.613zM22.775 5.856c-0.040 0.052-0.079 0.106-0.115 0.162-0.166 0.263-0.193 0.583-0.219 0.894-0.027 0.322-0.054 0.628-0.219 0.851-0.21 0.039-0.405 0.087-0.576 0.134-0.113-0.157-0.282-0.352-0.527-0.56 0.072-0.241 0.277-0.81 0.68-1.13 0.275-0.219 0.604-0.336 0.977-0.351zM8.672 5.322c-0.165-0.11-0.332-0.198-0.487-0.268 0.238-0.101 0.686-0.252 1.239-0.252 0.305 0 0.603 0.046 0.886 0.138 0.895 0.289 1.586 1.162 1.894 1.613-0.080 0.036-0.16 0.073-0.239 0.111-0.127 0.062-0.244 0.125-0.354 0.188-0.132-0.273-0.418-0.687-1.036-1.122-0.417-0.292-0.915-0.447-1.443-0.447-0.182 0-0.34 0.018-0.461 0.039zM10.914 7.337c-0.246 0.208-0.414 0.403-0.527 0.56-0.171-0.047-0.366-0.095-0.575-0.134l-0.554-1.907c0.373 0.015 0.701 0.132 0.977 0.351l0.68 1.13zM9.299 16.092c-0.136-0.078-0.279-0.155-0.422-0.233-0.746-0.403-1.516-0.819-1.516-1.531 0-0.557 0.216-0.731 0.445-0.915l0.14-0.159c-0.049 0.383-0.1 0.715-0.141 0.797 0 0 0.609-0.755 0.789-2.225 0.071-0.579-0.055-1.72-0.256-2.16 0.008 0.245 0.001 0.489-0.016 0.721-0.020-0.042-0.041-0.078-0.065-0.108-0.161-0.201-0.593-0.879-0.469-1.334 0.047-0.174 0.157-0.302 0.335-0.394 0.189-0.097 0.443-0.145 0.757-0.145 0.616 0 1.299 0.187 1.651 0.299 1.259 0.399 2.779 1.55 3.214 1.893 0.012 0.010 0.020 0.015 0.021 0.016l0.279 0.194-0.174-0.292c-0.010-0.017-0.959-1.575-2.667-2.334 0.101-0.145 0.369-0.408 1.083-0.756 1.076-0.525 2.331-0.791 3.73-0.791s2.653 0.266 3.729 0.791c0.714 0.348 0.982 0.611 1.083 0.756-1.708 0.759-2.656 2.317-2.667 2.333l-0.174 0.292 0.279-0.194c0.001-0.001 0.009-0.007 0.021-0.016 0.436-0.343 1.955-1.494 3.214-1.893 0.352-0.112 1.036-0.299 1.651-0.299 0.314 0 0.568 0.049 0.757 0.145 0.178 0.091 0.288 0.22 0.335 0.394 0.124 0.455-0.308 1.133-0.469 1.334-0.024 0.030-0.045 0.067-0.065 0.108-0.017-0.232-0.025-0.477-0.016-0.722-0.201 0.439-0.327 1.581-0.256 2.16 0.18 1.469 0.789 2.225 0.789 2.225-0.039-0.079-0.088-0.386-0.135-0.749 0.037 0.032 0.074 0.062 0.11 0.091l0.025 0.020c0.229 0.185 0.445 0.359 0.445 0.915 0 0.711-0.771 1.128-1.516 1.531-0.144 0.078-0.286 0.155-0.422 0.233-0.435 0.251-0.904 0.839-0.957 1.716-0.044 0.734 0.044 2.504 0.171 3.806-0.625 0.242-1.34 0.321-1.992 0.34-0.102-0.207-0.197-0.429-0.275-0.659-0.034-0.098-0.983-2.562-1.324-3.123 0.274 1.957 0.879 3.697 1.179 4.496-0.173-0.024-0.368-0.037-0.587-0.037 0 0-2.084-0.001-2.929-0.002-0.001 0-0.003 0-0.004 0 0 0-0.003 0-0.004 0-0.844 0.001-2.929 0.002-2.929 0.002-0.22 0-0.414 0.014-0.587 0.037 0.3-0.799 0.906-2.54 1.179-4.496-0.342 0.561-1.29 3.025-1.324 3.123-0.079 0.231-0.174 0.452-0.276 0.659-0.651-0.019-1.367-0.098-1.991-0.34 0.128-1.302 0.215-3.072 0.172-3.806-0.053-0.876-0.522-1.465-0.957-1.716zM11.32 23.172c-0.026 0.025-0.050 0.049-0.072 0.073-0.363 0.391-0.431 0.93-0.205 1.599-1.132-0.018-2.316-0.502-2.917-1.492-0.609-1.002-0.438-2.713-0.188-2.964 0.547 1.727 2.369 2.221 3.733 2.281-0.135 0.21-0.259 0.382-0.351 0.502zM20.275 24.798c-0.331 0.948-1.221 3.244-4.259 3.248-3.039-0.004-3.928-2.299-4.259-3.248-0.183-0.526-0.169-0.916 0.043-1.157 0.145-0.165 0.478-0.363 1.236-0.363l0.792-0c0.585-0 1.319-0.001 2.188-0.001s1.603 0.001 2.188 0.001l0.792 0c0.759 0 1.091 0.197 1.237 0.363 0.212 0.242 0.226 0.631 0.043 1.157zM23.906 23.353c-0.602 0.989-1.785 1.474-2.917 1.492 0.226-0.669 0.157-1.208-0.205-1.599-0.023-0.025-0.047-0.049-0.073-0.075-0.092-0.121-0.216-0.292-0.35-0.501 1.364-0.060 3.186-0.553 3.733-2.281 0.25 0.251 0.421 1.962-0.188 2.964z"></path>
</svg>
