<?xml version="1.0" encoding="utf-8"?>
<!-- Generated by IcoMoon.io -->
<!DOCTYPE svg PUBLIC "-//W3C//DTD SVG 1.1//EN" "http://www.w3.org/Graphics/SVG/1.1/DTD/svg11.dtd">
<svg version="1.1" xmlns="http://www.w3.org/2000/svg" xmlns:xlink="http://www.w3.org/1999/xlink" width="32" height="32" viewBox="0 0 32 32">
<path d="M22.232 0.111c-0.031 0.025-0.907 0.932-1.939 2.021l-1.877 1.977-0.751 2.928-2.096 0.038c-3.898 0.081-6.2 0.394-6.625 0.901-0.081 0.094-0.069 0.125 0.075 0.25 1.020 0.876 9.071 1.132 12.794 0.413 1.32-0.257 1.658-0.576 0.938-0.882-0.544-0.238-2.54-0.563-3.435-0.563-0.244 0-0.3-0.019-0.3-0.113 0-0.056 0.138-0.632 0.3-1.27l0.294-1.164 1.752-1.852c0.963-1.020 1.758-1.902 1.77-1.952 0.063-0.282-0.682-0.882-0.901-0.732zM9.007 8.782c0 0.188 0.757 7.307 0.795 7.42 0.012 0.050 0.075-0.044 0.138-0.225 0.557-1.558 1.664-2.878 2.603-3.097 0.457-0.106 0.801 0.006 1.17 0.375 0.407 0.407 0.482 0.845 0.169 1.014-0.156 0.081-0.307-0.031-0.507-0.394-0.432-0.77-1.232-0.363-2.096 1.076-0.913 1.514-1.151 3.191-0.457 3.191 0.257 0 0.876-0.488 1.308-1.026 0.294-0.375 0.407-0.582 0.569-1.064 0.106-0.325 0.231-0.626 0.282-0.663s0.163-0.063 0.263-0.050c0.163 0.019 0.175 0.044 0.194 0.313 0.012 0.206-0.038 0.457-0.175 0.845-0.181 0.513-0.388 1.17-0.776 2.459-0.088 0.294-0.2 0.594-0.257 0.669-0.138 0.194-0.332 0.181-0.419-0.019-0.063-0.131-0.044-0.269 0.131-0.857 0.113-0.388 0.225-0.757 0.244-0.826 0.019-0.081-0.125 0.025-0.394 0.275-0.626 0.582-1.239 0.826-1.602 0.632-0.106-0.056-0.119-0.044-0.119 0.106 0 0.475 0.45 4.742 0.507 4.811 0.188 0.225 1.52 0.607 2.872 0.82 1.032 0.163 3.973 0.163 5.005 0 0.888-0.144 1.858-0.369 2.327-0.544 0.663-0.244 0.582 0.025 0.957-3.222 0.181-1.583 0.325-2.89 0.313-2.897-0.012-0.012-0.213 0.138-0.444 0.332-0.5 0.425-0.832 0.588-1.201 0.594-0.332 0-0.5-0.081-0.576-0.288-0.088-0.219 0.031-0.476 0.507-1.064 0.532-0.657 0.619-0.782 0.619-0.913 0-0.282-0.644 0.012-1.014 0.463-0.119 0.15-0.294 0.394-0.388 0.544-0.213 0.332-0.763 1.589-1.038 2.371-0.213 0.607-0.413 0.888-0.619 0.888-0.119 0-0.319-0.15-0.319-0.238 0-0.163 0.2-0.669 0.569-1.477 0.238-0.513 0.432-0.945 0.432-0.957s-0.119 0.069-0.269 0.188c-0.357 0.294-0.751 0.482-0.995 0.482-0.238 0-0.488-0.15-0.488-0.288 0-0.113 0.012-0.119-0.382 0.1-0.594 0.325-0.932 0.206-0.932-0.338v-0.25l-0.257 0.269c-0.469 0.482-1.107 0.651-1.458 0.375-0.225-0.175-0.219-0.588 0.019-1.301 0.432-1.276 0.763-1.777 1.057-1.589 0.181 0.113 0.15 0.294-0.138 0.888-0.494 1.020-0.525 1.501-0.088 1.376 0.419-0.119 0.92-0.776 1.27-1.652 0.094-0.244 0.213-0.488 0.269-0.551 0.138-0.156 0.344-0.113 0.413 0.088 0.044 0.131 0 0.307-0.244 0.907-0.2 0.488-0.307 0.838-0.307 1.026-0.006 0.269 0 0.282 0.175 0.269 0.225-0.019 0.588-0.256 0.638-0.425 0.194-0.632 1.639-4.16 1.752-4.285 0.125-0.125 0.175-0.144 0.319-0.088 0.106 0.038 0.181 0.113 0.194 0.194 0.012 0.075-0.106 0.425-0.263 0.782-0.613 1.42-1.414 3.472-1.414 3.629 0 0.1 0.031 0.175 0.063 0.175 0.15 0 0.563-0.263 1.014-0.644 0.4-0.35 0.494-0.463 0.582-0.745 0.238-0.726 0.413-0.932 0.669-0.795 0.1 0.056 0.119 0.113 0.094 0.282-0.019 0.119-0.019 0.213 0 0.213s0.163-0.113 0.313-0.256c0.475-0.432 0.882-0.538 1.257-0.307 0.175 0.106 0.2 0.156 0.2 0.394 0 0.325-0.25 0.77-0.776 1.389-0.194 0.225-0.35 0.438-0.35 0.475 0 0.031 0.063 0.056 0.144 0.056 0.138 0 1.189-0.807 1.42-1.089 0.069-0.088 0.213-1.239 0.544-4.285 0.244-2.29 0.444-4.173 0.432-4.179-0.006-0.012-0.169 0.038-0.363 0.106-0.488 0.169-1.545 0.35-2.815 0.482-1.376 0.138-6.037 0.156-7.401 0.031-1.27-0.119-2.496-0.313-3.015-0.482l-0.457-0.144v0.138zM10.884 24.303c0 0.012 0.2 0.363 0.438 0.776l0.444 0.757 0.181 2.515 0.188 2.521 0.188 0.163c0.469 0.4 1.595 0.626 3.347 0.663 1.989 0.044 3.541-0.206 4.048-0.663l0.2-0.175 0.144-2.54 0.144-2.534 0.407-0.713c0.225-0.388 0.407-0.726 0.407-0.751 0-0.019-0.188 0.025-0.425 0.106-0.845 0.288-2.49 0.544-3.954 0.626-1.627 0.088-4.148-0.219-5.424-0.663-0.181-0.063-0.332-0.1-0.332-0.088z"></path>
</svg>
