<?xml version="1.0" encoding="utf-8"?>
<!-- Generated by IcoMoon.io -->
<!DOCTYPE svg PUBLIC "-//W3C//DTD SVG 1.1//EN" "http://www.w3.org/Graphics/SVG/1.1/DTD/svg11.dtd">
<svg version="1.1" xmlns="http://www.w3.org/2000/svg" xmlns:xlink="http://www.w3.org/1999/xlink" width="32" height="32" viewBox="0 0 32 32">
<path d="M4.669 3.007l2.065 23.199 9.267 2.577 9.293-2.58 2.067-23.195h-22.693zM8.96 8.513l-0.068-0.763h7.114v2.845h-4.009l0.26 2.913h3.749v2.845h-6.348l-0.698-7.841zM22.54 14.272l-0.668 7.491-0.043 0.481-5.827 1.618-5.819-1.618-0.398-4.467h2.852l0.202 2.269 3.167 0.855 3.169-0.856 0.33-3.69h-3.488v-2.845h6.594l-0.069 0.764zM23.054 8.513l-0.129 1.442-0.057 0.64h-6.852v-2.845h7.107l-0.068 0.763z"></path>
</svg>
