<?xml version="1.0" encoding="utf-8"?>
<!-- Generated by IcoMoon.io -->
<!DOCTYPE svg PUBLIC "-//W3C//DTD SVG 1.1//EN" "http://www.w3.org/Graphics/SVG/1.1/DTD/svg11.dtd">
<svg version="1.1" xmlns="http://www.w3.org/2000/svg" xmlns:xlink="http://www.w3.org/1999/xlink" width="34" height="32" viewBox="0 0 34 32">
<path d="M21.682 10.574c0.696 0 1.265-0.564 1.265-1.254s-0.569-1.254-1.265-1.254c-0.696 0-1.265 0.564-1.265 1.254 0 0.696 0.564 1.254 1.265 1.254zM20.445 11.672h2.445v9.192h-2.445v-9.192zM12.667 17.782h3.307l0.894 3.079h2.503l-3.635-12.078h-3.039v1.192l-3.188 10.886h2.265l0.894-3.079zM14.306 10.932l1.222 4.738h-2.443l1.222-4.738zM3.005 1.911v27.034h27.609v-27.034h-27.609zM28.544 26.817h-23.429v-22.777h23.429l-0 22.777z"></path>
</svg>
