<?xml version="1.0" encoding="utf-8"?>
<!-- Generated by IcoMoon.io -->
<!DOCTYPE svg PUBLIC "-//W3C//DTD SVG 1.1//EN" "http://www.w3.org/Graphics/SVG/1.1/DTD/svg11.dtd">
<svg version="1.1" xmlns="http://www.w3.org/2000/svg" xmlns:xlink="http://www.w3.org/1999/xlink" width="32" height="32" viewBox="0 0 32 32">
<path d="M29.341 19.238q0.156 0.125 0.172 0.36t-0.172 0.36q-0.438 0.282-0.985 0.313t-1.11-0.063q-0.907-0.094-1.83-0.282t-1.392-1.032h-0.016t-0.047-0.063q-0.563-0.313 0.031-0.516t0.907-0.235q0.626-0.063 1.282 0.031t1.282 0.25q0.5 0.094 0.985 0.282t0.892 0.594v0 0zM30.499 12.231q-0.282-1.627-0.516-3.3t-0.798-3.269q-0.282-0.657-0.516-1.282t-0.985-0.719q-1.032-0.188-0.954 0.5t0.203 1.501q0.188 1.22 0.344 2.471t0.5 2.44q0.219 0.845 0.328 1.548t-1.017 0.047q-1.877-1.095-2.753-3.269t-1.595-4.020q-0.344-0.845-1.173-2.393t-1.517-2.049q-0.344-0.282-1.501-0.5t-1.439 0q-0.344 0.219-0.078 1.017t0.735 1.705 0.954 1.736 0.61 1.11q0.626 1.282 1.298 2.502t1.486 2.346q0.563 0.782 1.048 1.501t-0.798 1.22q-1.314 0.501-2.127-0.031t-1.72-1.189q-0.719-0.532-1.595-0.688t-1.814-0.282q-2.471-0.282-4.77 0.141t-4.27 2.049q-0.938 0.782-1.595 1.846t-1.189 2.19q-0.125 0.282-0.657 1.986t-0.438 1.705q-0.5-0.063-0.485-0.766t-0.641-0.016q-0.594 0.626-0.141 1.986t0.704 1.924q0.594 1.345 1.142 2.69t1.048 2.753q0.438 1.439 0.798 1.674t1.673 0.328q1.627 0.125 3.253-0.219t3.253-0.532l-0.985-0.86t4.708 1.11q1.282 0.438 2.596 0.454t2.659 0.047q0.938-0.219 1.204-1.47t0.766-1.971q0.188-0.282 0.86-1.298t0.985-1.142q0.407-0.125 0.938 0.125t0.938 0.344q2.346 0.344 3.175-1.189t0.454-3.441q-0.313-1.658-0.203-3.394t0.36-3.019q0-0.501-0.344-1.376t-0.407-1.314v0z"></path>
</svg>
