<?xml version="1.0" encoding="utf-8"?>
<!-- Generated by IcoMoon.io -->
<!DOCTYPE svg PUBLIC "-//W3C//DTD SVG 1.1//EN" "http://www.w3.org/Graphics/SVG/1.1/DTD/svg11.dtd">
<svg version="1.1" xmlns="http://www.w3.org/2000/svg" xmlns:xlink="http://www.w3.org/1999/xlink" width="32" height="32" viewBox="0 0 32 32">
<path d="M9.642 7.57h3.755v10.524c0 4.743-2.273 6.398-5.904 6.398-0.889 0-2.026-0.148-2.767-0.395l0.42-3.039c0.519 0.173 1.186 0.296 1.927 0.296 1.581 0 2.569-0.716 2.569-3.286v-10.499zM16.658 20.366c0.988 0.519 2.569 1.038 4.175 1.038 1.729 0 2.643-0.716 2.643-1.828 0-1.013-0.791-1.63-2.792-2.322-2.767-0.988-4.595-2.52-4.595-4.966 0-2.841 2.396-4.99 6.299-4.99 1.902 0 3.261 0.371 4.249 0.84l-0.84 3.014c-0.642-0.321-1.853-0.791-3.458-0.791-1.631 0-2.421 0.766-2.421 1.606 0 1.062 0.914 1.532 3.088 2.372 2.94 1.087 4.298 2.619 4.298 4.99 0 2.792-2.125 5.163-6.695 5.163-1.902 0-3.78-0.519-4.718-1.038l0.766-3.088z"></path>
</svg>
