<?xml version="1.0" encoding="utf-8"?>
<!-- Generated by IcoMoon.io -->
<!DOCTYPE svg PUBLIC "-//W3C//DTD SVG 1.1//EN" "http://www.w3.org/Graphics/SVG/1.1/DTD/svg11.dtd">
<svg version="1.1" xmlns="http://www.w3.org/2000/svg" xmlns:xlink="http://www.w3.org/1999/xlink" width="32" height="32" viewBox="0 0 32 32">
<path d="M16.248 23.664c-0.15-0.034-0.295-0.081-0.442-0.124-0.037-0.011-0.074-0.022-0.11-0.033-0.143-0.044-0.285-0.090-0.426-0.139-0.019-0.007-0.039-0.014-0.059-0.021-0.126-0.045-0.251-0.091-0.375-0.139-0.035-0.014-0.070-0.027-0.105-0.041-0.136-0.054-0.272-0.11-0.405-0.168-0.028-0.012-0.054-0.024-0.081-0.036-0.115-0.052-0.229-0.105-0.342-0.159-0.033-0.016-0.065-0.031-0.099-0.047-0.089-0.043-0.177-0.090-0.264-0.134-0.059-0.031-0.118-0.060-0.177-0.092-0.107-0.058-0.212-0.117-0.317-0.178-0.035-0.020-0.071-0.039-0.107-0.059-0.139-0.082-0.277-0.166-0.413-0.253-0.038-0.024-0.074-0.050-0.111-0.074-0.099-0.063-0.197-0.128-0.294-0.195-0.032-0.021-0.063-0.045-0.095-0.066-0.093-0.066-0.186-0.133-0.278-0.201-0.042-0.031-0.083-0.062-0.123-0.093-0.084-0.064-0.168-0.129-0.25-0.196-0.037-0.030-0.075-0.060-0.112-0.090-0.105-0.087-0.209-0.173-0.312-0.263-0.011-0.009-0.023-0.018-0.034-0.028-0.111-0.097-0.22-0.197-0.328-0.298-0.031-0.030-0.062-0.059-0.092-0.089-0.080-0.076-0.158-0.153-0.236-0.231-0.031-0.031-0.062-0.061-0.092-0.092-0.098-0.101-0.195-0.203-0.289-0.306-0.005-0.005-0.010-0.010-0.014-0.015-0.1-0.109-0.197-0.221-0.293-0.334-0.026-0.031-0.051-0.060-0.077-0.091-0.071-0.086-0.142-0.173-0.211-0.261-0.026-0.031-0.052-0.064-0.077-0.096-0.083-0.108-0.164-0.215-0.244-0.325-2.199-2.999-2.989-7.136-1.231-10.533l-1.558 1.976c-1.996 2.869-1.748 6.601-0.223 9.649 0.036 0.073 0.074 0.145 0.112 0.217 0.024 0.045 0.046 0.092 0.071 0.137 0.014 0.027 0.030 0.053 0.044 0.079 0.026 0.049 0.053 0.095 0.080 0.142 0.047 0.083 0.096 0.166 0.146 0.25 0.027 0.045 0.055 0.091 0.083 0.137 0.055 0.089 0.111 0.177 0.169 0.264 0.024 0.037 0.047 0.075 0.072 0.111 0.080 0.118 0.161 0.237 0.245 0.353 0.002 0.003 0.005 0.006 0.007 0.009 0.013 0.018 0.028 0.037 0.041 0.056 0.073 0.1 0.147 0.199 0.223 0.296 0.028 0.036 0.056 0.072 0.084 0.107 0.067 0.085 0.136 0.169 0.206 0.254 0.026 0.031 0.052 0.063 0.079 0.094 0.094 0.11 0.189 0.22 0.287 0.328 0.002 0.002 0.004 0.004 0.006 0.005 0.004 0.005 0.008 0.008 0.011 0.013 0.095 0.104 0.193 0.206 0.292 0.307 0.031 0.032 0.062 0.063 0.094 0.094 0.077 0.077 0.154 0.153 0.233 0.229 0.032 0.030 0.064 0.062 0.095 0.091 0.105 0.099 0.211 0.196 0.319 0.291 0.002 0.001 0.003 0.003 0.005 0.004 0.018 0.016 0.038 0.032 0.056 0.047 0.095 0.083 0.192 0.164 0.29 0.245 0.040 0.033 0.080 0.064 0.12 0.096 0.080 0.064 0.16 0.127 0.242 0.189 0.043 0.033 0.086 0.066 0.129 0.098 0.090 0.066 0.18 0.131 0.271 0.194 0.033 0.024 0.065 0.047 0.099 0.070 0.009 0.006 0.018 0.013 0.027 0.019 0.086 0.060 0.175 0.117 0.263 0.174 0.038 0.025 0.076 0.051 0.114 0.076 0.136 0.086 0.273 0.171 0.412 0.253 0.038 0.022 0.076 0.043 0.114 0.064 0.102 0.059 0.205 0.117 0.31 0.174 0.056 0.030 0.114 0.059 0.171 0.088 0.074 0.039 0.147 0.078 0.222 0.115 0.017 0.009 0.035 0.017 0.051 0.025 0.030 0.014 0.060 0.028 0.091 0.044 0.116 0.056 0.233 0.11 0.351 0.163 0.025 0.011 0.049 0.022 0.074 0.033 0.135 0.059 0.272 0.116 0.409 0.17 0.033 0.014 0.066 0.026 0.1 0.039 0.127 0.049 0.257 0.098 0.386 0.143 0.016 0.006 0.032 0.012 0.049 0.017 0.142 0.050 0.286 0.096 0.431 0.141 0.034 0.010 0.069 0.021 0.104 0.031 0.147 0.044 0.293 0.097 0.445 0.125 9.653 1.76 12.456-5.8 12.456-5.8-2.354 3.068-6.534 3.877-10.495 2.976zM12.771 15.84c0.216 0.31 0.456 0.679 0.743 0.928 0.104 0.115 0.213 0.226 0.324 0.336 0.028 0.029 0.057 0.056 0.085 0.084 0.108 0.105 0.217 0.207 0.331 0.307 0.005 0.003 0.009 0.008 0.014 0.012 0.001 0.001 0.002 0.002 0.003 0.003 0.125 0.11 0.255 0.216 0.386 0.32 0.029 0.022 0.058 0.046 0.088 0.069 0.132 0.101 0.266 0.2 0.404 0.295 0.004 0.003 0.008 0.006 0.012 0.009 0.061 0.042 0.123 0.081 0.184 0.122 0.030 0.019 0.058 0.040 0.088 0.058 0.098 0.063 0.198 0.125 0.3 0.184 0.014 0.009 0.028 0.016 0.042 0.024 0.087 0.051 0.176 0.1 0.265 0.148 0.031 0.018 0.063 0.033 0.094 0.049 0.061 0.032 0.123 0.064 0.185 0.096 0.009 0.004 0.019 0.009 0.028 0.012 0.127 0.063 0.256 0.123 0.386 0.18 0.028 0.012 0.057 0.023 0.085 0.035 0.105 0.045 0.21 0.088 0.317 0.129 0.045 0.017 0.091 0.033 0.136 0.050 0.097 0.036 0.193 0.069 0.291 0.101 0.044 0.014 0.087 0.028 0.132 0.042 0.139 0.043 0.276 0.098 0.421 0.122 7.453 1.235 9.173-4.504 9.173-4.504-1.551 2.234-4.554 3.3-7.759 2.468-0.142-0.038-0.283-0.078-0.422-0.122-0.043-0.013-0.084-0.027-0.127-0.041-0.099-0.032-0.198-0.066-0.295-0.102-0.045-0.017-0.089-0.033-0.133-0.050-0.107-0.041-0.213-0.084-0.318-0.128-0.029-0.013-0.058-0.024-0.086-0.036-0.132-0.057-0.261-0.117-0.389-0.181-0.066-0.032-0.13-0.066-0.195-0.099-0.037-0.019-0.075-0.038-0.112-0.058-0.083-0.045-0.165-0.092-0.247-0.139-0.019-0.011-0.040-0.022-0.059-0.033-0.101-0.059-0.2-0.12-0.299-0.182-0.030-0.019-0.060-0.040-0.090-0.060-0.065-0.042-0.13-0.085-0.193-0.128-0.137-0.095-0.271-0.194-0.403-0.295-0.030-0.024-0.061-0.047-0.091-0.071-1.403-1.108-2.515-2.621-3.044-4.338-0.554-1.78-0.435-3.778 0.525-5.4l-1.179 1.665c-1.444 2.077-1.365 4.858-0.239 7.055 0.189 0.368 0.401 0.725 0.638 1.066zM20.626 13.27c0.061 0.023 0.123 0.043 0.185 0.064 0.027 0.008 0.054 0.018 0.082 0.026 0.088 0.028 0.175 0.060 0.265 0.077 4.115 0.795 5.231-2.112 5.528-2.54-0.978 1.408-2.621 1.746-4.637 1.257-0.159-0.039-0.334-0.096-0.488-0.151-0.197-0.070-0.39-0.15-0.579-0.241-0.358-0.172-0.699-0.381-1.016-0.62-1.804-1.369-2.925-3.98-1.747-6.107l-0.637 0.878c-0.851 1.252-0.934 2.807-0.344 4.19 0.622 1.468 1.898 2.62 3.387 3.166z"></path>
</svg>
