<?xml version="1.0" encoding="utf-8"?>
<!-- Generated by IcoMoon.io -->
<!DOCTYPE svg PUBLIC "-//W3C//DTD SVG 1.1//EN" "http://www.w3.org/Graphics/SVG/1.1/DTD/svg11.dtd">
<svg version="1.1" xmlns="http://www.w3.org/2000/svg" xmlns:xlink="http://www.w3.org/1999/xlink" width="32" height="32" viewBox="0 0 32 32">
<path d="M0.384 0.264v31.327h31.327v-31.327h-31.327zM16.735 27.062c-0.462 0.938-1.343 1.554-2.364 1.852-1.569 0.36-3.070 0.155-4.187-0.515-0.747-0.459-1.331-1.164-1.727-1.977 0.795-0.485 1.587-0.974 2.382-1.459 0.021 0.009 0.083 0.122 0.167 0.268 0.304 0.509 0.566 0.869 1.081 1.123 0.506 0.173 1.617 0.283 2.046-0.607 0.262-0.453 0.179-1.938 0.179-3.549 0-2.531 0.012-5.021 0.012-7.583h2.93c0 2.691 0.015 5.389 0 8.075 0.006 1.647 0.149 3.143-0.518 4.373zM28.89 26.234c-1.018 3.484-6.697 3.597-8.966 1.295-0.479-0.542-0.78-0.825-1.066-1.45 1.206-0.694 1.206-0.694 2.379-1.373 0.637 0.98 1.227 1.519 2.287 1.739 1.438 0.176 2.886-0.319 2.561-1.846-0.334-1.248-2.945-1.551-4.723-2.886-1.805-1.212-2.227-4.157-0.744-5.84 0.494-0.622 1.337-1.087 2.221-1.31 0.307-0.039 0.616-0.080 0.923-0.119 1.772-0.036 2.88 0.432 3.692 1.34 0.226 0.229 0.411 0.477 0.756 1.013-0.944 0.602-0.941 0.596-2.293 1.471-0.289-0.622-0.768-1.013-1.275-1.182-0.786-0.238-1.778 0.021-1.983 0.852-0.071 0.256-0.057 0.494 0.057 0.917 0.319 0.727 1.388 1.042 2.346 1.483 2.76 1.12 3.692 2.32 3.922 3.749 0.22 1.23-0.054 2.028-0.095 2.147z"></path>
</svg>
