<?xml version="1.0" encoding="utf-8"?>
<!-- Generated by IcoMoon.io -->
<!DOCTYPE svg PUBLIC "-//W3C//DTD SVG 1.1//EN" "http://www.w3.org/Graphics/SVG/1.1/DTD/svg11.dtd">
<svg version="1.1" xmlns="http://www.w3.org/2000/svg" xmlns:xlink="http://www.w3.org/1999/xlink" width="32" height="32" viewBox="0 0 32 32">
<path d="M8.981 9.977v7.269c0 0.875 0.097 1.004 0.966 1.253l-0.208 1.218c-0.463-0.105-0.91-0.153-1.313-0.311-0.77-0.302-0.891-1-0.894-1.716-0.010-2.055-0.004-4.11-0.004-6.164v-0.406c-0.354 0.027-0.678 0.024-0.991 0.084-0.359 0.068-0.565 0.363-0.577 0.795-0.017 0.602-0.006 1.205-0.016 1.807-0.005 0.276-0.017 0.554-0.050 0.827-0.062 0.515-0.299 0.935-0.734 1.216 0.004 0.039-0.002 0.068 0.008 0.075 0.652 0.456 0.764 1.139 0.775 1.859 0.009 0.573-0 1.146 0.003 1.719 0.005 0.864 0.229 1.097 1.096 1.152l0.14 0.021v1.128c-0.602-0.015-1.19-0.040-1.728-0.328-0.6-0.321-0.802-0.878-0.831-1.506-0.030-0.65-0.019-1.303-0.025-1.955-0.001-0.119 0.004-0.237-0.003-0.356-0.043-0.755-0.337-1.087-1.080-1.215-0.006-0.034-0.017-0.072-0.017-0.109-0.002-0.316-0.001-0.632-0.001-0.937l0.053-0.048c0.781-0.189 1.038-0.508 1.047-1.325 0.006-0.523-0.009-1.047 0.005-1.57 0.009-0.354 0.024-0.712 0.087-1.060 0.139-0.768 0.698-1.232 1.592-1.352 0.264-0.035 0.531-0.057 0.796-0.061 0.621-0.009 1.242-0.003 1.904-0.003v0zM11.501 16.785c-0.092 0.76 0.494 1.457 1.306 1.608 0.769 0.143 1.51 0.011 2.278-0.229 0.061 0.356 0.129 0.701 0.172 1.048 0.007 0.053-0.084 0.155-0.149 0.174-1.126 0.352-2.262 0.469-3.392 0.035-0.696-0.267-1.2-0.764-1.469-1.462-0.426-1.108-0.431-2.223 0.071-3.308 0.733-1.586 2.558-1.999 3.924-1.363 0.825 0.384 1.224 1.099 1.366 1.956 0.081 0.49 0.074 0.995 0.11 1.541-1.451-0.001-2.837-0.001-4.218-0.001v0zM14.231 15.715c0.017-0.925-0.507-1.503-1.329-1.498-0.786 0.005-1.424 0.678-1.404 1.498h2.734zM24.854 21.815v-1.145l0.328-0.023c0.618-0.050 0.893-0.324 0.909-0.942 0.015-0.592 0-1.185 0.011-1.778 0.005-0.286 0.022-0.574 0.064-0.856 0.073-0.488 0.322-0.88 0.78-1.178-0.81-0.514-0.838-1.3-0.846-2.091-0.006-0.543 0.006-1.087-0.005-1.63-0.015-0.738-0.287-1.007-1.027-1.040l-0.204-0.014v-1.138c0.642 0.014 1.28 0.034 1.843 0.399 0.524 0.34 0.688 0.877 0.714 1.456 0.031 0.7 0.015 1.402 0.028 2.103 0.004 0.206 0.014 0.418 0.067 0.615 0.135 0.507 0.487 0.77 1.020 0.788v1.11c-0.511 0.022-0.876 0.266-1.013 0.773-0.054 0.197-0.068 0.409-0.072 0.614-0.014 0.691 0 1.383-0.025 2.074-0.039 1.096-0.616 1.706-1.708 1.833-0.28 0.033-0.563 0.045-0.863 0.069v0zM25.121 13.308l-0.264 1.147c-0.611-0.203-1.212-0.341-1.843-0.24-0.397 0.064-0.632 0.239-0.681 0.516-0.054 0.302 0.093 0.568 0.458 0.749 0.309 0.152 0.636 0.266 0.953 0.4 0.19 0.081 0.382 0.161 0.567 0.253 0.891 0.444 1.199 1.014 1.097 2.017-0.072 0.703-0.578 1.221-1.468 1.417-1.062 0.233-2.113 0.168-3.171-0.231l0.232-1.155c0.456 0.104 0.889 0.239 1.332 0.292 0.367 0.044 0.747 0.009 1.118-0.028 0.244-0.024 0.449-0.149 0.51-0.424 0.062-0.282-0.018-0.527-0.257-0.673-0.292-0.178-0.613-0.313-0.923-0.461-0.373-0.178-0.761-0.329-1.119-0.531-1.055-0.595-1.045-2.439 0.128-3 0.348-0.166 0.742-0.266 1.125-0.321 0.744-0.106 1.467 0.047 2.206 0.271zM20.338 13.256l-0.275 1.201c-0.612-0.208-1.205-0.34-1.826-0.244-0.416 0.064-0.65 0.24-0.699 0.533-0.050 0.296 0.1 0.557 0.475 0.74 0.327 0.159 0.673 0.28 1.009 0.421 0.163 0.069 0.326 0.14 0.485 0.219 0.922 0.46 1.245 1.079 1.098 2.098-0.101 0.702-0.714 1.243-1.617 1.384-0.916 0.144-1.827 0.12-2.722-0.166-0.219-0.070-0.312-0.156-0.244-0.396 0.080-0.282 0.128-0.574 0.191-0.864 0.453 0.102 0.886 0.238 1.329 0.29 0.367 0.043 0.748 0.009 1.118-0.028 0.26-0.025 0.462-0.171 0.518-0.454 0.053-0.273-0.042-0.51-0.267-0.642-0.339-0.197-0.706-0.346-1.060-0.516-0.329-0.157-0.668-0.294-0.983-0.475-1.056-0.605-1.039-2.436 0.151-3.027 0.53-0.263 1.090-0.362 1.666-0.316 0.544 0.043 1.082 0.155 1.655 0.242v0z"></path>
</svg>
