<?xml version="1.0" encoding="utf-8"?>
<!-- Generated by IcoMoon.io -->
<!DOCTYPE svg PUBLIC "-//W3C//DTD SVG 1.1//EN" "http://www.w3.org/Graphics/SVG/1.1/DTD/svg11.dtd">
<svg version="1.1" xmlns="http://www.w3.org/2000/svg" xmlns:xlink="http://www.w3.org/1999/xlink" width="32" height="32" viewBox="0 0 32 32">
<path d="M29.028-0.407h-26.025c-1.652 0-3.003 1.351-3.003 3.003v26.025c0 1.652 1.351 3.003 3.003 3.003h26.025c1.652 0 3.003-1.351 3.003-3.003v-26.025c0-1.652-1.351-3.003-3.003-3.003zM12.012 25.619h-4.004v-14.014h4.004v14.014zM10.010 9.603c-1.107 0-2.002-0.895-2.002-2.002s0.895-2.002 2.002-2.002c1.107 0 2.002 0.895 2.002 2.002s-0.895 2.002-2.002 2.002zM26.025 25.619h-4.004v-8.008c0-1.107-0.895-2.002-2.002-2.002s-2.002 0.895-2.002 2.002v8.008h-4.004v-14.014h4.004v2.484c0.826-1.132 2.090-2.484 3.503-2.484 2.49 0 4.504 2.24 4.504 5.005v9.009z"></path>
</svg>
