<?xml version="1.0" encoding="utf-8"?>
<!-- Generated by IcoMoon.io -->
<!DOCTYPE svg PUBLIC "-//W3C//DTD SVG 1.1//EN" "http://www.w3.org/Graphics/SVG/1.1/DTD/svg11.dtd">
<svg version="1.1" xmlns="http://www.w3.org/2000/svg" xmlns:xlink="http://www.w3.org/1999/xlink" width="32" height="32" viewBox="0 0 32 32">
<path d="M15.549 8.012c0 0.102-0.102 0.102-0.102 0.102h-0.102c-0.102 0-0.102-0.102-0.204-0.204 0 0-0.102-0.102-0.102-0.204s0-0.102 0.102-0.102l0.204 0.102c0.102 0.102 0.204 0.204 0.204 0.306zM13.711 6.992c0-0.51-0.204-0.817-0.51-0.817 0 0 0 0.102-0.102 0.102v0.204h0.306c0 0.204 0.102 0.306 0.102 0.51h0.204zM17.285 6.481c0.204 0 0.306 0.204 0.408 0.51h0.204c-0.102-0.102-0.102-0.204-0.102-0.306s0-0.204-0.102-0.306-0.204-0.204-0.306-0.204c0 0-0.102 0.102-0.204 0.102 0 0.102 0.102 0.102 0.102 0.204zM14.222 8.114c-0.102 0-0.102 0-0.102-0.102s0-0.204 0.102-0.306c0.204 0 0.306-0.102 0.306-0.102 0.102 0 0.102 0.102 0.102 0.102 0 0.102-0.102 0.204-0.306 0.408h-0.102zM13.099 8.012c-0.408-0.204-0.51-0.511-0.51-1.021 0-0.306 0-0.51 0.204-0.715 0.102-0.204 0.306-0.306 0.51-0.306s0.306 0.102 0.51 0.306c0.102 0.306 0.204 0.613 0.204 0.919v0.204h0.102v-0.102c0.102 0 0.102-0.204 0.102-0.613 0-0.306 0-0.613-0.204-0.919s-0.408-0.511-0.817-0.511c-0.306 0-0.613 0.204-0.715 0.511-0.204 0.408-0.245 0.715-0.245 1.225 0 0.408 0.143 0.817 0.551 1.225 0.102-0.102 0.204-0.102 0.306-0.204zM25.86 22.407c0.102 0 0.102-0.041 0.102-0.133 0-0.225-0.102-0.49-0.408-0.786-0.306-0.306-0.817-0.5-1.429-0.582-0.102-0.010-0.204-0.010-0.204-0.010-0.102-0.020-0.102-0.020-0.204-0.020-0.102-0.010-0.306-0.031-0.408-0.051 0.306-0.95 0.408-1.787 0.408-2.522 0-1.021-0.204-1.735-0.613-2.348s-0.817-0.919-1.327-1.021c-0.102 0.102-0.102 0.102-0.102 0.204 0.51 0.204 1.021 0.612 1.327 1.225 0.306 0.715 0.408 1.327 0.408 2.042 0 0.572-0.102 1.419-0.51 2.501-0.408 0.163-0.817 0.541-1.123 1.133 0 0.092 0 0.143 0.102 0.143 0 0 0.102-0.092 0.204-0.265 0.204-0.173 0.306-0.347 0.51-0.521 0.306-0.174 0.51-0.265 0.817-0.265 0.51 0 1.021 0.072 1.327 0.214 0.408 0.133 0.613 0.276 0.715 0.439 0.102 0.153 0.204 0.296 0.306 0.429 0 0.133 0.102 0.194 0.102 0.194zM16.468 7.604c-0.102-0.102-0.102-0.306-0.102-0.51 0-0.408 0-0.613 0.204-0.919 0.204-0.204 0.408-0.306 0.612-0.306 0.306 0 0.51 0.204 0.715 0.408 0.102 0.306 0.204 0.51 0.204 0.817 0 0.51-0.204 0.817-0.612 0.919 0 0 0.102 0.102 0.204 0.102 0.204 0 0.306 0.102 0.51 0.204 0.102-0.613 0.204-1.021 0.204-1.531 0-0.613-0.102-1.021-0.306-1.327-0.306-0.306-0.612-0.408-1.021-0.408-0.306 0-0.612 0.102-0.919 0.306-0.204 0.306-0.306 0.511-0.306 0.817 0 0.51 0.102 0.919 0.306 1.327 0.102 0 0.204 0.102 0.306 0.102zM17.693 9.237c-1.327 0.919-2.348 1.327-3.165 1.327-0.715 0-1.429-0.306-2.042-0.817 0.102 0.204 0.204 0.408 0.306 0.51l0.613 0.613c0.408 0.408 0.919 0.613 1.429 0.613 0.714 0 1.531-0.408 2.552-1.123l0.919-0.613c0.204-0.204 0.408-0.408 0.408-0.715 0-0.102 0-0.204-0.102-0.204-0.102-0.204-0.613-0.511-1.633-0.817-0.919-0.408-1.633-0.613-2.042-0.613-0.306 0-0.817 0.204-1.531 0.613-0.613 0.408-1.021 0.817-1.021 1.225 0 0 0.102 0.102 0.204 0.306 0.613 0.511 1.225 0.817 1.838 0.817 0.817 0 1.838-0.408 3.165-1.429v0.204c0.102-0 0.102 0.102 0.102 0.102zM20.041 29.859c0.408 0.768 1.123 1.154 1.94 1.154 0.204 0 0.408-0.031 0.613-0.092 0.204-0.041 0.408-0.112 0.51-0.194 0.102-0.072 0.204-0.143 0.306-0.225 0.204-0.071 0.204-0.122 0.306-0.173l1.735-1.501c0.408-0.326 0.817-0.61 1.327-0.858 0.408-0.245 0.817-0.408 1.021-0.5 0.306-0.082 0.51-0.204 0.715-0.368 0.102-0.153 0.204-0.347 0.204-0.592 0-0.296-0.204-0.521-0.408-0.684s-0.408-0.276-0.613-0.347-0.408-0.235-0.715-0.51c-0.204-0.265-0.408-0.633-0.511-1.113l-0.102-0.592c-0.102-0.276-0.102-0.48-0.204-0.592 0-0.031 0-0.041-0.102-0.041s-0.306 0.092-0.408 0.265c-0.204 0.173-0.408 0.367-0.613 0.572-0.102 0.204-0.408 0.388-0.612 0.561-0.306 0.174-0.613 0.265-0.817 0.265-0.817 0-1.225-0.225-1.531-0.664-0.204-0.327-0.306-0.704-0.408-1.133-0.204-0.173-0.306-0.265-0.51-0.265-0.51 0-0.715 0.531-0.715 1.603v3.175c0 0.092-0.102 0.296-0.102 0.613-0.102 0.317-0.102 0.676-0.102 1.082l-0.204 1.133v0.017zM5.238 29.316c0.949 0.139 2.042 0.436 3.277 0.889 1.235 0.449 1.991 0.684 2.266 0.684 0.715 0 1.307-0.317 1.797-0.928 0.102-0.198 0.102-0.431 0.102-0.698 0-0.965-0.582-2.185-1.746-3.665l-0.694-0.929c-0.143-0.194-0.316-0.49-0.541-0.888-0.214-0.398-0.408-0.704-0.562-0.919-0.133-0.235-0.347-0.47-0.623-0.704-0.265-0.235-0.572-0.388-0.909-0.47-0.429 0.082-0.725 0.225-0.868 0.419s-0.225 0.408-0.245 0.633c-0.031 0.214-0.092 0.357-0.194 0.429-0.102 0.061-0.276 0.112-0.51 0.163-0.051 0-0.143 0-0.276 0.010h-0.276c-0.541 0-0.909 0.061-1.103 0.163-0.255 0.296-0.388 0.633-0.388 0.99 0 0.163 0.041 0.439 0.123 0.827 0.082 0.378 0.123 0.684 0.123 0.898 0 0.419-0.123 0.837-0.378 1.256-0.255 0.439-0.388 0.766-0.388 0.998 0.102 0.396 0.776 0.675 2.011 0.838zM8.638 20.033c0-0.704 0.184-1.48 0.562-2.399 0.367-0.919 0.735-1.531 1.092-1.94-0.020-0.102-0.071-0.102-0.153-0.102l-0.102-0.102c-0.296 0.306-0.653 1.021-1.082 2.042-0.429 0.919-0.653 1.766-0.653 2.389 0 0.459 0.112 0.858 0.316 1.205 0.225 0.337 0.766 0.827 1.623 1.45l1.082 0.704c1.153 1 1.766 1.695 1.766 2.103 0 0.214-0.102 0.429-0.408 0.664-0.204 0.245-0.48 0.367-0.715 0.367-0.020 0-0.031 0.020-0.031 0.072 0 0.010 0.102 0.214 0.316 0.612 0.429 0.582 1.348 0.868 2.573 0.868 2.246 0 3.981-0.919 5.309-2.756 0-0.51 0-0.827-0.102-0.96v-0.378c0-0.664 0.102-1.164 0.306-1.49s0.408-0.48 0.715-0.48c0.204 0 0.408 0.072 0.613 0.225 0.102-0.786 0.102-1.47 0.102-2.083 0-0.929 0-1.695-0.204-2.409-0.102-0.613-0.306-1.123-0.51-1.531-0.204-0.306-0.408-0.613-0.612-0.919s-0.306-0.613-0.51-0.919c-0.102-0.408-0.204-0.715-0.204-1.225-0.306-0.511-0.51-1.021-0.817-1.531-0.204-0.51-0.408-1.021-0.613-1.429l-0.919 0.715c-1.021 0.714-1.838 1.021-2.552 1.021-0.613 0-1.123-0.102-1.429-0.511l-0.613-0.51c0 0.306-0.102 0.714-0.306 1.123l-0.643 1.225c-0.286 0.715-0.439 1.123-0.47 1.429-0.041 0.204-0.071 0.408-0.092 0.408l-0.766 1.531c-0.827 1.531-1.246 2.95-1.246 4.124 0 0.235 0.020 0.48 0.061 0.725-0.459-0.317-0.684-0.756-0.684-1.327zM15.947 29.69c-1.327 0-2.348 0.18-3.063 0.536v-0.031c-0.511 0.612-1.082 0.929-1.878 0.929-0.5 0-1.286-0.194-2.348-0.582-1.072-0.367-2.021-0.649-2.848-0.835-0.082-0.023-0.265-0.058-0.561-0.105-0.286-0.046-0.551-0.093-0.786-0.14-0.214-0.046-0.459-0.115-0.725-0.209-0.255-0.081-0.459-0.186-0.613-0.313-0.141-0.129-0.21-0.274-0.21-0.436s0.035-0.338 0.104-0.524c0.065-0.112 0.137-0.225 0.208-0.327 0.071-0.112 0.133-0.214 0.173-0.316 0.061-0.092 0.102-0.184 0.143-0.286 0.041-0.092 0.082-0.184 0.102-0.296 0.020-0.102 0.041-0.204 0.041-0.306s-0.041-0.408-0.123-0.949c-0.082-0.531-0.123-0.868-0.123-1.011 0-0.449 0.102-0.806 0.327-1.062s0.439-0.388 0.664-0.388h1.174c0.092 0 0.235-0.051 0.449-0.174 0.072-0.163 0.133-0.296 0.174-0.419 0.051-0.122 0.071-0.214 0.092-0.255 0.020-0.061 0.041-0.123 0.061-0.174 0.041-0.071 0.092-0.153 0.163-0.235-0.082-0.102-0.122-0.235-0.122-0.398 0-0.112 0-0.214 0.020-0.276 0-0.367 0.174-0.888 0.541-1.572l0.357-0.643c0.296-0.551 0.521-0.96 0.684-1.368 0.174-0.408 0.357-1.021 0.561-1.838 0.163-0.715 0.551-1.429 1.164-2.144l0.766-0.919c0.531-0.613 0.878-1.123 1.072-1.531s0.296-0.919 0.296-1.327c0-0.204-0.051-0.817-0.163-1.838-0.102-1.021-0.153-2.042-0.153-2.96 0-0.715 0.061-1.225 0.194-1.736s0.368-1.021 0.715-1.429c0.306-0.408 0.715-0.817 1.327-1.021s1.327-0.306 2.144-0.306c0.306 0 0.613 0 0.919 0.102 0.306 0 0.715 0.102 1.225 0.306 0.408 0.204 0.817 0.408 1.123 0.715 0.408 0.306 0.715 0.817 1.021 1.327 0.204 0.613 0.408 1.225 0.51 2.042 0.102 0.51 0.102 1.021 0.204 1.735 0 0.613 0.102 1.021 0.102 1.327 0.102 0.306 0.102 0.715 0.204 1.225 0.102 0.408 0.204 0.817 0.408 1.123 0.204 0.408 0.408 0.817 0.715 1.225 0.306 0.51 0.715 1.021 1.123 1.633 0.919 1.021 1.633 2.144 2.042 3.267 0.51 1.021 0.817 2.348 0.817 3.767 0 0.704-0.102 1.388-0.306 2.052 0.204 0 0.306 0.082 0.408 0.225s0.204 0.449 0.306 0.929l0.102 0.755c0.102 0.225 0.204 0.439 0.51 0.623 0.204 0.184 0.408 0.337 0.715 0.459 0.204 0.102 0.51 0.245 0.715 0.429 0.204 0.204 0.306 0.419 0.306 0.643 0 0.347-0.102 0.602-0.306 0.786-0.204 0.204-0.408 0.347-0.715 0.439-0.204 0.102-0.613 0.306-1.225 0.594-0.51 0.302-1.021 0.669-1.531 1.102l-1.021 0.869c-0.408 0.398-0.817 0.684-1.123 0.858-0.306 0.184-0.715 0.276-1.123 0.276l-0.715-0.082c-0.817-0.214-1.327-0.623-1.633-1.245-1.633-0.198-2.961-0.296-3.777-0.296z"></path>
</svg>
