<?xml version="1.0" encoding="utf-8"?>
<!-- Generated by IcoMoon.io -->
<!DOCTYPE svg PUBLIC "-//W3C//DTD SVG 1.1//EN" "http://www.w3.org/Graphics/SVG/1.1/DTD/svg11.dtd">
<svg version="1.1" xmlns="http://www.w3.org/2000/svg" xmlns:xlink="http://www.w3.org/1999/xlink" width="32" height="32" viewBox="0 0 32 32">
<path d="M5.087 5.192c-0.565 0.565-0.423 1.214 0.565 2.682 0.508 0.762 1.101 1.948 1.327 2.625 0.226 0.706 0.678 1.665 0.988 2.145 0.565 0.79 0.565 0.96 0.198 2.399-0.226 0.903-0.311 2.033-0.198 2.738 0.169 1.186 1.129 2.908 1.722 3.105 0.508 0.169 1.242-0.734 1.27-1.553 0-0.706 0.028-0.734 0.339-0.226 0.537 0.875 2.23 2.738 2.371 2.597 0.057-0.056-0.311-0.79-0.847-1.609-0.508-0.847-1.101-1.948-1.327-2.456-0.31-0.847-0.423-0.903-0.79-0.508-0.226 0.226-0.508 0.875-0.593 1.468-0.226 1.355-0.734 1.524-1.129 0.367s-0.395-3.134 0-4.489c0.282-0.931 0.254-1.186-0.226-1.891-0.31-0.423-0.79-1.44-1.045-2.258-0.254-0.79-0.847-1.976-1.327-2.597-1.101-1.553-1.101-2.117 0.056-1.891 0.48 0.085 1.214 0.423 1.666 0.734 0.423 0.311 1.157 0.565 1.609 0.565 1.355 0 3.726 1.327 5.448 3.049 1.327 1.327 2.004 2.399 3.444 5.307 1.694 3.444 1.835 3.642 2.879 3.98 1.242 0.423 3.839 2.004 3.839 2.343 0 0.113-0.649 0.282-1.44 0.339-2.117 0.226-2.315 0.621-0.932 1.863 0.65 0.565 1.863 1.44 2.738 1.92l1.581 0.903-0.734-0.931c-0.423-0.508-1.298-1.298-1.976-1.722s-1.214-0.875-1.214-0.988c0-0.113 0.48-0.311 1.073-0.395 1.581-0.282 2.032-0.423 2.032-0.706 0-0.423-2.851-2.569-4.206-3.162-1.157-0.536-1.298-0.762-2.795-3.839-1.327-2.823-1.863-3.613-3.557-5.307-2.174-2.174-3.67-3.105-5.589-3.388-0.649-0.113-1.553-0.452-1.948-0.734-0.932-0.706-2.823-0.96-3.275-0.48z"></path>
</svg>
