<?xml version="1.0" encoding="utf-8"?>
<!-- Generated by IcoMoon.io -->
<!DOCTYPE svg PUBLIC "-//W3C//DTD SVG 1.1//EN" "http://www.w3.org/Graphics/SVG/1.1/DTD/svg11.dtd">
<svg version="1.1" xmlns="http://www.w3.org/2000/svg" xmlns:xlink="http://www.w3.org/1999/xlink" width="32" height="32" viewBox="0 0 32 32">
<path d="M5.309 16.173c0-0.095-0.050-0.183-0.132-0.23l-2.194-1.262c-0.037-0.022-0.079-0.033-0.121-0.035-0.004 0-0.020 0-0.023 0-0.042 0.002-0.084 0.013-0.121 0.035l-2.194 1.262c-0.082 0.047-0.133 0.135-0.133 0.23l0.005 3.399c0 0.047 0.025 0.091 0.066 0.114 0.041 0.024 0.091 0.024 0.132 0l1.304-0.746c0.082-0.049 0.133-0.135 0.133-0.23v-1.588c0-0.094 0.050-0.182 0.132-0.229l0.555-0.32c0.041-0.024 0.087-0.035 0.133-0.035 0.045 0 0.092 0.012 0.132 0.035l0.555 0.32c0.082 0.047 0.132 0.135 0.132 0.229v1.588c0 0.095 0.051 0.181 0.133 0.23l1.303 0.746c0.041 0.024 0.092 0.024 0.133 0 0.040-0.023 0.066-0.067 0.066-0.114l0.004-3.399zM17.023 11.499c-0.041-0.023-0.091-0.022-0.132 0.002s-0.065 0.067-0.065 0.114v3.366c0 0.033-0.018 0.064-0.046 0.080s-0.064 0.017-0.093 0l-0.549-0.317c-0.082-0.047-0.183-0.047-0.265 0l-2.194 1.267c-0.082 0.047-0.133 0.135-0.133 0.229v2.534c0 0.095 0.050 0.182 0.132 0.229l2.195 1.267c0.082 0.047 0.183 0.047 0.265 0l2.195-1.267c0.082-0.048 0.132-0.135 0.132-0.229v-6.316c0-0.096-0.052-0.185-0.136-0.231l-1.306-0.729zM16.819 17.942c0 0.024-0.012 0.046-0.033 0.057l-0.754 0.434c-0.020 0.012-0.046 0.012-0.066 0l-0.753-0.434c-0.021-0.012-0.033-0.034-0.033-0.057v-0.87c0-0.024 0.013-0.046 0.033-0.057l0.753-0.435c0.020-0.012 0.046-0.012 0.066 0l0.753 0.435c0.021 0.012 0.033 0.034 0.033 0.057v0.87zM24.874 17.050c0.082-0.047 0.132-0.135 0.132-0.229v-0.614c0-0.095-0.050-0.182-0.132-0.229l-2.18-1.266c-0.082-0.048-0.183-0.048-0.265-0l-2.194 1.266c-0.082 0.047-0.132 0.135-0.132 0.23v2.533c0 0.095 0.051 0.183 0.134 0.23l2.18 1.242c0.081 0.046 0.179 0.046 0.26 0.001l1.319-0.733c0.042-0.023 0.068-0.067 0.068-0.115s-0.025-0.092-0.066-0.116l-2.208-1.267c-0.041-0.023-0.066-0.067-0.066-0.115v-0.794c0-0.047 0.025-0.091 0.066-0.115l0.687-0.396c0.041-0.024 0.091-0.024 0.132 0l0.688 0.396c0.041 0.024 0.066 0.068 0.066 0.115v0.625c0 0.047 0.025 0.091 0.066 0.115s0.092 0.023 0.133-0l1.314-0.764zM9.3 14.698c0.082-0.047 0.183-0.047 0.265 0l2.194 1.266c0.082 0.047 0.132 0.135 0.132 0.229v2.535c0 0.095-0.051 0.182-0.132 0.23l-2.194 1.267c-0.082 0.047-0.183 0.047-0.265 0l-2.194-1.267c-0.082-0.047-0.132-0.135-0.132-0.23v-2.535c0-0.095 0.051-0.182 0.133-0.229l2.194-1.266zM29.134 20.261c-0.076 0-0.151-0.020-0.217-0.058l-0.691-0.409c-0.103-0.058-0.053-0.078-0.019-0.090 0.138-0.048 0.165-0.059 0.312-0.142 0.015-0.009 0.036-0.005 0.052 0.004l0.531 0.315c0.019 0.011 0.046 0.011 0.064 0l2.069-1.194c0.019-0.011 0.031-0.033 0.031-0.056v-2.388c0-0.023-0.012-0.045-0.032-0.057l-2.068-1.193c-0.019-0.011-0.045-0.011-0.064 0l-2.068 1.194c-0.020 0.011-0.033 0.034-0.033 0.057v2.388c0 0.023 0.013 0.044 0.033 0.055l0.567 0.327c0.308 0.154 0.496-0.027 0.496-0.209v-2.358c0-0.033 0.027-0.060 0.060-0.060h0.262c0.033 0 0.060 0.026 0.060 0.060v2.358c0 0.41-0.223 0.646-0.613 0.646-0.119 0-0.214 0-0.477-0.13l-0.543-0.312c-0.134-0.077-0.217-0.222-0.217-0.377v-2.388c0-0.155 0.083-0.3 0.217-0.377l2.069-1.196c0.131-0.074 0.305-0.074 0.435 0l2.069 1.196c0.134 0.077 0.217 0.222 0.217 0.377v2.388c0 0.155-0.083 0.299-0.217 0.377l-2.069 1.195c-0.066 0.038-0.141 0.058-0.218 0.058zM29.774 18.616c-0.906 0-1.095-0.416-1.095-0.764 0-0.033 0.027-0.060 0.060-0.060h0.268c0.030 0 0.055 0.022 0.059 0.051 0.040 0.272 0.161 0.41 0.708 0.41 0.436 0 0.621-0.099 0.621-0.33 0-0.133-0.052-0.232-0.73-0.299-0.566-0.056-0.916-0.181-0.916-0.634 0-0.418 0.352-0.666 0.942-0.666 0.663 0 0.991 0.23 1.032 0.724 0.002 0.017-0.004 0.033-0.016 0.046s-0.027 0.019-0.044 0.019h-0.269c-0.028 0-0.052-0.020-0.058-0.047-0.064-0.287-0.221-0.378-0.646-0.378-0.476 0-0.531 0.166-0.531 0.29 0 0.151 0.066 0.195 0.708 0.28 0.636 0.084 0.938 0.203 0.938 0.65 0 0.451-0.376 0.709-1.031 0.709zM22.529 16.931c0.016-0.009 0.035-0.009 0.051 0l0.421 0.243c0.016 0.009 0.026 0.026 0.026 0.044v0.486c0 0.018-0.010 0.035-0.026 0.044l-0.421 0.243c-0.016 0.009-0.035 0.009-0.051 0l-0.421-0.243c-0.016-0.009-0.025-0.026-0.025-0.044v-0.486c0-0.018 0.010-0.035 0.025-0.044l0.421-0.243z"></path>
</svg>
