<?xml version="1.0" encoding="utf-8"?>
<!-- Generated by IcoMoon.io -->
<!DOCTYPE svg PUBLIC "-//W3C//DTD SVG 1.1//EN" "http://www.w3.org/Graphics/SVG/1.1/DTD/svg11.dtd">
<svg version="1.1" xmlns="http://www.w3.org/2000/svg" xmlns:xlink="http://www.w3.org/1999/xlink" width="32" height="32" viewBox="0 0 32 32">
<path d="M16.013 28.516c-0.338 0-0.674-0.088-0.97-0.26l-3.089-1.828c-0.461-0.257-0.235-0.349-0.083-0.402 0.615-0.214 0.74-0.263 1.396-0.635 0.069-0.038 0.16-0.024 0.231 0.018l2.372 1.408c0.087 0.048 0.207 0.048 0.287 0l9.25-5.339c0.086-0.049 0.141-0.149 0.141-0.25v-10.676c0-0.105-0.055-0.202-0.143-0.255l-9.246-5.334c-0.086-0.050-0.2-0.050-0.285 0l-9.244 5.336c-0.090 0.051-0.146 0.152-0.146 0.253v10.676c0 0.102 0.056 0.198 0.145 0.247l2.534 1.464c1.375 0.688 2.217-0.122 2.217-0.936v-10.54c0-0.149 0.12-0.266 0.269-0.266h1.173c0.146 0 0.268 0.117 0.268 0.266v10.54c0 1.835-0.999 2.888-2.739 2.888-0.534 0-0.956 0-2.131-0.579l-2.425-1.396c-0.599-0.347-0.97-0.994-0.97-1.687v-10.676c0-0.693 0.371-1.341 0.97-1.686l9.251-5.345c0.586-0.331 1.363-0.331 1.944 0l9.25 5.345c0.599 0.347 0.972 0.993 0.972 1.686v10.676c0 0.693-0.373 1.338-0.972 1.687l-9.25 5.341c-0.296 0.171-0.631 0.26-0.974 0.26zM18.871 21.162c-4.049 0-4.896-1.859-4.896-3.417 0-0.148 0.119-0.266 0.266-0.266h1.197c0.133 0 0.245 0.096 0.265 0.227 0.18 1.218 0.718 1.832 3.167 1.832 1.948 0 2.777-0.442 2.777-1.475 0-0.596-0.234-1.038-3.264-1.335-2.53-0.25-4.097-0.81-4.097-2.834 0-1.867 1.574-2.979 4.212-2.979 2.964 0 4.429 1.028 4.616 3.236 0.007 0.075-0.020 0.148-0.071 0.205-0.051 0.054-0.121 0.086-0.196 0.086h-1.201c-0.124 0-0.234-0.088-0.259-0.209-0.289-1.281-0.989-1.69-2.889-1.69-2.128 0-2.375 0.741-2.375 1.296 0 0.674 0.293 0.869 3.164 1.25 2.843 0.376 4.194 0.907 4.194 2.905 0 2.015-1.68 3.17-4.611 3.17z"></path>
</svg>
