<?xml version="1.0" encoding="utf-8"?>
<!-- Generated by IcoMoon.io -->
<!DOCTYPE svg PUBLIC "-//W3C//DTD SVG 1.1//EN" "http://www.w3.org/Graphics/SVG/1.1/DTD/svg11.dtd">
<svg version="1.1" xmlns="http://www.w3.org/2000/svg" xmlns:xlink="http://www.w3.org/1999/xlink" width="34" height="32" viewBox="0 0 34 32">
<path d="M3.559 2.441v27.097h27.556v-27.097h-27.556zM28.924 27.383h-23.174v-22.788h23.174v22.788zM16.571 10.045c-0.694-0.599-1.727-0.94-3.176-0.94-1.434 0-3.177 0.046-3.177 0.046l-0 11.114h2.329v-3.571c0 0 0.408-0.005 0.848-0.023 1.594-0.067 2.529-0.55 3.33-1.366 0.617-0.632 0.956-1.531 0.956-2.63s-0.447-2.064-1.11-2.63zM13.333 14.723c-0.375 0.004-0.534 0.016-0.786-0.008v-3.838c0 0 0.494-0.017 0.972 0 1.199 0.044 1.835 0.891 1.835 1.923-0 1.149-0.771 1.908-2.020 1.923zM22.226 15.064c-1.006-0.356-1.325-0.56-1.325-0.95 0-0.424 0.352-0.678 0.973-0.678 0.704 0 1.769 0.455 2.138 0.659v-1.873c-0.503-0.254-1.266-0.567-2.222-0.567-2.029 0-3.337 1.17-3.337 2.731-0.017 0.966 0.637 1.657 2.331 2.233 0.956 0.322 1.207 0.768 1.207 1.192s-0.318 0.696-1.090 0.696c-0.755 0-1.862-0.431-2.331-0.719v0 1.849c0.62 0.339 1.52 0.659 2.331 0.685 2.365 0.074 3.555-1.153 3.555-2.697-0.017-1.221-0.671-2.018-2.23-2.561z"></path>
</svg>
