<?xml version="1.0" encoding="utf-8"?>
<!-- Generated by IcoMoon.io -->
<!DOCTYPE svg PUBLIC "-//W3C//DTD SVG 1.1//EN" "http://www.w3.org/Graphics/SVG/1.1/DTD/svg11.dtd">
<svg version="1.1" xmlns="http://www.w3.org/2000/svg" xmlns:xlink="http://www.w3.org/1999/xlink" width="34" height="32" viewBox="0 0 34 32">
<path d="M16.27 4.882c4.011-0.088 8.105 0.506 11.754 2.209 3.229 1.393 6.642 4.659 5.509 8.533-1.602 4.462-6.627 6.278-10.935 7.159-6.589 1.108-14.083 0.543-19.486-3.653-2.568-1.875-3.607-5.825-1.512-8.455 3.398-4.332 9.386-5.556 14.67-5.794zM16.732 7.131v0c-2.705 0.045-5.352 0.419-7.924 1.306-2.659 0.979-6.298 2.783-6.059 6.127 0.875 3.449 4.825 4.834 7.895 5.705 6.171 1.393 13.23 1.1 18.628-2.543 2.013-1.247 3.084-4.187 1.267-6.078-3.5-3.71-8.959-4.467-13.806-4.517zM8.673 17.836l1.327-6.72h3.070c1.327 0.083 1.991 0.747 1.991 1.908 0 1.991-1.576 3.153-2.987 3.070h-1.493l-0.332 1.742zM10.913 14.85l0.996-0c0.747-0.083 1.41-0.332 1.493-1.742 0-0.498-0.415-0.747-0.996-0.747h-1.079zM14.563 16.094l1.327-6.72h1.576l-0.332 1.742h1.493c1.327 0.083 1.825 0.747 1.659 1.576l-0.581 3.401h-1.659l0.581-3.070c0.083-0.415 0.083-0.664-0.498-0.664h-1.244l-0.747 3.734zM19.79 17.836l1.327-6.72h3.070c1.327 0.083 1.991 0.747 1.991 1.908 0 1.991-1.576 3.153-2.987 3.070h-1.493l-0.332 1.742zM22.030 14.85l0.996-0c0.747-0.083 1.41-0.332 1.493-1.742 0-0.498-0.415-0.747-0.996-0.747h-1.079z"></path>
</svg>
