<?xml version="1.0" encoding="utf-8"?>
<!-- Generated by IcoMoon.io -->
<!DOCTYPE svg PUBLIC "-//W3C//DTD SVG 1.1//EN" "http://www.w3.org/Graphics/SVG/1.1/DTD/svg11.dtd">
<svg version="1.1" xmlns="http://www.w3.org/2000/svg" xmlns:xlink="http://www.w3.org/1999/xlink" width="32" height="32" viewBox="0 0 32 32">
<path d="M13.281 15.875h5.406q1.125 0 1.922-0.813t0.797-1.938v-5.156q0-1.125-0.813-1.891t-1.906-0.922q-0.688-0.125-1.406-0.188t-1.406-0.063q-0.719 0.031-1.375 0.078t-1.219 0.172q-1.719 0.281-2.219 0.953t-0.5 1.859v2.063h5.438v0.688h-7.469q-1.188 0-2.125 0.703t-1.281 2.047q-0.344 1.531-0.359 2.703t0.359 2.797q0.313 1.219 1.016 1.984t1.891 0.766h1.844v-2.469q0-1.344 1.016-2.359t2.391-1.016v0zM12.938 8.656q-0.438 0-0.734-0.313t-0.297-0.719q0-0.438 0.297-0.734t0.734-0.297q0.406 0 0.703 0.297t0.297 0.734q0 0.406-0.297 0.719t-0.703 0.313v0zM26.813 13.469q-0.281-1.188-0.891-1.969t-1.797-0.781h-2.031v2.406q0 1.406-1.031 2.422t-2.375 1.016h-5.406q-1.125 0-1.922 0.828t-0.797 1.922v5.156q0 1.125 0.813 1.797t1.906 0.984q1.281 0.375 2.578 0.406t2.828-0.406q1.031-0.313 1.875-0.953t0.844-1.828v-2.063h-5.406v-0.688h8.125q1.188 0 1.734-0.75t0.953-2q0.438-1.281 0.422-2.578t-0.422-2.922v0zM19.031 23.781q0.438 0 0.734 0.313t0.297 0.719q0 0.438-0.297 0.75t-0.734 0.313q-0.406 0-0.719-0.313t-0.313-0.75q0-0.406 0.313-0.719t0.719-0.313v0z"></path>
</svg>
