<?xml version="1.0" encoding="utf-8"?>
<!-- Generated by IcoMoon.io -->
<!DOCTYPE svg PUBLIC "-//W3C//DTD SVG 1.1//EN" "http://www.w3.org/Graphics/SVG/1.1/DTD/svg11.dtd">
<svg version="1.1" xmlns="http://www.w3.org/2000/svg" xmlns:xlink="http://www.w3.org/1999/xlink" width="32" height="32" viewBox="0 0 32 32">
<path d="M7.125 27.406h11.063l-0.375-0.938t-0.781-2.469-0.656-3.438-0.031-3.844q0.25-1.906 1.047-3.313t1.828-2.359 2.125-1.438 1.969-0.578q1.719-0.188 2.625 0.484l0.906 0.672 0.5-0.75-0.578-0.516t-1.594-1.109-2.375-1.031-2.891-0.313q-1.563 0.156-2.891 0.719t-2.422 1.422-1.969 1.969-1.563 2.359q-1.344 2.5-2.172 4.516t-1.359 4.641-0.469 3.969l0.063 1.344zM4.906 21.844l2.156 0.156-0.375 2.188-2.031-0.25 0.25-2.094zM8.313 17.25l0.594-1.625-1.906-0.719-0.625 1.719 1.938 0.625zM11.031 11.688l1.125-1.344-1.469-0.938-1.156 1.281 1.5 1zM13.969 6.531l1 1.188 1.375-0.781-1-1.125-1.375 0.719zM18.844 5.156l0.25 1.188 1.719-0.031-0.156-1.063-1.813-0.094zM24.625 6.438l-0.031 0.75 1.156 0.625 0.25-0.375-1.375-1zM24.375 9.656v0.625l1.125 0.125v-0.5l-1.125-0.25zM20.813 10.188l0.531 1 0.781-0.625-0.156-0.656-1.156 0.281zM19.094 11.469l0.844 1.25-0.5 0.875-1.219-1.313 0.875-0.813zM17.438 14.938l-0.531 1.063 1.406 1.219 0.344-1.375-1.219-0.906zM16.844 18.719l-0.063 1.469 1.75 0.75-0.094-1.375-1.594-0.844zM17.344 23.875l0.438 1.5 2.188 0.125-0.781-1.625h-1.844z"></path>
</svg>
