<?xml version="1.0" encoding="utf-8"?>
<!-- Generated by IcoMoon.io -->
<!DOCTYPE svg PUBLIC "-//W3C//DTD SVG 1.1//EN" "http://www.w3.org/Graphics/SVG/1.1/DTD/svg11.dtd">
<svg version="1.1" xmlns="http://www.w3.org/2000/svg" xmlns:xlink="http://www.w3.org/1999/xlink" width="32" height="32" viewBox="0 0 32 32">
<path d="M24.375 15.094l-0.188-0.313q0-1.781-0.688-2.641t-1.625-1.391q0.281-0.094 0.547-0.203t0.328-0.453q0.5-0.125 0.656-0.344t0.188-0.469q0.156-0.094 0.453-0.328t0.234-0.672q0.25-0.156 0.359-0.375t0.047-0.531q0.25-0.281 0.328-0.516t-0.047-0.453q0.313-0.406 0.25-0.641t-0.188-0.422q0.219-0.438 0.016-0.797t-0.828-0.266q-0.281-0.406-0.703-0.406h-0.516q-0.094-0.125-0.266-0.203t-0.547-0.016q-0.25-0.25-0.531-0.234t-0.594 0.109q-0.344-0.281-0.594-0.156t-0.531 0.188q-0.406-0.125-0.578-0.016t-0.391 0.203q-0.438-0.094-0.656 0.063t-0.438 0.375h-0.344q-0.688 0.406-1.047 1.109t-0.484 1.109q-0.125-0.406-0.484-1.109t-1.078-1.109h-0.313q-0.25-0.219-0.453-0.375t-0.641-0.063q-0.219-0.094-0.391-0.203t-0.578 0.016q-0.188-0.031-0.359-0.125t-0.359-0.094v0q-0.094 0.031-0.203 0.063t-0.203 0.125q-0.313-0.094-0.594-0.109t-0.531 0.234q-0.375-0.063-0.547 0.016t-0.266 0.203h-0.516t-0.703 0.406q-0.625-0.094-0.828 0.266t0.016 0.797q-0.125 0.188-0.188 0.422t0.25 0.641q-0.125 0.219-0.047 0.453t0.328 0.516q-0.063 0.313 0.047 0.531t0.359 0.375q-0.063 0.438 0.234 0.672t0.453 0.328q0.031 0.25 0.188 0.469t0.656 0.344q0.063 0.344 0.328 0.453t0.547 0.203q-0.938 0.531-1.625 1.391t-0.688 2.641l-0.188 0.313q-1.063 0.656-1.641 2.453t0.922 3.484q0.094 0.531 0.25 0.953t0.313 0.859q0.219 1.688 1.281 2.531t1.438 0.938q0.563 0.406 1.172 0.797t1.422 0.672q0.75 0.781 1.563 1.109t1.625 0.328h0.063q0.813 0 1.625-0.328t1.563-1.109q0.813-0.281 1.422-0.672t1.172-0.797q0.375-0.094 1.438-0.938t1.281-2.531q0.156-0.438 0.313-0.859t0.25-0.953q1.5-1.688 0.922-3.484t-1.641-2.453v0zM23.094 14.688q-0.031 0.375-0.797-0.109t-1.594-1.203-1.422-1.391-0.281-0.703q1.719-0.313 2.922 0.625t1.172 2.781v0zM17.75 4.844q0.031 0.156 0.078 0.25t0.078 0.125q0.219-0.219 0.406-0.438t0.438-0.438q0 0.125-0.016 0.25t0.141 0.219q0.125-0.188 0.313-0.359t0.438-0.297q-0.094 0.219-0.047 0.313t0.109 0.156q0.188-0.156 0.406-0.313t0.563-0.313q-0.094 0.125-0.172 0.25t0.078 0.25q0.188-0.125 0.422-0.234t0.703-0.203q-0.094 0.125-0.234 0.234t-0.016 0.234q0.25-0.094 0.531-0.156l0.563-0.125q-0.125 0.125-0.219 0.25t0.031 0.219q0.25-0.094 0.609-0.172t0.703 0.016l-0.313 0.313q0 0.031 0.422 0.031h0.766q-0.125 0.188-0.25 0.406t-0.188 0.531q0.031 0.031 0.188 0.016t0.313-0.016q-0.156 0.375-0.406 0.531t-0.313 0.313q0.094 0.063 0.234 0.063t0.297-0.063q-0.125 0.25-0.344 0.453t-0.438 0.422q0.063 0.031 0.156 0.047t0.313-0.016q-0.188 0.219-0.422 0.406t-0.484 0.375q0.031 0.031 0.172 0.047t0.297 0.016q-0.25 0.25-0.547 0.406t-0.609 0.313q0.156 0.094 0.266 0.109t0.234-0.016q-0.219 0.188-0.547 0.297t-0.672 0.234q0.063 0.094 0.141 0.125t0.234 0.063q-0.375 0.219-0.797 0.203t-0.578 0.078q0.063 0.094 0.141 0.172t0.203 0.141q-0.563 0.031-1.75-0.203t-1.5-1.453q0.594-0.656 1.703-1.422t2.953-1.734q-1.438 0.5-2.719 1.156t-2.344 1.563q-1.281-0.594-0.797-1.813t1.078-1.813v0zM16 10.625v0q0.906 0 1.797 0.563t0.891 1.188q-0.031 0.563-0.75 0.969t-1.938 0.406q-1.188-0.031-1.922-0.5t-0.734-1.031q0-0.438 0.813-1.031t1.844-0.563v0zM9.906 9.969q0.156-0.031 0.219-0.063t0.156-0.125q-0.344-0.125-0.688-0.234t-0.531-0.297q0.094 0.031 0.219 0.016t0.281-0.109l-0.625-0.313t-0.563-0.406q0.156 0 0.313-0.016t0.188-0.047q-0.281-0.188-0.5-0.375t-0.438-0.406q0.219 0.031 0.328 0.016t0.172-0.047q-0.219-0.219-0.453-0.422t-0.359-0.453q0.156 0.063 0.313 0.063t0.25-0.063q-0.063-0.156-0.313-0.313t-0.406-0.531q0.156 0 0.313 0.016t0.188-0.016q-0.063-0.313-0.188-0.516t-0.281-0.391q0.375-0.031 0.797-0.031t0.391-0.031l-0.281-0.313q0.344-0.094 0.688-0.016t0.625 0.172q0.125-0.094 0.031-0.219t-0.219-0.25l0.563 0.125t0.531 0.156q0.125-0.125-0.016-0.234t-0.266-0.234q0.469 0.094 0.719 0.203t0.438 0.234q0.156-0.125 0.078-0.25t-0.203-0.25q0.375 0.156 0.578 0.313t0.391 0.313q0.063-0.063 0.125-0.156t-0.063-0.313q0.25 0.125 0.438 0.297t0.344 0.359q0.156-0.094 0.141-0.219t-0.016-0.25q0.25 0.219 0.438 0.438t0.406 0.438q0.031-0.031 0.063-0.125t0.063-0.25q0.625 0.594 1.109 1.813t-0.797 1.813q-1.094-0.906-2.375-1.563t-2.688-1.156q1.813 0.969 2.938 1.734t1.719 1.422q-0.313 1.219-1.5 1.453t-1.75 0.203q0.094-0.063 0.188-0.141t0.125-0.172q-0.125-0.094-0.547-0.078t-0.797-0.203v0zM12.719 11.188q0.313 0.063-0.266 0.734t-1.422 1.391-1.594 1.188-0.781 0.125q-0.063-1.844 1.156-2.781t2.906-0.656v0zM7.656 20.625q-0.906-0.719-0.969-2.375t1.594-2.594q0.469-0.125 0.594 0.703t-0.016 1.828-0.484 1.813-0.719 0.625v0zM12.219 25.594q-0.469 0.281-1.516 0.047t-1.891-1.453q-0.594-1.063-0.563-1.984t0.438-1.234q0.594-0.375 1.453 0.047t1.578 1.266q0.625 0.75 0.828 1.828t-0.328 1.484v0zM10.938 19.531q-0.938-0.594-1.078-1.781t0.578-2.25 1.859-1.406 2.047 0.25q0.938 0.594 1.078 1.781t-0.578 2.281q-0.719 1.063-1.859 1.406t-2.047-0.281v0zM16 28.406q-1.094 0.063-2-0.625t-0.875-1q-0.031-0.5 1.016-0.813t1.922-0.313q0.906-0.031 1.844 0.25t0.938 0.719q0 0.406-0.891 1.109t-1.953 0.672v0zM19 22.094q0 1.125-0.859 1.922t-2.078 0.797-2.078-0.781-0.859-1.906v-0.031q0-1.125 0.844-1.922t2.063-0.797 2.094 0.781 0.875 1.906v0.031zM17.156 18.25q-0.719-1.063-0.578-2.25t1.078-1.781q0.906-0.625 2.047-0.281t1.859 1.406q0.719 1.094 0.578 2.281t-1.078 1.781q-0.906 0.594-2.047 0.25t-1.859-1.406v0zM23.125 24.25q-0.969 1.313-2.047 1.5t-1.578-0.156q-0.469-0.469-0.188-1.656t0.969-2v0q0.781-0.875 1.563-1.328t1.344-0.016q0.406 0.406 0.5 1.594t-0.563 2.063v0zM24.094 20.563q-0.406 0.156-0.734-0.641t-0.469-1.813-0.031-1.844 0.609-0.672q1.625 0.938 1.563 2.594t-0.938 2.375v0z"></path>
</svg>
