<?xml version="1.0" encoding="utf-8"?>
<!-- Generated by IcoMoon.io -->
<!DOCTYPE svg PUBLIC "-//W3C//DTD SVG 1.1//EN" "http://www.w3.org/Graphics/SVG/1.1/DTD/svg11.dtd">
<svg version="1.1" xmlns="http://www.w3.org/2000/svg" xmlns:xlink="http://www.w3.org/1999/xlink" width="32" height="32" viewBox="0 0 32 32">
<path d="M22.646 11.521c0-0.581 0.002-1.13-0-1.679-0.002-0.546-0.24-0.784-0.792-0.785-4.987-0.001-9.975-0.001-14.962 0-0.538 0-0.772 0.237-0.773 0.768-0.001 1.568-0 3.135-0 4.703 0 0.091 0 0.181 0 0.289 0.339 0 0.655 0 1 0 0-1.582 0-3.154 0-4.735 4.854 0 9.679 0 14.534 0 0 0.487 0 0.958 0 1.438 0.339 0 0.648 0 0.993 0zM19.125 18.008c-3.304 0-6.591 0-9.888 0 0 0.662 0 1.307 0 1.959 3.305 0 6.591 0 9.888 0 0-0.661 0-1.307 0-1.959zM16.879 22.26c0.025-0.031 0.050-0.063 0.075-0.094-0.641-0.322-0.842-0.877-0.844-1.523-1.172 0-2.297 0-3.429 0-0.071 0.308-0.085 0.638-0.224 0.901-0.136 0.256-0.4 0.443-0.661 0.717 1.749 0 3.416 0 5.083 0zM27.369 21.632c-0.199 0.516-0.581 0.675-1.12 0.669-1.825-0.022-3.65-0.008-5.475-0.009-0.666-0-0.971-0.305-0.971-0.978-0.001-2.715-0.001-5.429-0-8.143 0-0.678 0.297-0.976 0.969-0.976 1.843-0.001 3.687 0.011 5.53-0.008 0.538-0.005 0.899 0.175 1.068 0.695 0 2.917 0 5.833 0 8.75zM26.804 20.638c0-2.592 0-5.152 0-7.714-2.165 0-4.307 0-6.457 0 0 2.581 0 5.148 0 7.714 2.164 0 4.305 0 6.457 0zM25.122 21.44c0.005-0.211-0.158-0.391-0.363-0.403-0.217-0.012-0.409 0.164-0.416 0.382-0.006 0.22 0.174 0.404 0.395 0.402 0.215-0.002 0.379-0.165 0.384-0.381zM22.809 21.434c0.002-0.221-0.18-0.402-0.399-0.397-0.203 0.004-0.38 0.183-0.384 0.388-0.004 0.217 0.18 0.399 0.401 0.396 0.208-0.004 0.38-0.177 0.381-0.386zM23.586 21.037c-0.204-0.007-0.388 0.164-0.398 0.369-0.011 0.224 0.158 0.408 0.38 0.414 0.213 0.006 0.387-0.155 0.397-0.367 0.011-0.223-0.158-0.409-0.379-0.416zM5.192 22.733c-0.404-0.121-0.533-0.394-0.53-0.809 0.016-1.906 0.006-3.813 0.007-5.719 0-0.499 0.192-0.701 0.696-0.706 0.834-0.008 1.668-0.007 2.502-0 0.483 0.004 0.689 0.214 0.69 0.69 0.002 1.943-0.004 3.886 0.005 5.829 0.002 0.381-0.18 0.59-0.509 0.715-0.954 0-1.908 0-2.862 0zM5.055 16.745c0 1.604 0 3.184 0 4.767 1.050 0 2.081 0 3.115 0 0-1.598 0-3.177 0-4.767-1.044 0-2.068 0-3.115 0zM22.646 11.521c-0.346 0-0.654 0-0.993 0 0-0.48 0-0.951 0-1.438-4.855 0-9.681 0-14.534 0 0 1.582 0 3.153 0 4.735-0.345 0-0.661 0-1 0 0-0.108 0-0.199 0-0.289 0-1.568-0-3.135 0-4.703 0-0.532 0.235-0.768 0.773-0.768 4.987-0.001 9.975-0.001 14.962 0 0.552 0 0.79 0.239 0.792 0.785 0.002 0.549 0 1.098 0 1.679zM19.125 18.008c0 0.652 0 1.298 0 1.959-3.297 0-6.583 0-9.888 0 0-0.652 0-1.297 0-1.959 3.297 0 6.584 0 9.888 0zM14.822 18.97c-0.006-0.248-0.216-0.439-0.469-0.427-0.24 0.012-0.424 0.21-0.418 0.45 0.006 0.234 0.209 0.434 0.44 0.435 0.242 0.001 0.452-0.215 0.446-0.458zM16.879 22.26c-1.667 0-3.334 0-5.083 0 0.261-0.274 0.526-0.461 0.661-0.717 0.139-0.263 0.153-0.592 0.224-0.901 1.133 0 2.258 0 3.429 0 0.001 0.646 0.203 1.201 0.844 1.523-0.025 0.031-0.050 0.063-0.075 0.094zM6.807 22.071c0 0.133-0.108 0.241-0.24 0.241s-0.24-0.108-0.24-0.241c0-0.133 0.108-0.241 0.24-0.241s0.24 0.108 0.24 0.241z"></path>
</svg>
