<?xml version="1.0" encoding="utf-8"?>
<!-- Generated by IcoMoon.io -->
<!DOCTYPE svg PUBLIC "-//W3C//DTD SVG 1.1//EN" "http://www.w3.org/Graphics/SVG/1.1/DTD/svg11.dtd">
<svg version="1.1" xmlns="http://www.w3.org/2000/svg" xmlns:xlink="http://www.w3.org/1999/xlink" width="32" height="32" viewBox="0 0 32 32">
<path d="M9.469 27.25l4.625 0.625t4.625 0.641 4.625 0.641 4.656 0.625q-0.781-1.313-1.578-2.625t-1.578-2.609l-1.563-2.594t-1.563-2.609q-1.531 0.969-3.047 1.953t-3.047 1.969-3.078 1.984-3.078 2v0zM29.75 7.719q-0.406 0.594-0.813 1.219l-0.813 1.25q-0.719 1.031-1.422 2.094l-2.813 4.25t-1.422 2.125q-0.063 0.125-0.125 0.234t0.031 0.297q0.688 1.125 1.359 2.25t1.359 2.25 1.359 2.25 1.359 2.25q0.188 0.344 0.422 0.703t0.516 0.703q0.125-2.75 0.266-5.484t0.281-5.453 0.266-5.453 0.281-5.484h-0.094zM5 17.031q0.063 0.063 0.188 0.094t0.188 0q1.313-0.656 2.625-1.297t2.594-1.328q0.406-0.219 0.75-0.578t0.688-0.703q1.188-1.094 2.375-2.172t2.375-2.172q0.063-0.094 0.141-0.156t0.141-0.156l1.688-3.375-1-0.375t-1-0.344q-0.063-0.031-0.156 0t-0.156 0.063q-1.156 0.656-2.313 1.281t-2.281 1.344q-0.531 0.344-1.016 0.813t-0.984 0.938q-0.781 0.719-1.578 1.438t-1.578 1.469q-0.188 0.188-0.375 0.406t-0.344 0.469l-1.063 1.563t-1.063 1.594q0.281 0.313 0.563 0.609t0.594 0.578v0zM11.344 15.625q-0.313 1.375-0.641 2.75l-1.313 5.5t-0.641 2.781q1.563-1 3.109-2t3.078-1.984 3.047-1.969 3.047-1.953q-1.219-0.375-2.422-0.766l-2.406-0.781t-2.422-0.781-2.438-0.797v0zM28.688 7.75l-2.625 0.438t-2.609 0.438l-2.594 0.438t-2.609 0.438q0.875 2.156 1.766 4.297t1.766 4.297q0.875-1.281 1.734-2.578l3.438-5.188t1.734-2.578v0zM11.5 14.875q2.375 0.781 4.719 1.547t4.75 1.547q-0.875-2.188-1.75-4.297t-1.75-4.266q-1.5 1.375-2.984 2.734t-2.984 2.734v0zM5.125 19.188q-0.844 2-1.672 3.969t-1.641 3.938q1.594-0.031 3.156-0.078t3.156-0.109q-0.75-1.938-1.5-3.844t-1.5-3.875v0zM8.188 25.094q0.031-0.031 0.047-0.031h0.047q0.563-2.375 1.141-4.734t1.172-4.828q-1.313 0.656-2.563 1.313t-2.531 1.313q0.656 1.688 1.344 3.453t1.344 3.516v0zM27.406 7.219q-0.75-0.188-1.5-0.391t-1.531-0.391q-1.063-0.281-2.156-0.578t-2.188-0.578q-0.125-0.031-0.234-0.031t-0.172 0.188q-0.406 0.781-0.797 1.563t-0.766 1.563q-0.031 0.031-0.031 0.063v0.094q2.344-0.344 4.688-0.703t4.688-0.734v-0.063zM21.563 4.844q2.031 0.563 4.078 1.125t4.141 1.156q-0.344-1.031-0.672-1.969t-0.672-1.906q-1.75 0.375-3.453 0.75t-3.422 0.75v0.094zM8.906 27.844q-0.781-0.063-1.563-0.031t-1.531 0.063q-0.656 0-1.281 0.016t-1.281 0.047q-0.063 0-0.125 0.016t-0.125 0.109q2.625 0.219 5.25 0.469t5.266 0.5 5.266 0.484 5.25 0.484q0-0.031 0.016-0.047t0.016-0.047q-1.688-0.219-3.375-0.453t-3.375-0.484q-2.094-0.281-4.203-0.578t-4.203-0.547v0zM1.938 24.688q0.688-1.563 1.359-3.141t1.359-3.141q0.063-0.156 0.047-0.281t-0.141-0.25q-0.281-0.281-0.563-0.578t-0.594-0.609q-0.406 2.094-0.813 4.125t-0.844 4.063h0.063l0.078-0.078t0.047-0.109v0zM19.75 4.281q1.156-0.281 2.313-0.531l2.313-0.5q0.063-0.031 0.141-0.047t0.141-0.047v-0.063q-1.625 0.219-3.266 0.438t-3.359 0.438q0.469 0.219 0.875 0.328t0.844-0.016v0z"></path>
</svg>
