<?xml version="1.0" encoding="utf-8"?>
<!-- Generated by IcoMoon.io -->
<!DOCTYPE svg PUBLIC "-//W3C//DTD SVG 1.1//EN" "http://www.w3.org/Graphics/SVG/1.1/DTD/svg11.dtd">
<svg version="1.1" xmlns="http://www.w3.org/2000/svg" xmlns:xlink="http://www.w3.org/1999/xlink" width="32" height="32" viewBox="0 0 32 32">
<path d="M31.672 20.775c-0.109-0.912-0.578-1.62-1.287-2.174-0.821-0.642-1.781-0.906-2.806-0.948-0.835-0.034-1.652 0.090-2.439 0.376-0.225 0.082-0.445 0.178-0.671 0.269-0.030-0.055-0.062-0.107-0.088-0.162-0.232-0.474-0.512-0.928-0.574-1.472-0.044-0.386-0.098-0.772-0.006-1.154 0.088-0.368 0.204-0.729 0.312-1.092 0.056-0.187 0.017-0.291-0.161-0.375-0.062-0.029-0.129-0.055-0.197-0.065-0.438-0.064-0.87-0.027-1.294 0.096-0.15 0.044-0.259 0.128-0.293 0.294-0.019 0.095-0.058 0.187-0.085 0.281-0.111 0.391-0.19 0.79-0.369 1.162-0.449 0.935-0.961 1.834-1.486 2.727-0.057 0.096-0.116 0.191-0.188 0.308-0.184-0.385-0.381-0.731-0.44-1.137-0.067-0.458-0.12-0.916-0.006-1.371 0.085-0.339 0.196-0.672 0.298-1.007 0.049-0.159 0.026-0.243-0.118-0.327-0.073-0.042-0.155-0.080-0.237-0.092-0.454-0.067-0.901-0.032-1.34 0.11-0.136 0.044-0.207 0.132-0.249 0.272-0.122 0.413-0.226 0.837-0.398 1.23-0.694 1.592-1.408 3.175-2.122 4.758-0.149 0.33-0.323 0.649-0.491 0.971-0.043 0.082-0.105 0.154-0.158 0.23-0.043-0.050-0.059-0.085-0.059-0.119 0.001-0.204-0.023-0.413 0.016-0.61 0.117-0.595 0.252-1.187 0.395-1.776 0.118-0.487 0.254-0.969 0.385-1.453 0.044-0.162 0.045-0.313-0.072-0.449-0.195-0.228-0.604-0.278-0.846-0.103-0.026 0.019-0.057 0.032-0.107 0.061 0.009-0.077 0.014-0.125 0.021-0.173 0.051-0.37 0.061-0.739-0.040-1.104-0.127-0.454-0.451-0.716-0.922-0.701-0.22 0.007-0.45 0.044-0.654 0.124-0.856 0.335-1.514 0.929-2.073 1.644-0.051 0.065-0.118 0.124-0.19 0.164-0.724 0.401-1.45 0.798-2.176 1.196-0.271 0.149-0.542 0.297-0.808 0.443-0.217-0.207-0.414-0.421-0.637-0.603-0.682-0.556-1.376-1.099-2.063-1.649-0.609-0.488-1.199-0.996-1.651-1.642-0.336-0.481-0.552-1.006-0.573-1.6-0.026-0.757 0.189-1.449 0.574-2.093 0.493-0.824 1.165-1.485 1.905-2.084 0.782-0.633 1.628-1.171 2.504-1.661 1.227-0.686 2.488-1.294 3.841-1.695 1.387-0.411 2.794-0.647 4.246-0.483 0.571 0.065 1.124 0.195 1.633 0.474 0.39 0.213 0.709 0.493 0.858 0.93 0.147 0.43 0.142 0.866 0.040 1.302-0.206 0.884-0.69 1.613-1.3 2.265-0.999 1.068-2.219 1.795-3.591 2.275-0.792 0.277-1.607 0.451-2.444 0.521-0.683 0.057-1.351-0.003-1.998-0.241-0.428-0.157-0.801-0.398-1.101-0.747-0.054-0.063-0.122-0.13-0.222-0.072-0.098 0.057-0.115 0.151-0.082 0.245 0.055 0.157 0.105 0.32 0.191 0.46 0.214 0.351 0.527 0.607 0.872 0.825 0.661 0.42 1.401 0.562 2.167 0.595 1.163 0.050 2.298-0.123 3.417-0.435 1.597-0.445 2.986-1.232 4.1-2.473 0.927-1.033 1.59-2.2 1.732-3.608 0.069-0.687-0.004-1.361-0.326-1.988-0.349-0.68-0.904-1.148-1.568-1.496-0.965-0.506-2.007-0.706-3.084-0.764-0.359-0-0.719-0-1.078-0-1.304 0.064-2.564 0.337-3.789 0.783-0.927 0.337-1.837 0.717-2.72 1.158-1.923 0.96-3.713 2.11-5.184 3.702-0.733 0.794-1.353 1.665-1.71 2.696-0.104 0.302-0.168 0.623-0.243 0.935-0.006 0.026 0.023 0.051-0.041 0.077 0 0.147 0 0.294 0 0.441 0.064 0.113 0.072 0.226 0.1 0.338 0.189 0.734 0.578 1.364 1.061 1.939 0.687 0.819 1.52 1.478 2.382 2.098 0.748 0.538 1.506 1.063 2.257 1.597 0.129 0.091 0.248 0.197 0.388 0.309-0.12 0.065-0.222 0.122-0.326 0.175-0.991 0.503-1.944 1.066-2.823 1.748-0.53 0.411-1.042 0.848-1.403 1.42-0.582 0.919-0.788 1.898-0.354 2.943 0.127 0.305 0.32 0.569 0.592 0.764 0.088 0.063 0.187 0.126 0.291 0.15 0.265 0.062 0.535 0.103 0.802 0.152 0.253-0 0.506-0 0.759-0 0.839-0.075 1.603-0.362 2.294-0.839 1.079-0.745 1.806-1.743 2.119-3.025 0.227-0.931 0.236-1.864-0.031-2.791-0.025-0.086-0.056-0.17-0.089-0.254s-0.071-0.164-0.116-0.268c0.573-0.33 1.147-0.66 1.721-0.99 0.009 0.007 0.017 0.015 0.026 0.022-0.031 0.103-0.064 0.204-0.093 0.308-0.204 0.747-0.34 1.506-0.291 2.282 0.052 0.826 0.283 1.599 0.766 2.289 0.391 0.558 1.322 0.579 1.738 0.019 0.147-0.199 0.29-0.407 0.398-0.629 0.28-0.579 0.54-1.169 0.808-1.754 0.012-0.025 0.022-0.051 0.047-0.107-0.019 0.277-0.042 0.521-0.052 0.764-0.016 0.381 0.006 0.759 0.136 1.121 0.111 0.31 0.301 0.541 0.655 0.582 0.243 0.028 0.436-0.083 0.615-0.224 0.279-0.22 0.505-0.492 0.673-0.8 0.476-0.874 0.964-1.742 1.395-2.638 0.467-0.969 0.874-1.966 1.308-2.951 0.024-0.054 0.045-0.109 0.072-0.175 0.102 0.402 0.174 0.796 0.305 1.169 0.153 0.433 0.341 0.855 0.547 1.266 0.097 0.194 0.086 0.32-0.049 0.482-0.565 0.681-1.119 1.369-1.675 2.058-0.123 0.152-0.245 0.306-0.347 0.472-0.062 0.101-0.103 0.224-0.12 0.341-0.033 0.225 0.106 0.441 0.346 0.493 0.22 0.047 0.453 0.065 0.678 0.048 0.775-0.057 1.479-0.329 2.101-0.79 0.806-0.597 1.065-1.412 0.869-2.378-0.053-0.262-0.146-0.517-0.237-0.769-0.041-0.114-0.043-0.194 0.031-0.3 0.644-0.92 1.195-1.897 1.707-2.895 0.020-0.039 0.041-0.079 0.076-0.121 0.166 0.864 0.416 1.696 0.863 2.45-0.228 0.22-0.454 0.419-0.659 0.639-0.45 0.484-0.841 1.010-1.044 1.65-0.088 0.276-0.155 0.557-0.116 0.852 0.061 0.458 0.436 0.756 0.887 0.652 0.964-0.223 1.797-0.678 2.405-1.483 0.409-0.542 0.447-1.146 0.275-1.78-0.047-0.172-0.103-0.342-0.163-0.539 0.238-0.074 0.47-0.162 0.71-0.217 1.246-0.284 2.478-0.235 3.679 0.215 0.701 0.263 1.267 0.702 1.603 1.394 0.41 0.845 0.184 1.648-0.613 2.182-0.074 0.050-0.159 0.089-0.221 0.152-0.038 0.038-0.061 0.115-0.051 0.168 0.005 0.031 0.087 0.069 0.134 0.069 0.262-0.002 0.474-0.139 0.679-0.281 0.511-0.354 0.849-0.829 0.929-1.456 0.002-0.018-0.024-0.035 0.040-0.052 0-0.139 0-0.277 0-0.416-0.064-0.017-0.037-0.034-0.039-0.052zM7.293 22.466c-0.084 1.116-0.589 2.021-1.416 2.753-0.465 0.412-0.998 0.705-1.619 0.808-0.225 0.037-0.456 0.046-0.674-0.047-0.311-0.133-0.381-0.41-0.387-0.704-0.009-0.469 0.155-0.894 0.381-1.298 0.294-0.526 0.726-0.928 1.186-1.303 0.726-0.591 1.513-1.091 2.319-1.563 0.013-0.008 0.029-0.012 0.061-0.025 0.125 0.46 0.184 0.915 0.149 1.378zM13.589 17.617c-0.059 0.356-0.132 0.713-0.236 1.058-0.36 1.196-0.822 2.354-1.322 3.497-0.092 0.211-0.227 0.404-0.343 0.605-0.018 0.031-0.045 0.058-0.071 0.084-0.145 0.143-0.282 0.135-0.355-0.052-0.085-0.217-0.137-0.45-0.182-0.68-0.030-0.155-0.023-0.316-0.032-0.475 0.010-1.124 0.353-2.147 0.935-3.098 0.24-0.392 0.501-0.766 0.9-1.014 0.123-0.076 0.26-0.138 0.399-0.177 0.213-0.060 0.343 0.039 0.308 0.252zM17.884 23.090c0.515-0.601 1.028-1.201 1.544-1.803 0.064 0.669-1.073 2.006-1.544 1.803zM22.815 21.877c-0.109 0.062-0.228 0.108-0.34 0.166-0.103 0.053-0.136-0-0.139-0.089-0.002-0.060 0.007-0.122 0.023-0.18 0.208-0.735 0.592-1.363 1.163-1.873 0.008-0.008 0.021-0.011 0.040-0.021 0.271 0.759-0.042 1.593-0.747 1.997z"></path>
</svg>
