<?xml version="1.0" encoding="utf-8"?>
<!-- Generated by IcoMoon.io -->
<!DOCTYPE svg PUBLIC "-//W3C//DTD SVG 1.1//EN" "http://www.w3.org/Graphics/SVG/1.1/DTD/svg11.dtd">
<svg version="1.1" xmlns="http://www.w3.org/2000/svg" xmlns:xlink="http://www.w3.org/1999/xlink" width="32" height="32" viewBox="0 0 32 32">
<path d="M6.594 13.969q0.219 0 0.391 0.031t0.297 0.094 0.203 0.125 0.078 0.156q0 0.125-0.031 0.234t-0.094 0.266q-0.063 0.125-0.109 0.234t-0.078 0.203q-0.031 0.031-0.063 0.031t-0.063-0.031l-0.016-0.031t-0.016-0.063q0.031-0.063 0.031-0.156v-0.219q0-0.156-0.031-0.266t-0.094-0.203q-0.094-0.094-0.188-0.125t-0.219-0.031q-0.156 0-0.297 0.047t-0.234 0.141-0.156 0.25-0.063 0.313 0.047 0.313 0.141 0.281q0.063 0.156 0.156 0.297t0.219 0.266l0.375 0.625q0.063 0.156 0.109 0.328t0.047 0.391q0 0.344-0.141 0.625t-0.422 0.469-0.641 0.281-0.828 0.094q-0.313 0-0.578-0.047t-0.453-0.172q-0.188-0.094-0.281-0.219t-0.094-0.25q0-0.031 0.016-0.078t0.047-0.109q0.031-0.094 0.063-0.156t0.094-0.156q0.031-0.063 0.094-0.141t0.094-0.172l0.25-0.25h0.063t0.063 0.031 0.031 0.063-0.031 0.063q-0.063 0.031-0.094 0.094l-0.063 0.125t-0.047 0.156-0.016 0.188q0 0.188 0.047 0.328t0.172 0.266q0.125 0.094 0.281 0.156t0.313 0.063q0.281 0 0.469-0.078t0.344-0.203q0.125-0.156 0.203-0.328t0.078-0.359-0.047-0.359-0.141-0.328q-0.063-0.156-0.156-0.313l-0.563-0.938q-0.063-0.156-0.109-0.313t-0.047-0.344q0-0.25 0.109-0.453t0.328-0.391q0.219-0.156 0.531-0.25t0.719-0.094v0zM11.906 14.063q0.031 0.031 0.047 0.063t0.016 0.063-0.047 0.063-0.141 0.031h-0.297t-0.359 0.031q-0.188 0-0.391 0.016t-0.422 0.047q-0.188 0.469-0.344 0.922t-0.281 0.922q-0.125 0.438-0.188 0.813t-0.063 0.656q0 0.313 0.125 0.484t0.375 0.172 0.531-0.219 0.594-0.656q0.031-0.031 0.063-0.031t0.031 0.031q0.031 0.031 0.047 0.063t-0.016 0.063q-0.156 0.281-0.359 0.516t-0.453 0.422q-0.281 0.219-0.516 0.313t-0.484 0.094-0.438-0.063-0.313-0.188q-0.125-0.094-0.188-0.266t-0.063-0.391q0-0.281 0.078-0.672t0.203-0.891 0.297-1 0.391-1q-0.25 0.031-0.484 0.063t-0.453 0.094l-0.047-0.047t0.016-0.047q0.031-0.063 0.063-0.094l0.094-0.094q0.063-0.031 0.141-0.078t0.172-0.078 0.172-0.047 0.172-0.016h0.313l0.25-0.563t0.25-0.531q0.156-0.281 0.281-0.516t0.281-0.453q0.063-0.063 0.141-0.125t0.172-0.094q0.094-0.063 0.203-0.109t0.203-0.078 0.172-0.047 0.141-0.016 0.094 0.016 0 0.047q-0.156 0.25-0.313 0.531t-0.313 0.594q-0.188 0.313-0.328 0.641t-0.297 0.672q0.188 0 0.375-0.016t0.375-0.016h0.719zM23.656 4.375q0.156 0 0.281 0.031t0.188 0.094q0.094 0.094 0.156 0.188t0.125 0.219q0.031 0.125 0.031 0.25t-0.031 0.281-0.078 0.313-0.141 0.313q-0.031 0.031-0.047 0.031t-0.047-0.031q-0.031 0-0.047-0.031t-0.047-0.063q0.031-0.125-0.016-0.219t-0.141-0.156q-0.094-0.094-0.25-0.125t-0.375-0.031q-0.406 0-0.797 0.141t-0.797 0.453q-0.406 0.281-0.797 0.672t-0.766 0.891q-0.375 0.469-0.734 1.031t-0.703 1.188q-0.313 0.625-0.594 1.281t-0.531 1.313q-0.25 0.688-0.438 1.344t-0.344 1.313q-0.125 0.688-0.203 1.281t-0.078 1.125q0 0.313 0.094 0.453t0.25 0.141q0.125 0 0.234-0.047t0.203-0.141q0.125-0.094 0.25-0.25t0.281-0.344h0.094q0.031 0.031 0.047 0.063t-0.016 0.094q-0.188 0.281-0.422 0.516t-0.484 0.453q-0.25 0.188-0.5 0.281t-0.438 0.094-0.313-0.047-0.219-0.172q-0.063-0.094-0.094-0.234t-0.031-0.297q0-0.469 0.094-1.031t0.281-1.25 0.453-1.406 0.578-1.5q0.344-0.75 0.719-1.516t0.781-1.516q0.438-0.75 0.875-1.438t0.906-1.281 0.922-1.094 0.922-0.875 0.906-0.563 0.844-0.188v0zM6.438 28.219q-0.156 0-0.266-0.047t-0.203-0.109-0.156-0.172-0.094-0.203q-0.031-0.125-0.047-0.266t0.016-0.297 0.078-0.313 0.141-0.313q0.031-0.031 0.047-0.031t0.047 0.031 0.063 0.047 0.031 0.047q-0.031 0.125 0.016 0.219t0.141 0.156q0.094 0.094 0.25 0.125t0.375 0.031q0.406 0 0.813-0.141t0.813-0.422q0.375-0.313 0.766-0.703t0.766-0.859q0.406-0.5 0.75-1.063t0.688-1.188q0.313-0.625 0.609-1.281t0.516-1.313q0.25-0.656 0.438-1.328t0.344-1.328q0.125-0.656 0.203-1.266t0.078-1.141q0-0.281-0.078-0.438t-0.266-0.156q-0.094 0-0.219 0.047t-0.219 0.141q-0.125 0.125-0.25 0.266t-0.281 0.328q-0.031 0.031-0.047 0.031t-0.047-0.031-0.031-0.063v-0.063q0.188-0.313 0.422-0.547t0.484-0.422q0.281-0.188 0.516-0.297t0.453-0.109q0.188 0 0.313 0.063t0.188 0.156q0.063 0.125 0.109 0.25t0.047 0.313q0 0.438-0.094 1.016t-0.313 1.234q-0.188 0.688-0.438 1.422t-0.594 1.484q-0.313 0.75-0.688 1.516t-0.813 1.516-0.875 1.438-0.906 1.281q-0.469 0.625-0.922 1.109t-0.922 0.859-0.906 0.578-0.844 0.203v0zM19.531 18.938q-0.406 0-0.609-0.219t-0.203-0.656q0-0.156 0.016-0.344t0.078-0.375q0.031-0.219 0.078-0.422t0.109-0.422q0.094-0.219 0.172-0.438t0.172-0.469q0.094-0.219 0.219-0.422t0.25-0.422q-0.094 0.063-0.203 0.141t-0.203 0.141-0.188 0.141-0.156 0.172h-0.063t-0.063-0.031v-0.125q0.156-0.188 0.406-0.359t0.531-0.359q0.313-0.188 0.609-0.328t0.578-0.266q0.031 0 0.078 0.016t0.047 0.047q0.031 0 0.031 0.031v0.094q-0.313 0.406-0.563 0.844t-0.438 0.906-0.281 0.938-0.094 0.906q0 0.281 0.078 0.422t0.266 0.141q0.125 0 0.281-0.078t0.344-0.266q0.188-0.156 0.375-0.375t0.406-0.5q0.188-0.281 0.391-0.594t0.422-0.656 0.406-0.703 0.375-0.734q0-0.031 0.094-0.094t0.219-0.125q0.156-0.063 0.297-0.094t0.297-0.031q0.125 0 0.172 0.047t-0.016 0.109q-0.125 0.25-0.25 0.484t-0.219 0.453l-0.188 0.438t-0.156 0.438-0.109 0.438-0.078 0.438-0.047 0.453-0.016 0.484q0 0.313 0.078 0.469t0.234 0.156 0.344-0.141 0.406-0.422q0.031-0.031 0.047-0.031t0.047 0.031q0.031 0 0.047 0.031t0.016 0.063q-0.188 0.25-0.359 0.453t-0.391 0.328q-0.188 0.125-0.375 0.188t-0.344 0.063q-0.406 0-0.609-0.234t-0.203-0.703q0-0.5 0.094-0.984t0.25-0.984q-0.375 0.656-0.75 1.188t-0.813 0.938q-0.406 0.406-0.75 0.594t-0.625 0.188v0zM27.563 13.969q0.219 0 0.391 0.031t0.297 0.094 0.188 0.125 0.063 0.156q0 0.125-0.016 0.234t-0.078 0.266q-0.063 0.125-0.109 0.234t-0.109 0.203q0 0.031-0.031 0.031t-0.063-0.031q-0.031 0-0.047-0.031t-0.016-0.063q0.031-0.063 0.047-0.156t0.016-0.219q0-0.156-0.031-0.266t-0.094-0.203q-0.094-0.094-0.188-0.125t-0.219-0.031q-0.156 0-0.297 0.047t-0.234 0.141q-0.125 0.094-0.172 0.25t-0.047 0.313 0.047 0.313 0.109 0.281q0.094 0.156 0.188 0.297t0.188 0.266q0.125 0.156 0.219 0.313t0.156 0.313q0.094 0.156 0.141 0.328t0.047 0.391q0 0.344-0.141 0.625t-0.422 0.469-0.656 0.281-0.813 0.094q-0.344 0-0.594-0.047t-0.438-0.172q-0.188-0.094-0.297-0.219t-0.109-0.25q0-0.031 0.016-0.078t0.047-0.109q0.031-0.094 0.078-0.156t0.078-0.156q0.063-0.063 0.109-0.141t0.109-0.172l0.25-0.25h0.063t0.063 0.031q0 0.031 0.016 0.063t-0.016 0.063q-0.063 0.031-0.109 0.094t-0.078 0.125-0.047 0.156-0.016 0.188q0 0.188 0.063 0.328t0.188 0.266q0.125 0.094 0.266 0.156t0.328 0.063q0.25 0 0.453-0.078t0.328-0.203q0.156-0.156 0.219-0.328t0.063-0.359-0.031-0.359-0.125-0.328-0.172-0.313-0.172-0.313q-0.125-0.156-0.203-0.313t-0.172-0.313-0.125-0.313-0.031-0.344q0-0.25 0.109-0.453t0.297-0.391q0.219-0.156 0.531-0.25t0.75-0.094v0z"></path>
</svg>
