<?xml version="1.0" encoding="utf-8"?>
<!-- Generated by IcoMoon.io -->
<!DOCTYPE svg PUBLIC "-//W3C//DTD SVG 1.1//EN" "http://www.w3.org/Graphics/SVG/1.1/DTD/svg11.dtd">
<svg version="1.1" xmlns="http://www.w3.org/2000/svg" xmlns:xlink="http://www.w3.org/1999/xlink" width="27" height="32" viewBox="0 0 27 32">
<path d="M2.947 15.895v10.55h21.099v-21.099h-21.099v10.55zM14.91 10.682c0.228 0.056 0.448 0.124 0.655 0.203 0.453 0.173 1.066 0.379 1.477 0.789 0.166 0.166 0.146 0.215-0.234 0.762-0.225 0.313-0.44 0.615-0.479 0.664-0.049 0.049-0.171-0.039-0.566-0.225-0.795-0.373-1.524-0.713-2.325-0.713-1.123 0-1.7 0.43-1.7 1.28 0 0.781 0.537 1.133 2.442 1.622 2.51 0.645 3.399 1.495 3.36 3.233-0.025 1.105-0.864 2.235-1.842 2.663-1.112 0.486-2.415 0.418-3.553 0.066-0.624-0.193-1.273-0.456-1.841-0.779-0.211-0.12-0.501-0.301-0.681-0.481-0.197-0.197-0.096-0.235 0.083-0.462 0.137-0.186 0.381-0.479 0.537-0.654l0.273-0.332 0.655 0.44c0.947 0.635 1.621 0.86 2.579 0.869 0.948 0.010 1.426-0.186 1.778-0.703 0.186-0.264 0.225-0.43 0.176-0.733-0.068-0.586-0.527-0.957-1.592-1.27-2.344-0.703-2.755-0.85-3.126-1.114-0.469-0.342-0.84-0.811-0.996-1.27-0.156-0.469-0.137-1.455 0.049-1.983 0.69-1.96 3.049-2.317 4.871-1.872z"></path>
</svg>
