<?xml version="1.0" encoding="utf-8"?>
<!-- Generated by IcoMoon.io -->
<!DOCTYPE svg PUBLIC "-//W3C//DTD SVG 1.1//EN" "http://www.w3.org/Graphics/SVG/1.1/DTD/svg11.dtd">
<svg version="1.1" xmlns="http://www.w3.org/2000/svg" xmlns:xlink="http://www.w3.org/1999/xlink" width="32" height="32" viewBox="0 0 32 32">
<path d="M18.781 6.188l0.813 0.547t1.875 1.547 2.109 2.438 1.547 3.219q0.875 3.219 0.563 4.781l-0.313 1.563 0.438 0.547t0.969 1.797q0.781 1.875 0.5 2.813l-0.281 0.938-0.344-0.922t-2.25-1.172q-1.719-0.25-2.969 0.844t-4.531 1.031q-0.938-0.031-2.344-0.234t-3.047-0.922-3.406-2.109-3.422-3.797q1.625 0.938 3.734 1.984t4.734 0.859q2.625-0.219 3.422-0.828l0.797-0.609-1.109-0.938t-2.703-2.5-3.375-3.594-3.156-4.219q1.031 0.906 2.656 2.125t3.141 2.328 2.594 1.875 1.016 0.703q-0.781-0.594-1.938-1.953t-2.25-2.75-1.859-2.453l-0.766-1.063 1.609 1.359t3.609 3 3.75 3 2.063 1.328q0.125-0.281 0.406-1.109t0.266-2.156-0.531-3.172-2.016-4.125v0z"></path>
</svg>
