<?xml version="1.0" encoding="utf-8"?>
<!-- Generated by IcoMoon.io -->
<!DOCTYPE svg PUBLIC "-//W3C//DTD SVG 1.1//EN" "http://www.w3.org/Graphics/SVG/1.1/DTD/svg11.dtd">
<svg version="1.1" xmlns="http://www.w3.org/2000/svg" xmlns:xlink="http://www.w3.org/1999/xlink" width="32" height="32" viewBox="0 0 32 32">
<path d="M27.313 16.281q0 2.344-0.891 4.406t-2.422 3.594-3.594 2.422-4.406 0.891-4.406-0.891-3.594-2.422-2.422-3.594-0.891-4.406 0.891-4.406 2.422-3.594 3.594-2.422 4.406-0.891 4.406 0.891 3.594 2.422 2.422 3.594 0.891 4.406v0zM20.938 9.156q-0.844 0.031-1.594 0.469t-1.281 1.094q-0.625 0.719-1.063 1.547t-0.719 1.703q-0.531-0.438-1.047-0.922t-1.359-0.734q-0.656-0.188-1.328-0.094t-1.328 0.563q-0.281 0.25-0.5 0.563t-0.313 0.625q-0.25 0.844 0.094 1.516t0.594 0.953l0.688 0.75q0.125 0.094 0.281 0.375t0.031 0.688q-0.125 0.438-0.594 0.672t-1.031 0.078q-0.25-0.063-0.516-0.25t-0.172-0.438q0.031-0.094 0.094-0.188t0.094-0.188q0.063-0.063 0.078-0.125t0.016-0.094q0.094-0.344-0.031-0.703t-0.469-0.453-0.641 0.016-0.422 0.516q-0.156 0.469 0.172 1.203t1.578 1.109q1.438 0.438 2.516-0.188t1.266-1.625q0.094-0.656-0.172-1.188t-0.797-1.125l-0.563-0.656q-0.25-0.25-0.313-0.656t0.188-0.719 0.594-0.422 0.875 0.047q0.781 0.219 1.234 0.688t1.047 0.906q-0.25 0.781-0.422 1.547t-0.297 1.484l-0.125 0.688q-0.406 2.188-0.828 3.453t-1.234 1.953q-0.156 0.125-0.406 0.266t-0.625 0.141q-0.188 0.031-0.25-0.063t-0.063-0.156q0-0.125 0.078-0.203l0.141-0.141q0.125-0.063 0.25-0.188t0.125-0.438q-0.031-0.375-0.313-0.656t-0.719-0.281q-0.344 0.031-0.734 0.344t-0.391 0.875q0.031 0.594 0.547 1t1.359 0.375q0.438-0.031 1.359-0.344t1.891-1.5q1.156-1.344 1.609-2.797t0.703-2.578l0.344-2q0.156 0 0.328 0.016t0.328 0.016q1.438 0.031 2.156-0.547t0.75-1.109q0-0.344-0.203-0.609t-0.516-0.266q-0.219 0-0.453 0.156t-0.297 0.469 0.203 0.578-0.141 0.547q-0.281 0.188-0.797 0.281t-1.266 0l0.188-1q0.281-1.375 0.75-2.766t1.75-1.422q0.094 0 0.344 0.031t0.25 0.25q0 0.094-0.031 0.141t-0.094 0.234q-0.094 0.125-0.141 0.25t-0.047 0.25q0.031 0.344 0.281 0.563t0.625 0.219q0.531-0.031 0.719-0.422t0.188-0.641q-0.031-0.625-0.609-0.984t-1.453-0.328v0z"></path>
</svg>
