<?xml version="1.0" encoding="utf-8"?>
<!-- Generated by IcoMoon.io -->
<!DOCTYPE svg PUBLIC "-//W3C//DTD SVG 1.1//EN" "http://www.w3.org/Graphics/SVG/1.1/DTD/svg11.dtd">
<svg version="1.1" xmlns="http://www.w3.org/2000/svg" xmlns:xlink="http://www.w3.org/1999/xlink" width="32" height="32" viewBox="0 0 32 32">
<path d="M4.686 15.88c0 4.477 2.602 8.35 6.377 10.181l-5.397-14.787c-0.629 1.408-0.981 2.965-0.981 4.606zM23.639 15.308c0-1.398-0.503-2.368-0.933-3.121-0.574-0.933-1.11-1.721-1.11-2.654 0-1.040 0.786-2.008 1.9-2.008 0.048 0 0.097 0.007 0.145 0.010-2.012-1.844-4.694-2.971-7.64-2.971-3.954 0-7.431 2.029-9.454 5.101 0.266 0.008 0.515 0.014 0.727 0.014 1.184 0 3.016-0.145 3.016-0.145 0.609-0.034 0.681 0.86 0.071 0.933 0 0-0.612 0.071-1.295 0.108l4.121 12.255 2.477-7.425-1.764-4.83c-0.609-0.037-1.187-0.108-1.187-0.108-0.61-0.037-0.538-0.967 0.073-0.933 0 0 1.867 0.145 2.978 0.145 1.183 0 3.017-0.145 3.017-0.145 0.607-0.034 0.68 0.86 0.070 0.933 0 0-0.611 0.071-1.294 0.108l4.089 12.161 1.129-3.77c0.574-1.471 0.862-2.689 0.862-3.658zM16.2 16.87l-3.396 9.866c1.013 0.298 2.084 0.46 3.197 0.46 1.317 0 2.581-0.228 3.757-0.643-0.030-0.048-0.058-0.099-0.081-0.154l-3.477-9.529zM25.929 10.45c0.050 0.362 0.078 0.748 0.078 1.165 0 1.148-0.215 2.438-0.862 4.053l-3.456 9.991c3.363-1.96 5.625-5.604 5.625-9.778 0-1.969-0.502-3.818-1.385-5.431z"></path>
</svg>
