<?xml version="1.0" encoding="utf-8"?>
<!-- Generator: Adobe Illustrator 18.1.1, SVG Export Plug-In . SVG Version: 6.00 Build 0)  -->
<!DOCTYPE svg PUBLIC "-//W3C//DTD SVG 1.1//EN" "http://www.w3.org/Graphics/SVG/1.1/DTD/svg11.dtd">
<svg version="1.1" id="Layer_1" xmlns="http://www.w3.org/2000/svg" xmlns:xlink="http://www.w3.org/1999/xlink" x="0px" y="0px"
	 viewBox="0 0 253 186" enable-background="new 0 0 253 186" xml:space="preserve">
<g id="nCN1oi.tif">
	<g>
		<g>
			<path fill="#FFFFFF" d="M0,186C0,124,0,62,0,0c84.3,0,168.7,0,253,0c0,62,0,124,0,186C168.7,186,84.3,186,0,186z M120.5,184.1
				c0-0.1,0-0.1,0-0.2c16.8,0,33.8,1.4,50.5-0.3c58.7-5.8,95.8-66.9,75.3-122.6C223.4-0.9,144.5-19.1,96.8,26.7
				c-2.3,2.2-4.5,2.8-7.8,2.7c-8.6-0.2-17.4-0.2-25.8,1.5C26,38.4-1.5,74.7,2.8,115.3C6.7,151.8,38.4,182.8,75,184
				C90.2,184.5,105.4,184.1,120.5,184.1z"/>
			<path d="M120.5,184.1c-15.2,0-30.3,0.4-45.5-0.1c-36.6-1.2-68.3-32.2-72.2-68.7C-1.5,74.7,26,38.4,63.2,30.9
				c8.4-1.7,17.2-1.6,25.8-1.5c3.4,0.1,5.5-0.5,7.8-2.7C144.5-19.1,223.4-0.9,246.2,61c20.6,55.7-16.6,116.8-75.3,122.6
				c-16.7,1.7-33.6,0.3-50.5,0.3C120.5,184,120.5,184,120.5,184.1z M112.2,35.2c4.8,2.9,8.9,5.1,12.6,7.8c2.2,1.6,3.7,1.6,6.2,0.2
				c11.6-6.6,23.9-9.3,37.4-7.3c28,4,49.3,28.2,49.5,56.6c0.1,22.7-13.9,44.5-34.4,53.1c-22.1,9.3-46.7,5-63.4-11.4
				c-11.7-11.4-23.1-23.1-34.7-34.6c-4.5-4.4-9.4-4.8-13.3-1.2c-4.1,3.8-3.9,8.9,0.8,13.6c11.7,11.8,23.4,23.7,35.4,35.2
				c17.6,16.8,38.6,23.4,62.8,20c40.2-5.7,68.8-43.1,63.8-83.4c-5.8-46.6-52.3-76.6-97.1-62.7C128.6,23.9,120.1,28.3,112.2,35.2z
				 M106.4,167.7c-4.6-4.4-8.5-7.5-11.7-11.2c-4.2-4.9-9-7.5-15.6-6.5c-1.9,0.3-4,0.1-6-0.3c-18.6-3.3-33.3-17.8-36.1-35.5
				C34,95,43.2,76.5,60.2,67.8C77.3,59,97,62.1,111.2,76c7.7,7.6,15.3,15.4,23,23c5,5,10,5.3,14,1.2c3.8-3.9,3.3-8.9-1.4-13.7
				c-7.5-7.6-15-15.2-22.6-22.6c-14.3-14-31.3-20.2-51.3-18c-24.1,2.7-44.6,20-51.7,43.9c-6.8,23.1,1.6,49,20.1,64.4
				C60.3,169.8,82.5,168.5,106.4,167.7z"/>
			<path fill="#FFFFFF" d="M112.2,35.2c7.9-6.9,16.3-11.3,25.6-14.2c44.8-13.9,91.3,16.1,97.1,62.7c5,40.4-23.5,77.8-63.8,83.4
				c-24.1,3.4-45.2-3.2-62.8-20c-12-11.5-23.7-23.4-35.4-35.2c-4.7-4.7-4.8-9.8-0.8-13.6c3.8-3.6,8.8-3.2,13.3,1.2
				c11.6,11.5,23,23.2,34.7,34.6c16.8,16.4,41.3,20.8,63.4,11.4c20.5-8.6,34.5-30.4,34.4-53.1c-0.2-28.4-21.5-52.6-49.5-56.6
				c-13.4-1.9-25.8,0.7-37.4,7.3c-2.4,1.4-3.9,1.3-6.2-0.2C121.1,40.3,117,38.1,112.2,35.2z"/>
			<path fill="#FFFFFF" d="M106.4,167.7c-23.9,0.8-46.1,2.1-65.1-13.6c-18.5-15.3-26.9-41.3-20.1-64.4c7-23.9,27.6-41.2,51.7-43.9
				c20.1-2.2,37,4,51.3,18c7.6,7.5,15.1,15,22.6,22.6c4.7,4.7,5.2,9.8,1.4,13.7c-4,4.1-9,3.8-14-1.2c-7.7-7.6-15.3-15.4-23-23
				C97,62.1,77.3,59,60.2,67.8C43.2,76.5,34,95,37.1,114.2c2.8,17.7,17.5,32.2,36.1,35.5c2,0.4,4,0.6,6,0.3c6.6-1,11.4,1.6,15.6,6.5
				C98,160.2,101.8,163.4,106.4,167.7z"/>
		</g>
	</g>
</g>
</svg>
